<?xml version="1.0" encoding="UTF-8"?>
<svg xmlns="http://www.w3.org/2000/svg" width="980" height="560" viewBox="0 0 980 560">
<rect width="100%" height="100%" fill="#ffffff" />
<text x="78" y="30" font-family="Arial, sans-serif" font-size="22" font-weight="700">Passband Droop, decimation=625</text>
<rect x="78" y="54" width="876" height="438" fill="#fafafa" stroke="#222" stroke-width="1" />
<line x1="78.00" y1="54" x2="78.00" y2="492" stroke="#ddd" />
<text x="78.00" y="518" font-family="Arial, sans-serif" font-size="12" text-anchor="middle">0</text>
<line x1="187.50" y1="54" x2="187.50" y2="492" stroke="#ddd" />
<text x="187.50" y="518" font-family="Arial, sans-serif" font-size="12" text-anchor="middle">0.12</text>
<line x1="297.00" y1="54" x2="297.00" y2="492" stroke="#ddd" />
<text x="297.00" y="518" font-family="Arial, sans-serif" font-size="12" text-anchor="middle">0.25</text>
<line x1="406.50" y1="54" x2="406.50" y2="492" stroke="#ddd" />
<text x="406.50" y="518" font-family="Arial, sans-serif" font-size="12" text-anchor="middle">0.38</text>
<line x1="516.00" y1="54" x2="516.00" y2="492" stroke="#ddd" />
<text x="516.00" y="518" font-family="Arial, sans-serif" font-size="12" text-anchor="middle">0.5</text>
<line x1="625.50" y1="54" x2="625.50" y2="492" stroke="#ddd" />
<text x="625.50" y="518" font-family="Arial, sans-serif" font-size="12" text-anchor="middle">0.62</text>
<line x1="735.00" y1="54" x2="735.00" y2="492" stroke="#ddd" />
<text x="735.00" y="518" font-family="Arial, sans-serif" font-size="12" text-anchor="middle">0.75</text>
<line x1="844.50" y1="54" x2="844.50" y2="492" stroke="#ddd" />
<text x="844.50" y="518" font-family="Arial, sans-serif" font-size="12" text-anchor="middle">0.88</text>
<line x1="954.00" y1="54" x2="954.00" y2="492" stroke="#ddd" />
<text x="954.00" y="518" font-family="Arial, sans-serif" font-size="12" text-anchor="middle">1</text>
<line x1="78" y1="492.00" x2="954" y2="492.00" stroke="#ddd" />
<text x="68" y="492.00" font-family="Arial, sans-serif" font-size="12" text-anchor="end" dominant-baseline="middle">-10</text>
<line x1="78" y1="93.82" x2="954" y2="93.82" stroke="#ddd" />
<text x="68" y="93.82" font-family="Arial, sans-serif" font-size="12" text-anchor="end" dominant-baseline="middle">0</text>
<polyline points="78.00,93.82 79.75,93.82 81.50,93.82 83.26,93.82 85.01,93.82 86.76,93.82 88.51,93.82 90.26,93.82 92.02,93.83 93.77,93.83 95.52,93.83 97.27,93.83 99.02,93.83 100.78,93.84 102.53,93.84 104.28,93.84 106.03,93.85 107.78,93.85 109.54,93.86 111.29,93.86 113.04,93.86 114.79,93.87 116.54,93.87 118.30,93.88 120.05,93.88 121.80,93.89 123.55,93.90 125.30,93.90 127.06,93.91 128.81,93.91 130.56,93.92 132.31,93.93 134.06,93.94 135.82,93.94 137.57,93.95 139.32,93.96 141.07,93.97 142.82,93.98 144.58,93.98 146.33,93.99 148.08,94.00 149.83,94.01 151.58,94.02 153.34,94.03 155.09,94.04 156.84,94.05 158.59,94.06 160.34,94.07 162.10,94.08 163.85,94.09 165.60,94.11 167.35,94.12 169.10,94.13 170.86,94.14 172.61,94.15 174.36,94.17 176.11,94.18 177.86,94.19 179.62,94.20 181.37,94.22 183.12,94.23 184.87,94.25 186.62,94.26 188.38,94.27 190.13,94.29 191.88,94.30 193.63,94.32 195.38,94.34 197.14,94.35 198.89,94.37 200.64,94.38 202.39,94.40 204.14,94.42 205.90,94.43 207.65,94.45 209.40,94.47 211.15,94.48 212.90,94.50 214.66,94.52 216.41,94.54 218.16,94.56 219.91,94.58 221.66,94.60 223.42,94.61 225.17,94.63 226.92,94.65 228.67,94.67 230.42,94.69 232.18,94.71 233.93,94.74 235.68,94.76 237.43,94.78 239.18,94.80 240.94,94.82 242.69,94.84 244.44,94.86 246.19,94.89 247.94,94.91 249.70,94.93 251.45,94.96 253.20,94.98 254.95,95.00 256.70,95.03 258.46,95.05 260.21,95.08 261.96,95.10 263.71,95.13 265.46,95.15 267.22,95.18 268.97,95.20 270.72,95.23 272.47,95.25 274.22,95.28 275.98,95.31 277.73,95.33 279.48,95.36 281.23,95.39 282.98,95.42 284.74,95.44 286.49,95.47 288.24,95.50 289.99,95.53 291.74,95.56 293.50,95.59 295.25,95.62 297.00,95.65 298.75,95.68 300.50,95.71 302.26,95.74 304.01,95.77 305.76,95.80 307.51,95.83 309.26,95.86 311.02,95.90 312.77,95.93 314.52,95.96 316.27,95.99 318.02,96.03 319.78,96.06 321.53,96.09 323.28,96.13 325.03,96.16 326.78,96.20 328.54,96.23 330.29,96.27 332.04,96.30 333.79,96.34 335.54,96.37 337.30,96.41 339.05,96.44 340.80,96.48 342.55,96.52 344.30,96.55 346.06,96.59 347.81,96.63 349.56,96.67 351.31,96.71 353.06,96.74 354.82,96.78 356.57,96.82 358.32,96.86 360.07,96.90 361.82,96.94 363.58,96.98 365.33,97.02 367.08,97.06 368.83,97.10 370.58,97.15 372.34,97.19 374.09,97.23 375.84,97.27 377.59,97.31 379.34,97.36 381.10,97.40 382.85,97.44 384.60,97.49 386.35,97.53 388.10,97.57 389.86,97.62 391.61,97.66 393.36,97.71 395.11,97.75 396.86,97.80 398.62,97.85 400.37,97.89 402.12,97.94 403.87,97.99 405.62,98.03 407.38,98.08 409.13,98.13 410.88,98.18 412.63,98.23 414.38,98.27 416.14,98.32 417.89,98.37 419.64,98.42 421.39,98.47 423.14,98.52 424.90,98.57 426.65,98.62 428.40,98.67 430.15,98.73 431.90,98.78 433.66,98.83 435.41,98.88 437.16,98.94 438.91,98.99 440.66,99.04 442.42,99.10 444.17,99.15 445.92,99.20 447.67,99.26 449.42,99.31 451.18,99.37 452.93,99.42 454.68,99.48 456.43,99.54 458.18,99.59 459.94,99.65 461.69,99.71 463.44,99.77 465.19,99.82 466.94,99.88 468.70,99.94 470.45,100.00 472.20,100.06 473.95,100.12 475.70,100.18 477.46,100.24 479.21,100.30 480.96,100.36 482.71,100.42 484.46,100.48 486.22,100.54 487.97,100.61 489.72,100.67 491.47,100.73 493.22,100.79 494.98,100.86 496.73,100.92 498.48,100.99 500.23,101.05 501.98,101.12 503.74,101.18 505.49,101.25 507.24,101.31 508.99,101.38 510.74,101.45 512.50,101.51 514.25,101.58 516.00,101.65 517.75,101.72 519.50,101.79 521.26,101.85 523.01,101.92 524.76,101.99 526.51,102.06 528.26,102.13 530.02,102.20 531.77,102.27 533.52,102.35 535.27,102.42 537.02,102.49 538.78,102.56 540.53,102.64 542.28,102.71 544.03,102.78 545.78,102.86 547.54,102.93 549.29,103.01 551.04,103.08 552.79,103.16 554.54,103.23 556.30,103.31 558.05,103.38 559.80,103.46 561.55,103.54 563.30,103.62 565.06,103.69 566.81,103.77 568.56,103.85 570.31,103.93 572.06,104.01 573.82,104.09 575.57,104.17 577.32,104.25 579.07,104.33 580.82,104.41 582.58,104.50 584.33,104.58 586.08,104.66 587.83,104.74 589.58,104.83 591.34,104.91 593.09,105.00 594.84,105.08 596.59,105.17 598.34,105.25 600.10,105.34 601.85,105.42 603.60,105.51 605.35,105.60 607.10,105.68 608.86,105.77 610.61,105.86 612.36,105.95 614.11,106.04 615.86,106.13 617.62,106.22 619.37,106.31 621.12,106.40 622.87,106.49 624.62,106.58 626.38,106.67 628.13,106.77 629.88,106.86 631.63,106.95 633.38,107.05 635.14,107.14 636.89,107.24 638.64,107.33 640.39,107.43 642.14,107.52 643.90,107.62 645.65,107.71 647.40,107.81 649.15,107.91 650.90,108.01 652.66,108.11 654.41,108.20 656.16,108.30 657.91,108.40 659.66,108.50 661.42,108.60 663.17,108.71 664.92,108.81 666.67,108.91 668.42,109.01 670.18,109.11 671.93,109.22 673.68,109.32 675.43,109.43 677.18,109.53 678.94,109.64 680.69,109.74 682.44,109.85 684.19,109.95 685.94,110.06 687.70,110.17 689.45,110.28 691.20,110.38 692.95,110.49 694.70,110.60 696.46,110.71 698.21,110.82 699.96,110.93 701.71,111.04 703.46,111.15 705.22,111.27 706.97,111.38 708.72,111.49 710.47,111.60 712.22,111.72 713.98,111.83 715.73,111.95 717.48,112.06 719.23,112.18 720.98,112.30 722.74,112.41 724.49,112.53 726.24,112.65 727.99,112.76 729.74,112.88 731.50,113.00 733.25,113.12 735.00,113.24 736.75,113.36 738.50,113.48 740.26,113.61 742.01,113.73 743.76,113.85 745.51,113.97 747.26,114.10 749.02,114.22 750.77,114.35 752.52,114.47 754.27,114.60 756.02,114.72 757.78,114.85 759.53,114.98 761.28,115.10 763.03,115.23 764.78,115.36 766.54,115.49 768.29,115.62 770.04,115.75 771.79,115.88 773.54,116.01 775.30,116.14 777.05,116.27 778.80,116.41 780.55,116.54 782.30,116.67 784.06,116.81 785.81,116.94 787.56,117.08 789.31,117.21 791.06,117.35 792.82,117.49 794.57,117.62 796.32,117.76 798.07,117.90 799.82,118.04 801.58,118.18 803.33,118.32 805.08,118.46 806.83,118.60 808.58,118.74 810.34,118.88 812.09,119.03 813.84,119.17 815.59,119.31 817.34,119.46 819.10,119.60 820.85,119.75 822.60,119.89 824.35,120.04 826.10,120.19 827.86,120.34 829.61,120.48 831.36,120.63 833.11,120.78 834.86,120.93 836.62,121.08 838.37,121.23 840.12,121.39 841.87,121.54 843.62,121.69 845.38,121.84 847.13,122.00 848.88,122.15 850.63,122.31 852.38,122.46 854.14,122.62 855.89,122.77 857.64,122.93 859.39,123.09 861.14,123.25 862.90,123.41 864.65,123.57 866.40,123.73 868.15,123.89 869.90,124.05 871.66,124.21 873.41,124.37 875.16,124.54 876.91,124.70 878.66,124.86 880.42,125.03 882.17,125.19 883.92,125.36 885.67,125.53 887.42,125.69 889.18,125.86 890.93,126.03 892.68,126.20 894.43,126.37 896.18,126.54 897.94,126.71 899.69,126.88 901.44,127.05 903.19,127.23 904.94,127.40 906.70,127.57 908.45,127.75 910.20,127.92 911.95,128.10 913.70,128.27 915.46,128.45 917.21,128.63 918.96,128.81 920.71,128.99 922.46,129.16 924.22,129.34 925.97,129.53 927.72,129.71 929.47,129.89 931.22,130.07 932.98,130.25 934.73,130.44 936.48,130.62 938.23,130.81 939.98,130.99 941.74,131.18 943.49,131.37 945.24,131.55 946.99,131.74 948.74,131.93 950.50,132.12 952.25,132.31 954.00,132.50" fill="none" stroke="rgb(33,101,172)" stroke-width="2.0" stroke-linejoin="round" stroke-linecap="round" />
<polyline points="78.00,93.82 79.75,93.82 81.50,93.82 83.26,93.82 85.01,93.83 86.76,93.83 88.51,93.84 90.26,93.85 92.02,93.85 93.77,93.86 95.52,93.88 97.27,93.89 99.02,93.90 100.78,93.91 102.53,93.93 104.28,93.95 106.03,93.96 107.78,93.98 109.54,94.00 111.29,94.02 113.04,94.05 114.79,94.07 116.54,94.09 118.30,94.12 120.05,94.15 121.80,94.17 123.55,94.20 125.30,94.23 127.06,94.26 128.81,94.30 130.56,94.33 132.31,94.37 134.06,94.40 135.82,94.44 137.57,94.48 139.32,94.52 141.07,94.56 142.82,94.60 144.58,94.64 146.33,94.68 148.08,94.73 149.83,94.78 151.58,94.82 153.34,94.87 155.09,94.92 156.84,94.97 158.59,95.02 160.34,95.08 162.10,95.13 163.85,95.19 165.60,95.24 167.35,95.30 169.10,95.36 170.86,95.42 172.61,95.48 174.36,95.54 176.11,95.60 177.86,95.67 179.62,95.73 181.37,95.80 183.12,95.87 184.87,95.94 186.62,96.01 188.38,96.08 190.13,96.15 191.88,96.23 193.63,96.30 195.38,96.38 197.14,96.45 198.89,96.53 200.64,96.61 202.39,96.69 204.14,96.77 205.90,96.86 207.65,96.94 209.40,97.02 211.15,97.11 212.90,97.20 214.66,97.29 216.41,97.38 218.16,97.47 219.91,97.56 221.66,97.65 223.42,97.75 225.17,97.84 226.92,97.94 228.67,98.04 230.42,98.14 232.18,98.24 233.93,98.34 235.68,98.44 237.43,98.54 239.18,98.65 240.94,98.75 242.69,98.86 244.44,98.97 246.19,99.08 247.94,99.19 249.70,99.30 251.45,99.41 253.20,99.53 254.95,99.64 256.70,99.76 258.46,99.87 260.21,99.99 261.96,100.11 263.71,100.23 265.46,100.36 267.22,100.48 268.97,100.60 270.72,100.73 272.47,100.86 274.22,100.98 275.98,101.11 277.73,101.24 279.48,101.38 281.23,101.51 282.98,101.64 284.74,101.78 286.49,101.91 288.24,102.05 289.99,102.19 291.74,102.33 293.50,102.47 295.25,102.61 297.00,102.75 298.75,102.90 300.50,103.04 302.26,103.19 304.01,103.34 305.76,103.49 307.51,103.64 309.26,103.79 311.02,103.94 312.77,104.09 314.52,104.25 316.27,104.41 318.02,104.56 319.78,104.72 321.53,104.88 323.28,105.04 325.03,105.20 326.78,105.37 328.54,105.53 330.29,105.70 332.04,105.86 333.79,106.03 335.54,106.20 337.30,106.37 339.05,106.54 340.80,106.71 342.55,106.89 344.30,107.06 346.06,107.24 347.81,107.42 349.56,107.60 351.31,107.78 353.06,107.96 354.82,108.14 356.57,108.32 358.32,108.51 360.07,108.69 361.82,108.88 363.58,109.07 365.33,109.26 367.08,109.45 368.83,109.64 370.58,109.83 372.34,110.03 374.09,110.22 375.84,110.42 377.59,110.62 379.34,110.82 381.10,111.02 382.85,111.22 384.60,111.42 386.35,111.62 388.10,111.83 389.86,112.04 391.61,112.24 393.36,112.45 395.11,112.66 396.86,112.87 398.62,113.08 400.37,113.30 402.12,113.51 403.87,113.73 405.62,113.95 407.38,114.16 409.13,114.38 410.88,114.61 412.63,114.83 414.38,115.05 416.14,115.28 417.89,115.50 419.64,115.73 421.39,115.96 423.14,116.19 424.90,116.42 426.65,116.65 428.40,116.88 430.15,117.12 431.90,117.35 433.66,117.59 435.41,117.83 437.16,118.07 438.91,118.31 440.66,118.55 442.42,118.79 444.17,119.04 445.92,119.28 447.67,119.53 449.42,119.78 451.18,120.03 452.93,120.28 454.68,120.53 456.43,120.78 458.18,121.04 459.94,121.29 461.69,121.55 463.44,121.81 465.19,122.06 466.94,122.33 468.70,122.59 470.45,122.85 472.20,123.11 473.95,123.38 475.70,123.65 477.46,123.92 479.21,124.18 480.96,124.46 482.71,124.73 484.46,125.00 486.22,125.27 487.97,125.55 489.72,125.83 491.47,126.11 493.22,126.39 494.98,126.67 496.73,126.95 498.48,127.23 500.23,127.52 501.98,127.80 503.74,128.09 505.49,128.38 507.24,128.67 508.99,128.96 510.74,129.25 512.50,129.54 514.25,129.84 516.00,130.14 517.75,130.43 519.50,130.73 521.26,131.03 523.01,131.33 524.76,131.64 526.51,131.94 528.26,132.25 530.02,132.55 531.77,132.86 533.52,133.17 535.27,133.48 537.02,133.79 538.78,134.11 540.53,134.42 542.28,134.74 544.03,135.05 545.78,135.37 547.54,135.69 549.29,136.01 551.04,136.33 552.79,136.66 554.54,136.98 556.30,137.31 558.05,137.64 559.80,137.97 561.55,138.30 563.30,138.63 565.06,138.96 566.81,139.30 568.56,139.63 570.31,139.97 572.06,140.31 573.82,140.65 575.57,140.99 577.32,141.33 579.07,141.67 580.82,142.02 582.58,142.36 584.33,142.71 586.08,143.06 587.83,143.41 589.58,143.76 591.34,144.12 593.09,144.47 594.84,144.83 596.59,145.18 598.34,145.54 600.10,145.90 601.85,146.26 603.60,146.63 605.35,146.99 607.10,147.36 608.86,147.72 610.61,148.09 612.36,148.46 614.11,148.83 615.86,149.21 617.62,149.58 619.37,149.95 621.12,150.33 622.87,150.71 624.62,151.09 626.38,151.47 628.13,151.85 629.88,152.23 631.63,152.62 633.38,153.01 635.14,153.39 636.89,153.78 638.64,154.17 640.39,154.57 642.14,154.96 643.90,155.35 645.65,155.75 647.40,156.15 649.15,156.55 650.90,156.95 652.66,157.35 654.41,157.75 656.16,158.16 657.91,158.56 659.66,158.97 661.42,159.38 663.17,159.79 664.92,160.20 666.67,160.62 668.42,161.03 670.18,161.45 671.93,161.86 673.68,162.28 675.43,162.70 677.18,163.13 678.94,163.55 680.69,163.97 682.44,164.40 684.19,164.83 685.94,165.26 687.70,165.69 689.45,166.12 691.20,166.56 692.95,166.99 694.70,167.43 696.46,167.87 698.21,168.31 699.96,168.75 701.71,169.19 703.46,169.63 705.22,170.08 706.97,170.53 708.72,170.98 710.47,171.43 712.22,171.88 713.98,172.33 715.73,172.78 717.48,173.24 719.23,173.70 720.98,174.16 722.74,174.62 724.49,175.08 726.24,175.54 727.99,176.01 729.74,176.48 731.50,176.95 733.25,177.42 735.00,177.89 736.75,178.36 738.50,178.83 740.26,179.31 742.01,179.79 743.76,180.27 745.51,180.75 747.26,181.23 749.02,181.71 750.77,182.20 752.52,182.69 754.27,183.17 756.02,183.67 757.78,184.16 759.53,184.65 761.28,185.14 763.03,185.64 764.78,186.14 766.54,186.64 768.29,187.14 770.04,187.64 771.79,188.15 773.54,188.65 775.30,189.16 777.05,189.67 778.80,190.18 780.55,190.69 782.30,191.21 784.06,191.72 785.81,192.24 787.56,192.76 789.31,193.28 791.06,193.80 792.82,194.33 794.57,194.85 796.32,195.38 798.07,195.91 799.82,196.44 801.58,196.97 803.33,197.50 805.08,198.04 806.83,198.57 808.58,199.11 810.34,199.65 812.09,200.20 813.84,200.74 815.59,201.28 817.34,201.83 819.10,202.38 820.85,202.93 822.60,203.48 824.35,204.04 826.10,204.59 827.86,205.15 829.61,205.71 831.36,206.27 833.11,206.83 834.86,207.40 836.62,207.96 838.37,208.53 840.12,209.10 841.87,209.67 843.62,210.24 845.38,210.82 847.13,211.39 848.88,211.97 850.63,212.55 852.38,213.13 854.14,213.71 855.89,214.30 857.64,214.89 859.39,215.47 861.14,216.06 862.90,216.66 864.65,217.25 866.40,217.85 868.15,218.44 869.90,219.04 871.66,219.64 873.41,220.25 875.16,220.85 876.91,221.46 878.66,222.06 880.42,222.68 882.17,223.29 883.92,223.90 885.67,224.52 887.42,225.13 889.18,225.75 890.93,226.37 892.68,227.00 894.43,227.62 896.18,228.25 897.94,228.88 899.69,229.51 901.44,230.14 903.19,230.77 904.94,231.41 906.70,232.05 908.45,232.69 910.20,233.33 911.95,233.97 913.70,234.62 915.46,235.26 917.21,235.91 918.96,236.57 920.71,237.22 922.46,237.87 924.22,238.53 925.97,239.19 927.72,239.85 929.47,240.51 931.22,241.18 932.98,241.84 934.73,242.51 936.48,243.18 938.23,243.86 939.98,244.53 941.74,245.21 943.49,245.89 945.24,246.57 946.99,247.25 948.74,247.93 950.50,248.62 952.25,249.31 954.00,250.00" fill="none" stroke="rgb(178,24,43)" stroke-width="2.0" stroke-linejoin="round" stroke-linecap="round" />
<polyline points="78.00,93.82 79.75,93.82 81.50,93.82 83.26,93.83 85.01,93.84 86.76,93.85 88.51,93.86 90.26,93.87 92.02,93.89 93.77,93.91 95.52,93.93 97.27,93.96 99.02,93.98 100.78,94.01 102.53,94.04 104.28,94.07 106.03,94.11 107.78,94.15 109.54,94.19 111.29,94.23 113.04,94.27 114.79,94.32 116.54,94.37 118.30,94.42 120.05,94.47 121.80,94.53 123.55,94.59 125.30,94.65 127.06,94.71 128.81,94.78 130.56,94.84 132.31,94.91 134.06,94.98 135.82,95.06 137.57,95.13 139.32,95.21 141.07,95.29 142.82,95.38 144.58,95.46 146.33,95.55 148.08,95.64 149.83,95.73 151.58,95.83 153.34,95.92 155.09,96.02 156.84,96.12 158.59,96.23 160.34,96.33 162.10,96.44 163.85,96.55 165.60,96.67 167.35,96.78 169.10,96.90 170.86,97.02 172.61,97.14 174.36,97.26 176.11,97.39 177.86,97.52 179.62,97.65 181.37,97.78 183.12,97.92 184.87,98.06 186.62,98.20 188.38,98.34 190.13,98.48 191.88,98.63 193.63,98.78 195.38,98.93 197.14,99.09 198.89,99.24 200.64,99.40 202.39,99.56 204.14,99.73 205.90,99.89 207.65,100.06 209.40,100.23 211.15,100.40 212.90,100.58 214.66,100.75 216.41,100.93 218.16,101.12 219.91,101.30 221.66,101.49 223.42,101.67 225.17,101.87 226.92,102.06 228.67,102.25 230.42,102.45 232.18,102.65 233.93,102.85 235.68,103.06 237.43,103.27 239.18,103.48 240.94,103.69 242.69,103.90 244.44,104.12 246.19,104.34 247.94,104.56 249.70,104.78 251.45,105.01 253.20,105.23 254.95,105.46 256.70,105.70 258.46,105.93 260.21,106.17 261.96,106.41 263.71,106.65 265.46,106.89 267.22,107.14 268.97,107.39 270.72,107.64 272.47,107.89 274.22,108.15 275.98,108.41 277.73,108.67 279.48,108.93 281.23,109.20 282.98,109.46 284.74,109.73 286.49,110.01 288.24,110.28 289.99,110.56 291.74,110.84 293.50,111.12 295.25,111.40 297.00,111.69 298.75,111.98 300.50,112.27 302.26,112.56 304.01,112.86 305.76,113.16 307.51,113.46 309.26,113.76 311.02,114.06 312.77,114.37 314.52,114.68 316.27,114.99 318.02,115.31 319.78,115.62 321.53,115.94 323.28,116.27 325.03,116.59 326.78,116.92 328.54,117.24 330.29,117.58 332.04,117.91 333.79,118.24 335.54,118.58 337.30,118.92 339.05,119.27 340.80,119.61 342.55,119.96 344.30,120.31 346.06,120.66 347.81,121.02 349.56,121.37 351.31,121.73 353.06,122.10 354.82,122.46 356.57,122.83 358.32,123.20 360.07,123.57 361.82,123.94 363.58,124.32 365.33,124.70 367.08,125.08 368.83,125.46 370.58,125.85 372.34,126.24 374.09,126.63 375.84,127.02 377.59,127.42 379.34,127.81 381.10,128.21 382.85,128.62 384.60,129.02 386.35,129.43 388.10,129.84 389.86,130.25 391.61,130.67 393.36,131.08 395.11,131.50 396.86,131.93 398.62,132.35 400.37,132.78 402.12,133.21 403.87,133.64 405.62,134.07 407.38,134.51 409.13,134.95 410.88,135.39 412.63,135.84 414.38,136.28 416.14,136.73 417.89,137.18 419.64,137.64 421.39,138.09 423.14,138.55 424.90,139.02 426.65,139.48 428.40,139.95 430.15,140.41 431.90,140.89 433.66,141.36 435.41,141.84 437.16,142.31 438.91,142.80 440.66,143.28 442.42,143.77 444.17,144.25 445.92,144.74 447.67,145.24 449.42,145.73 451.18,146.23 452.93,146.73 454.68,147.24 456.43,147.74 458.18,148.25 459.94,148.76 461.69,149.28 463.44,149.79 465.19,150.31 466.94,150.83 468.70,151.36 470.45,151.88 472.20,152.41 473.95,152.94 475.70,153.48 477.46,154.01 479.21,154.55 480.96,155.09 482.71,155.64 484.46,156.18 486.22,156.73 487.97,157.28 489.72,157.84 491.47,158.39 493.22,158.95 494.98,159.51 496.73,160.08 498.48,160.65 500.23,161.21 501.98,161.79 503.74,162.36 505.49,162.94 507.24,163.52 508.99,164.10 510.74,164.68 512.50,165.27 514.25,165.86 516.00,166.45 517.75,167.05 519.50,167.65 521.26,168.25 523.01,168.85 524.76,169.46 526.51,170.06 528.26,170.67 530.02,171.29 531.77,171.90 533.52,172.52 535.27,173.14 537.02,173.77 538.78,174.39 540.53,175.02 542.28,175.65 544.03,176.29 545.78,176.92 547.54,177.56 549.29,178.21 551.04,178.85 552.79,179.50 554.54,180.15 556.30,180.80 558.05,181.46 559.80,182.11 561.55,182.77 563.30,183.44 565.06,184.10 566.81,184.77 568.56,185.44 570.31,186.12 572.06,186.79 573.82,187.47 575.57,188.16 577.32,188.84 579.07,189.53 580.82,190.22 582.58,190.91 584.33,191.61 586.08,192.31 587.83,193.01 589.58,193.71 591.34,194.42 593.09,195.13 594.84,195.84 596.59,196.55 598.34,197.27 600.10,197.99 601.85,198.71 603.60,199.44 605.35,200.17 607.10,200.90 608.86,201.63 610.61,202.37 612.36,203.11 614.11,203.85 615.86,204.59 617.62,205.34 619.37,206.09 621.12,206.84 622.87,207.60 624.62,208.36 626.38,209.12 628.13,209.88 629.88,210.65 631.63,211.42 633.38,212.19 635.14,212.97 636.89,213.75 638.64,214.53 640.39,215.31 642.14,216.10 643.90,216.89 645.65,217.68 647.40,218.48 649.15,219.27 650.90,220.08 652.66,220.88 654.41,221.69 656.16,222.50 657.91,223.31 659.66,224.12 661.42,224.94 663.17,225.76 664.92,226.59 666.67,227.41 668.42,228.24 670.18,229.08 671.93,229.91 673.68,230.75 675.43,231.59 677.18,232.43 678.94,233.28 680.69,234.13 682.44,234.98 684.19,235.84 685.94,236.70 687.70,237.56 689.45,238.43 691.20,239.29 692.95,240.16 694.70,241.04 696.46,241.91 698.21,242.79 699.96,243.68 701.71,244.56 703.46,245.45 705.22,246.34 706.97,247.23 708.72,248.13 710.47,249.03 712.22,249.94 713.98,250.84 715.73,251.75 717.48,252.66 719.23,253.58 720.98,254.50 722.74,255.42 724.49,256.34 726.24,257.27 727.99,258.20 729.74,259.14 731.50,260.07 733.25,261.01 735.00,261.96 736.75,262.90 738.50,263.85 740.26,264.80 742.01,265.76 743.76,266.72 745.51,267.68 747.26,268.64 749.02,269.61 750.77,270.58 752.52,271.55 754.27,272.53 756.02,273.51 757.78,274.50 759.53,275.48 761.28,276.47 763.03,277.46 764.78,278.46 766.54,279.46 768.29,280.46 770.04,281.47 771.79,282.48 773.54,283.49 775.30,284.50 777.05,285.52 778.80,286.54 780.55,287.57 782.30,288.60 784.06,289.63 785.81,290.66 787.56,291.70 789.31,292.74 791.06,293.79 792.82,294.83 794.57,295.88 796.32,296.94 798.07,298.00 799.82,299.06 801.58,300.12 803.33,301.19 805.08,302.26 806.83,303.33 808.58,304.41 810.34,305.49 812.09,306.57 813.84,307.66 815.59,308.75 817.34,309.85 819.10,310.94 820.85,312.04 822.60,313.15 824.35,314.26 826.10,315.37 827.86,316.48 829.61,317.60 831.36,318.72 833.11,319.84 834.86,320.97 836.62,322.10 838.37,323.24 840.12,324.38 841.87,325.52 843.62,326.66 845.38,327.81 847.13,328.97 848.88,330.12 850.63,331.28 852.38,332.44 854.14,333.61 855.89,334.78 857.64,335.95 859.39,337.13 861.14,338.31 862.90,339.49 864.65,340.68 866.40,341.87 868.15,343.07 869.90,344.27 871.66,345.47 873.41,346.67 875.16,347.88 876.91,349.10 878.66,350.31 880.42,351.53 882.17,352.76 883.92,353.98 885.67,355.21 887.42,356.45 889.18,357.69 890.93,358.93 892.68,360.17 894.43,361.42 896.18,362.68 897.94,363.93 899.69,365.20 901.44,366.46 903.19,367.73 904.94,369.00 906.70,370.28 908.45,371.56 910.20,372.84 911.95,374.13 913.70,375.42 915.46,376.71 917.21,378.01 918.96,379.31 920.71,380.62 922.46,381.93 924.22,383.24 925.97,384.56 927.72,385.88 929.47,387.21 931.22,388.54 932.98,389.87 934.73,391.21 936.48,392.55 938.23,393.90 939.98,395.24 941.74,396.60 943.49,397.96 945.24,399.32 946.99,400.68 948.74,402.05 950.50,403.42 952.25,404.80 954.00,406.18" fill="none" stroke="rgb(35,139,69)" stroke-width="2.0" stroke-linejoin="round" stroke-linecap="round" />
<line x1="784" y1="76" x2="818" y2="76" stroke="rgb(33,101,172)" stroke-width="3" />
<text x="828" y="76" font-family="Arial, sans-serif" font-size="14" dominant-baseline="middle">FIR</text>
<line x1="784" y1="100" x2="818" y2="100" stroke="rgb(178,24,43)" stroke-width="3" />
<text x="828" y="100" font-family="Arial, sans-serif" font-size="14" dominant-baseline="middle">Boxcar</text>
<line x1="784" y1="124" x2="818" y2="124" stroke="rgb(35,139,69)" stroke-width="3" />
<text x="828" y="124" font-family="Arial, sans-serif" font-size="14" dominant-baseline="middle">CIC</text>
<text x="516" y="548" font-family="Arial, sans-serif" font-size="15" text-anchor="middle">Frequency, normalized to output Nyquist</text>
<text transform="translate(22 273) rotate(-90)" font-family="Arial, sans-serif" font-size="15" text-anchor="middle">Amplitude response (dB)</text>
</svg>
