<?xml version="1.0" encoding="UTF-8"?>
<svg xmlns="http://www.w3.org/2000/svg" width="980" height="560" viewBox="0 0 980 560">
<rect width="100%" height="100%" fill="#ffffff" />
<text x="78" y="30" font-family="Arial, sans-serif" font-size="22" font-weight="700">Chirp Downconversion Filter Responses, decimation=625</text>
<rect x="78" y="54" width="876" height="438" fill="#fafafa" stroke="#222" stroke-width="1" />
<line x1="78.00" y1="54" x2="78.00" y2="492" stroke="#ddd" />
<text x="78.00" y="518" font-family="Arial, sans-serif" font-size="12" text-anchor="middle">0</text>
<line x1="187.50" y1="54" x2="187.50" y2="492" stroke="#ddd" />
<text x="187.50" y="518" font-family="Arial, sans-serif" font-size="12" text-anchor="middle">0.5</text>
<line x1="297.00" y1="54" x2="297.00" y2="492" stroke="#ddd" />
<text x="297.00" y="518" font-family="Arial, sans-serif" font-size="12" text-anchor="middle">1</text>
<line x1="406.50" y1="54" x2="406.50" y2="492" stroke="#ddd" />
<text x="406.50" y="518" font-family="Arial, sans-serif" font-size="12" text-anchor="middle">1.5</text>
<line x1="516.00" y1="54" x2="516.00" y2="492" stroke="#ddd" />
<text x="516.00" y="518" font-family="Arial, sans-serif" font-size="12" text-anchor="middle">2</text>
<line x1="625.50" y1="54" x2="625.50" y2="492" stroke="#ddd" />
<text x="625.50" y="518" font-family="Arial, sans-serif" font-size="12" text-anchor="middle">2.5</text>
<line x1="735.00" y1="54" x2="735.00" y2="492" stroke="#ddd" />
<text x="735.00" y="518" font-family="Arial, sans-serif" font-size="12" text-anchor="middle">3</text>
<line x1="844.50" y1="54" x2="844.50" y2="492" stroke="#ddd" />
<text x="844.50" y="518" font-family="Arial, sans-serif" font-size="12" text-anchor="middle">3.5</text>
<line x1="954.00" y1="54" x2="954.00" y2="492" stroke="#ddd" />
<text x="954.00" y="518" font-family="Arial, sans-serif" font-size="12" text-anchor="middle">4</text>
<line x1="78" y1="492.00" x2="954" y2="492.00" stroke="#ddd" />
<text x="68" y="492.00" font-family="Arial, sans-serif" font-size="12" text-anchor="end" dominant-baseline="middle">-100</text>
<line x1="78" y1="406.12" x2="954" y2="406.12" stroke="#ddd" />
<text x="68" y="406.12" font-family="Arial, sans-serif" font-size="12" text-anchor="end" dominant-baseline="middle">-80</text>
<line x1="78" y1="320.24" x2="954" y2="320.24" stroke="#ddd" />
<text x="68" y="320.24" font-family="Arial, sans-serif" font-size="12" text-anchor="end" dominant-baseline="middle">-60</text>
<line x1="78" y1="234.35" x2="954" y2="234.35" stroke="#ddd" />
<text x="68" y="234.35" font-family="Arial, sans-serif" font-size="12" text-anchor="end" dominant-baseline="middle">-40</text>
<line x1="78" y1="148.47" x2="954" y2="148.47" stroke="#ddd" />
<text x="68" y="148.47" font-family="Arial, sans-serif" font-size="12" text-anchor="end" dominant-baseline="middle">-20</text>
<line x1="78" y1="62.59" x2="954" y2="62.59" stroke="#ddd" />
<text x="68" y="62.59" font-family="Arial, sans-serif" font-size="12" text-anchor="end" dominant-baseline="middle">0</text>
<polyline points="78.00,62.59 78.97,62.59 79.95,62.59 80.92,62.59 81.89,62.59 82.87,62.59 83.84,62.59 84.81,62.59 85.79,62.59 86.76,62.59 87.73,62.59 88.71,62.60 89.68,62.60 90.65,62.60 91.63,62.60 92.60,62.60 93.57,62.60 94.55,62.61 95.52,62.61 96.49,62.61 97.47,62.61 98.44,62.62 99.41,62.62 100.39,62.62 101.36,62.62 102.33,62.63 103.31,62.63 104.28,62.63 105.25,62.64 106.23,62.64 107.20,62.64 108.17,62.65 109.15,62.65 110.12,62.66 111.09,62.66 112.07,62.66 113.04,62.67 114.01,62.67 114.99,62.68 115.96,62.68 116.93,62.69 117.91,62.69 118.88,62.70 119.85,62.70 120.83,62.71 121.80,62.71 122.77,62.72 123.75,62.73 124.72,62.73 125.69,62.74 126.67,62.74 127.64,62.75 128.61,62.76 129.59,62.76 130.56,62.77 131.53,62.78 132.51,62.78 133.48,62.79 134.45,62.80 135.43,62.81 136.40,62.81 137.37,62.82 138.35,62.83 139.32,62.84 140.29,62.85 141.27,62.85 142.24,62.86 143.21,62.87 144.19,62.88 145.16,62.89 146.13,62.90 147.11,62.91 148.08,62.92 149.05,62.93 150.03,62.94 151.00,62.95 151.97,62.96 152.95,62.97 153.92,62.98 154.89,62.99 155.87,63.00 156.84,63.01 157.81,63.02 158.79,63.03 159.76,63.04 160.73,63.05 161.71,63.06 162.68,63.08 163.65,63.09 164.63,63.10 165.60,63.11 166.57,63.12 167.55,63.14 168.52,63.15 169.49,63.16 170.47,63.18 171.44,63.19 172.41,63.20 173.39,63.22 174.36,63.23 175.33,63.24 176.31,63.26 177.28,63.27 178.25,63.29 179.23,63.30 180.20,63.32 181.17,63.33 182.15,63.35 183.12,63.36 184.09,63.38 185.07,63.39 186.04,63.41 187.01,63.42 187.99,63.44 188.96,63.46 189.93,63.47 190.91,63.49 191.88,63.51 192.85,63.53 193.83,63.54 194.80,63.56 195.77,63.58 196.75,63.60 197.72,63.61 198.69,63.63 199.67,63.65 200.64,63.67 201.61,63.69 202.59,63.71 203.56,63.73 204.53,63.75 205.51,63.77 206.48,63.79 207.45,63.81 208.43,63.83 209.40,63.85 210.37,63.87 211.35,63.89 212.32,63.91 213.29,63.93 214.27,63.96 215.24,63.98 216.21,64.00 217.19,64.02 218.16,64.05 219.13,64.07 220.11,64.09 221.08,64.11 222.05,64.14 223.03,64.16 224.00,64.19 224.97,64.21 225.95,64.24 226.92,64.26 227.89,64.29 228.87,64.31 229.84,64.34 230.81,64.36 231.79,64.39 232.76,64.41 233.73,64.44 234.71,64.47 235.68,64.49 236.65,64.52 237.63,64.55 238.60,64.58 239.57,64.60 240.55,64.63 241.52,64.66 242.49,64.69 243.47,64.72 244.44,64.75 245.41,64.78 246.39,64.81 247.36,64.84 248.33,64.87 249.31,64.90 250.28,64.93 251.25,64.96 252.23,64.99 253.20,65.02 254.17,65.06 255.15,65.09 256.12,65.12 257.09,65.15 258.07,65.19 259.04,65.22 260.01,65.25 260.99,65.29 261.96,65.32 262.93,65.36 263.91,65.39 264.88,65.43 265.85,65.46 266.83,65.50 267.80,65.53 268.77,65.57 269.75,65.61 270.72,65.64 271.69,65.68 272.67,65.72 273.64,65.76 274.61,65.79 275.59,65.83 276.56,65.87 277.53,65.91 278.51,65.95 279.48,65.99 280.45,66.03 281.43,66.07 282.40,66.11 283.37,66.15 284.35,66.19 285.32,66.23 286.29,66.28 287.27,66.32 288.24,66.36 289.21,66.40 290.19,66.45 291.16,66.49 292.13,66.54 293.11,66.58 294.08,66.62 295.05,66.67 296.03,66.71 297.00,66.76 297.97,66.81 298.95,66.85 299.92,66.90 300.89,66.95 301.87,66.99 302.84,67.04 303.81,67.09 304.79,67.14 305.76,67.19 306.73,67.24 307.71,67.28 308.68,67.33 309.65,67.38 310.63,67.44 311.60,67.49 312.57,67.54 313.55,67.59 314.52,67.64 315.49,67.69 316.47,67.75 317.44,67.80 318.41,67.85 319.39,67.91 320.36,67.96 321.33,68.02 322.31,68.07 323.28,68.13 324.25,68.18 325.23,68.24 326.20,68.30 327.17,68.35 328.15,68.41 329.12,68.47 330.09,68.53 331.07,68.58 332.04,68.64 333.01,68.70 333.99,68.76 334.96,68.82 335.93,68.88 336.91,68.94 337.88,69.01 338.85,69.07 339.83,69.13 340.80,69.19 341.77,69.26 342.75,69.32 343.72,69.38 344.69,69.45 345.67,69.51 346.64,69.58 347.61,69.64 348.59,69.71 349.56,69.78 350.53,69.84 351.51,69.91 352.48,69.98 353.45,70.05 354.43,70.11 355.40,70.18 356.37,70.25 357.35,70.32 358.32,70.39 359.29,70.46 360.27,70.53 361.24,70.61 362.21,70.68 363.19,70.75 364.16,70.82 365.13,70.90 366.11,70.97 367.08,71.05 368.05,71.12 369.03,71.20 370.00,71.27 370.97,71.35 371.95,71.42 372.92,71.50 373.89,71.58 374.87,71.66 375.84,71.74 376.81,71.82 377.79,71.90 378.76,71.98 379.73,72.06 380.71,72.14 381.68,72.22 382.65,72.30 383.63,72.38 384.60,72.47 385.57,72.55 386.55,72.63 387.52,72.72 388.49,72.80 389.47,72.89 390.44,72.97 391.41,73.06 392.39,73.15 393.36,73.23 394.33,73.32 395.31,73.41 396.28,73.50 397.25,73.59 398.23,73.68 399.20,73.77 400.17,73.86 401.15,73.95 402.12,74.04 403.09,74.14 404.07,74.23 405.04,74.32 406.01,74.42 406.99,74.51 407.96,74.61 408.93,74.70 409.91,74.80 410.88,74.89 411.85,74.99 412.83,75.09 413.80,75.19 414.77,75.29 415.75,75.39 416.72,75.49 417.69,75.59 418.67,75.69 419.64,75.79 420.61,75.89 421.59,75.99 422.56,76.10 423.53,76.20 424.51,76.30 425.48,76.41 426.45,76.51 427.43,76.62 428.40,76.73 429.37,76.83 430.35,76.94 431.32,77.05 432.29,77.16 433.27,77.27 434.24,77.38 435.21,77.49 436.19,77.60 437.16,77.71 438.13,77.82 439.11,77.94 440.08,78.05 441.05,78.16 442.03,78.28 443.00,78.39 443.97,78.51 444.95,78.63 445.92,78.74 446.89,78.86 447.87,78.98 448.84,79.10 449.81,79.22 450.79,79.34 451.76,79.46 452.73,79.58 453.71,79.70 454.68,79.82 455.65,79.95 456.63,80.07 457.60,80.19 458.57,80.32 459.55,80.44 460.52,80.57 461.49,80.70 462.47,80.82 463.44,80.95 464.41,81.08 465.39,81.21 466.36,81.34 467.33,81.47 468.31,81.60 469.28,81.73 470.25,81.87 471.23,82.00 472.20,82.13 473.17,82.27 474.15,82.40 475.12,82.54 476.09,82.67 477.07,82.81 478.04,82.95 479.01,83.09 479.99,83.23 480.96,83.37 481.93,83.51 482.91,83.65 483.88,83.79 484.85,83.93 485.83,84.07 486.80,84.22 487.77,84.36 488.75,84.51 489.72,84.65 490.69,84.80 491.67,84.95 492.64,85.09 493.61,85.24 494.59,85.39 495.56,85.54 496.53,85.69 497.51,85.84 498.48,86.00 499.45,86.15 500.43,86.30 501.40,86.46 502.37,86.61 503.35,86.77 504.32,86.92 505.29,87.08 506.27,87.24 507.24,87.40 508.21,87.55 509.19,87.71 510.16,87.87 511.13,88.04 512.11,88.20 513.08,88.36 514.05,88.52 515.03,88.69 516.00,88.85 516.97,89.02 517.95,89.19 518.92,89.35 519.89,89.52 520.87,89.69 521.84,89.86 522.81,90.03 523.79,90.20 524.76,90.37 525.73,90.55 526.71,90.72 527.68,90.89 528.65,91.07 529.63,91.24 530.60,91.42 531.57,91.60 532.55,91.77 533.52,91.95 534.49,92.13 535.47,92.31 536.44,92.49 537.41,92.68 538.39,92.86 539.36,93.04 540.33,93.23 541.31,93.41 542.28,93.60 543.25,93.79 544.23,93.97 545.20,94.16 546.17,94.35 547.15,94.54 548.12,94.73 549.09,94.92 550.07,95.12 551.04,95.31 552.01,95.50 552.99,95.70 553.96,95.89 554.93,96.09 555.91,96.29 556.88,96.49 557.85,96.69 558.83,96.89 559.80,97.09 560.77,97.29 561.75,97.49 562.72,97.70 563.69,97.90 564.67,98.11 565.64,98.31 566.61,98.52 567.59,98.73 568.56,98.94 569.53,99.15 570.51,99.36 571.48,99.57 572.45,99.78 573.43,100.00 574.40,100.21 575.37,100.43 576.35,100.64 577.32,100.86 578.29,101.08 579.27,101.30 580.24,101.52 581.21,101.74 582.19,101.96 583.16,102.18 584.13,102.41 585.11,102.63 586.08,102.86 587.05,103.08 588.03,103.31 589.00,103.54 589.97,103.77 590.95,104.00 591.92,104.23 592.89,104.46 593.87,104.70 594.84,104.93 595.81,105.17 596.79,105.40 597.76,105.64 598.73,105.88 599.71,106.12 600.68,106.36 601.65,106.60 602.63,106.84 603.60,107.08 604.57,107.33 605.55,107.57 606.52,107.82 607.49,108.07 608.47,108.32 609.44,108.57 610.41,108.82 611.39,109.07 612.36,109.32 613.33,109.58 614.31,109.83 615.28,110.09 616.25,110.34 617.23,110.60 618.20,110.86 619.17,111.12 620.15,111.38 621.12,111.65 622.09,111.91 623.07,112.18 624.04,112.44 625.01,112.71 625.99,112.98 626.96,113.25 627.93,113.52 628.91,113.79 629.88,114.06 630.85,114.34 631.83,114.61 632.80,114.89 633.77,115.17 634.75,115.44 635.72,115.72 636.69,116.01 637.67,116.29 638.64,116.57 639.61,116.86 640.59,117.14 641.56,117.43 642.53,117.72 643.51,118.01 644.48,118.30 645.45,118.59 646.43,118.88 647.40,119.18 648.37,119.47 649.35,119.77 650.32,120.07 651.29,120.37 652.27,120.67 653.24,120.97 654.21,121.28 655.19,121.58 656.16,121.89 657.13,122.20 658.11,122.50 659.08,122.82 660.05,123.13 661.03,123.44 662.00,123.75 662.97,124.07 663.95,124.39 664.92,124.71 665.89,125.03 666.87,125.35 667.84,125.67 668.81,125.99 669.79,126.32 670.76,126.65 671.73,126.98 672.71,127.31 673.68,127.64 674.65,127.97 675.63,128.30 676.60,128.64 677.57,128.98 678.55,129.32 679.52,129.66 680.49,130.00 681.47,130.34 682.44,130.69 683.41,131.04 684.39,131.38 685.36,131.73 686.33,132.08 687.31,132.44 688.28,132.79 689.25,133.15 690.23,133.51 691.20,133.87 692.17,134.23 693.15,134.59 694.12,134.95 695.09,135.32 696.07,135.69 697.04,136.06 698.01,136.43 698.99,136.80 699.96,137.18 700.93,137.56 701.91,137.93 702.88,138.31 703.85,138.70 704.83,139.08 705.80,139.47 706.77,139.85 707.75,140.24 708.72,140.63 709.69,141.03 710.67,141.42 711.64,141.82 712.61,142.22 713.59,142.62 714.56,143.02 715.53,143.43 716.51,143.83 717.48,144.24 718.45,144.65 719.43,145.07 720.40,145.48 721.37,145.90 722.35,146.32 723.32,146.74 724.29,147.16 725.27,147.59 726.24,148.02 727.21,148.45 728.19,148.88 729.16,149.31 730.13,149.75 731.11,150.19 732.08,150.63 733.05,151.08 734.03,151.52 735.00,151.97 735.97,152.42 736.95,152.87 737.92,153.33 738.89,153.79 739.87,154.25 740.84,154.71 741.81,155.18 742.79,155.65 743.76,156.12 744.73,156.59 745.71,157.07 746.68,157.55 747.65,158.03 748.63,158.51 749.60,159.00 750.57,159.49 751.55,159.98 752.52,160.48 753.49,160.98 754.47,161.48 755.44,161.98 756.41,162.49 757.39,163.00 758.36,163.51 759.33,164.03 760.31,164.55 761.28,165.07 762.25,165.60 763.23,166.13 764.20,166.66 765.17,167.20 766.15,167.74 767.12,168.28 768.09,168.83 769.07,169.38 770.04,169.93 771.01,170.49 771.99,171.05 772.96,171.61 773.93,172.18 774.91,172.75 775.88,173.33 776.85,173.91 777.83,174.50 778.80,175.08 779.77,175.68 780.75,176.27 781.72,176.87 782.69,177.48 783.67,178.09 784.64,178.70 785.61,179.32 786.59,179.94 787.56,180.57 788.53,181.21 789.51,181.84 790.48,182.49 791.45,183.13 792.43,183.79 793.40,184.44 794.37,185.11 795.35,185.78 796.32,186.45 797.29,187.13 798.27,187.82 799.24,188.51 800.21,189.21 801.19,189.91 802.16,190.62 803.13,191.34 804.11,192.06 805.08,192.79 806.05,193.52 807.03,194.27 808.00,195.02 808.97,195.78 809.95,196.54 810.92,197.31 811.89,198.09 812.87,198.88 813.84,199.68 814.81,200.48 815.79,201.29 816.76,202.12 817.73,202.95 818.71,203.79 819.68,204.64 820.65,205.50 821.63,206.37 822.60,207.25 823.57,208.14 824.55,209.04 825.52,209.95 826.49,210.88 827.47,211.81 828.44,212.76 829.41,213.73 830.39,214.70 831.36,215.69 832.33,216.69 833.31,217.71 834.28,218.75 835.25,219.79 836.23,220.86 837.20,221.94 838.17,223.04 839.15,224.16 840.12,225.30 841.09,226.46 842.07,227.64 843.04,228.84 844.01,230.06 844.99,231.31 845.96,232.58 846.93,233.88 847.91,235.21 848.88,236.57 849.85,237.96 850.83,239.38 851.80,240.84 852.77,242.33 853.75,243.86 854.72,245.43 855.69,247.05 856.67,248.72 857.64,250.43 858.61,252.20 859.59,254.04 860.56,255.93 861.53,257.89 862.51,259.93 863.48,262.06 864.45,264.27 865.43,266.59 866.40,269.01 867.37,271.57 868.35,274.26 869.32,277.11 870.29,280.14 871.27,283.39 872.24,286.87 873.21,290.65 874.19,294.78 875.16,299.34 876.13,304.43 877.11,310.21 878.08,316.92 879.05,324.94 880.03,334.95 881.00,348.36 881.97,368.98 882.95,416.90 883.92,400.06 884.89,364.41 885.87,346.80 886.84,335.09 887.81,326.35 888.79,319.41 889.76,313.67 890.73,308.79 891.71,304.57 892.68,300.85 893.65,297.54 894.63,294.57 895.60,291.87 896.57,289.41 897.55,287.16 898.52,285.08 899.49,283.16 900.47,281.37 901.44,279.70 902.41,278.15 903.39,276.69 904.36,275.33 905.33,274.04 906.31,272.83 907.28,271.69 908.25,270.61 909.23,269.59 910.20,268.62 911.17,267.71 912.15,266.84 913.12,266.02 914.09,265.24 915.07,264.50 916.04,263.79 917.01,263.12 917.99,262.48 918.96,261.88 919.93,261.30 920.91,260.76 921.88,260.24 922.85,259.74 923.83,259.27 924.80,258.82 925.77,258.40 926.75,258.00 927.72,257.62 928.69,257.25 929.67,256.91 930.64,256.59 931.61,256.28 932.59,255.99 933.56,255.72 934.53,255.47 935.51,255.23 936.48,255.00 937.45,254.79 938.43,254.60 939.40,254.41 940.37,254.25 941.35,254.09 942.32,253.95 943.29,253.82 944.27,253.70 945.24,253.60 946.21,253.50 947.19,253.42 948.16,253.35 949.13,253.29 950.11,253.24 951.08,253.20 952.05,253.18 953.03,253.16 954.00,253.15" fill="none" stroke="rgb(33,101,172)" stroke-width="2.0" stroke-linejoin="round" stroke-linecap="round" />
<polyline points="78.00,62.59 78.97,62.59 79.95,62.59 80.92,62.59 81.89,62.59 82.87,62.60 83.84,62.60 84.81,62.60 85.79,62.61 86.76,62.61 87.73,62.62 88.71,62.62 89.68,62.63 90.65,62.64 91.63,62.65 92.60,62.66 93.57,62.67 94.55,62.68 95.52,62.69 96.49,62.70 97.47,62.71 98.44,62.72 99.41,62.73 100.39,62.75 101.36,62.76 102.33,62.78 103.31,62.79 104.28,62.81 105.25,62.83 106.23,62.84 107.20,62.86 108.17,62.88 109.15,62.90 110.12,62.92 111.09,62.94 112.07,62.96 113.04,62.98 114.01,63.00 114.99,63.03 115.96,63.05 116.93,63.07 117.91,63.10 118.88,63.12 119.85,63.15 120.83,63.18 121.80,63.20 122.77,63.23 123.75,63.26 124.72,63.29 125.69,63.32 126.67,63.35 127.64,63.38 128.61,63.41 129.59,63.44 130.56,63.48 131.53,63.51 132.51,63.54 133.48,63.58 134.45,63.61 135.43,63.65 136.40,63.69 137.37,63.72 138.35,63.76 139.32,63.80 140.29,63.84 141.27,63.88 142.24,63.92 143.21,63.96 144.19,64.00 145.16,64.04 146.13,64.08 147.11,64.13 148.08,64.17 149.05,64.22 150.03,64.26 151.00,64.31 151.97,64.35 152.95,64.40 153.92,64.45 154.89,64.50 155.87,64.55 156.84,64.60 157.81,64.65 158.79,64.70 159.76,64.75 160.73,64.80 161.71,64.86 162.68,64.91 163.65,64.96 164.63,65.02 165.60,65.08 166.57,65.13 167.55,65.19 168.52,65.25 169.49,65.30 170.47,65.36 171.44,65.42 172.41,65.48 173.39,65.54 174.36,65.61 175.33,65.67 176.31,65.73 177.28,65.80 178.25,65.86 179.23,65.92 180.20,65.99 181.17,66.06 182.15,66.12 183.12,66.19 184.09,66.26 185.07,66.33 186.04,66.40 187.01,66.47 187.99,66.54 188.96,66.61 189.93,66.68 190.91,66.76 191.88,66.83 192.85,66.91 193.83,66.98 194.80,67.06 195.77,67.13 196.75,67.21 197.72,67.29 198.69,67.37 199.67,67.45 200.64,67.53 201.61,67.61 202.59,67.69 203.56,67.77 204.53,67.86 205.51,67.94 206.48,68.03 207.45,68.11 208.43,68.20 209.40,68.28 210.37,68.37 211.35,68.46 212.32,68.55 213.29,68.64 214.27,68.73 215.24,68.82 216.21,68.91 217.19,69.00 218.16,69.10 219.13,69.19 220.11,69.29 221.08,69.38 222.05,69.48 223.03,69.58 224.00,69.67 224.97,69.77 225.95,69.87 226.92,69.97 227.89,70.07 228.87,70.17 229.84,70.28 230.81,70.38 231.79,70.48 232.76,70.59 233.73,70.70 234.71,70.80 235.68,70.91 236.65,71.02 237.63,71.13 238.60,71.24 239.57,71.35 240.55,71.46 241.52,71.57 242.49,71.68 243.47,71.80 244.44,71.91 245.41,72.03 246.39,72.14 247.36,72.26 248.33,72.38 249.31,72.50 250.28,72.62 251.25,72.74 252.23,72.86 253.20,72.98 254.17,73.10 255.15,73.23 256.12,73.35 257.09,73.48 258.07,73.60 259.04,73.73 260.01,73.86 260.99,73.99 261.96,74.12 262.93,74.25 263.91,74.38 264.88,74.51 265.85,74.65 266.83,74.78 267.80,74.92 268.77,75.05 269.75,75.19 270.72,75.33 271.69,75.47 272.67,75.61 273.64,75.75 274.61,75.89 275.59,76.04 276.56,76.18 277.53,76.32 278.51,76.47 279.48,76.62 280.45,76.76 281.43,76.91 282.40,77.06 283.37,77.21 284.35,77.37 285.32,77.52 286.29,77.67 287.27,77.83 288.24,77.98 289.21,78.14 290.19,78.30 291.16,78.46 292.13,78.62 293.11,78.78 294.08,78.94 295.05,79.10 296.03,79.27 297.00,79.43 297.97,79.60 298.95,79.77 299.92,79.93 300.89,80.10 301.87,80.27 302.84,80.45 303.81,80.62 304.79,80.79 305.76,80.97 306.73,81.14 307.71,81.32 308.68,81.50 309.65,81.68 310.63,81.86 311.60,82.04 312.57,82.23 313.55,82.41 314.52,82.60 315.49,82.78 316.47,82.97 317.44,83.16 318.41,83.35 319.39,83.54 320.36,83.74 321.33,83.93 322.31,84.13 323.28,84.32 324.25,84.52 325.23,84.72 326.20,84.92 327.17,85.13 328.15,85.33 329.12,85.53 330.09,85.74 331.07,85.95 332.04,86.16 333.01,86.37 333.99,86.58 334.96,86.79 335.93,87.01 336.91,87.22 337.88,87.44 338.85,87.66 339.83,87.88 340.80,88.10 341.77,88.33 342.75,88.55 343.72,88.78 344.69,89.01 345.67,89.24 346.64,89.47 347.61,89.70 348.59,89.93 349.56,90.17 350.53,90.41 351.51,90.65 352.48,90.89 353.45,91.13 354.43,91.37 355.40,91.62 356.37,91.87 357.35,92.12 358.32,92.37 359.29,92.62 360.27,92.88 361.24,93.13 362.21,93.39 363.19,93.65 364.16,93.91 365.13,94.18 366.11,94.44 367.08,94.71 368.05,94.98 369.03,95.25 370.00,95.53 370.97,95.80 371.95,96.08 372.92,96.36 373.89,96.64 374.87,96.93 375.84,97.21 376.81,97.50 377.79,97.79 378.76,98.08 379.73,98.38 380.71,98.67 381.68,98.97 382.65,99.28 383.63,99.58 384.60,99.89 385.57,100.19 386.55,100.51 387.52,100.82 388.49,101.14 389.47,101.45 390.44,101.78 391.41,102.10 392.39,102.43 393.36,102.76 394.33,103.09 395.31,103.42 396.28,103.76 397.25,104.10 398.23,104.44 399.20,104.79 400.17,105.14 401.15,105.49 402.12,105.84 403.09,106.20 404.07,106.56 405.04,106.93 406.01,107.30 406.99,107.67 407.96,108.04 408.93,108.42 409.91,108.80 410.88,109.18 411.85,109.57 412.83,109.96 413.80,110.36 414.77,110.76 415.75,111.16 416.72,111.57 417.69,111.98 418.67,112.39 419.64,112.81 420.61,113.24 421.59,113.66 422.56,114.10 423.53,114.53 424.51,114.97 425.48,115.42 426.45,115.87 427.43,116.32 428.40,116.78 429.37,117.25 430.35,117.72 431.32,118.19 432.29,118.67 433.27,119.16 434.24,119.65 435.21,120.14 436.19,120.65 437.16,121.15 438.13,121.67 439.11,122.19 440.08,122.72 441.05,123.25 442.03,123.79 443.00,124.34 443.97,124.89 444.95,125.45 445.92,126.02 446.89,126.60 447.87,127.18 448.84,127.77 449.81,128.37 450.79,128.98 451.76,129.60 452.73,130.23 453.71,130.86 454.68,131.51 455.65,132.16 456.63,132.83 457.60,133.50 458.57,134.19 459.55,134.88 460.52,135.59 461.49,136.31 462.47,137.04 463.44,137.79 464.41,138.55 465.39,139.32 466.36,140.11 467.33,140.91 468.31,141.72 469.28,142.56 470.25,143.41 471.23,144.27 472.20,145.16 473.17,146.06 474.15,146.98 475.12,147.93 476.09,148.89 477.07,149.88 478.04,150.89 479.01,151.92 479.99,152.99 480.96,154.08 481.93,155.20 482.91,156.35 483.88,157.53 484.85,158.75 485.83,160.00 486.80,161.29 487.77,162.63 488.75,164.01 489.72,165.44 490.69,166.92 491.67,168.45 492.64,170.05 493.61,171.71 494.59,173.44 495.56,175.25 496.53,177.14 497.51,179.13 498.48,181.22 499.45,183.43 500.43,185.77 501.40,188.25 502.37,190.90 503.35,193.74 504.32,196.81 505.29,200.13 506.27,203.76 507.24,207.77 508.21,212.24 509.19,217.30 510.16,223.13 511.13,230.01 512.11,238.42 513.08,249.23 514.05,264.43 515.03,290.37 516.00,492.00 516.97,290.54 517.95,264.77 518.92,249.73 519.89,239.08 520.87,230.84 521.84,224.13 522.81,218.46 523.79,213.57 524.76,209.26 525.73,205.42 526.71,201.95 527.68,198.79 528.65,195.90 529.63,193.22 530.60,190.74 531.57,188.42 532.55,186.25 533.52,184.21 534.49,182.28 535.47,180.46 536.44,178.73 537.41,177.09 538.39,175.52 539.36,174.03 540.33,172.60 541.31,171.23 542.28,169.92 543.25,168.66 544.23,167.44 545.20,166.27 546.17,165.15 547.15,164.06 548.12,163.01 549.09,161.99 550.07,161.01 551.04,160.06 552.01,159.13 552.99,158.24 553.96,157.37 554.93,156.53 555.91,155.71 556.88,154.91 557.85,154.13 558.83,153.38 559.80,152.64 560.77,151.92 561.75,151.23 562.72,150.54 563.69,149.88 564.67,149.23 565.64,148.60 566.61,147.98 567.59,147.38 568.56,146.78 569.53,146.21 570.51,145.64 571.48,145.09 572.45,144.55 573.43,144.02 574.40,143.51 575.37,143.00 576.35,142.50 577.32,142.02 578.29,141.54 579.27,141.08 580.24,140.62 581.21,140.17 582.19,139.73 583.16,139.30 584.13,138.88 585.11,138.47 586.08,138.06 587.05,137.66 588.03,137.27 589.00,136.89 589.97,136.51 590.95,136.14 591.92,135.78 592.89,135.42 593.87,135.07 594.84,134.73 595.81,134.39 596.79,134.06 597.76,133.74 598.73,133.42 599.71,133.10 600.68,132.80 601.65,132.49 602.63,132.20 603.60,131.90 604.57,131.62 605.55,131.34 606.52,131.06 607.49,130.79 608.47,130.52 609.44,130.26 610.41,130.00 611.39,129.75 612.36,129.50 613.33,129.25 614.31,129.01 615.28,128.78 616.25,128.54 617.23,128.32 618.20,128.09 619.17,127.87 620.15,127.66 621.12,127.44 622.09,127.24 623.07,127.03 624.04,126.83 625.01,126.63 625.99,126.44 626.96,126.25 627.93,126.06 628.91,125.88 629.88,125.70 630.85,125.52 631.83,125.34 632.80,125.17 633.77,125.01 634.75,124.84 635.72,124.68 636.69,124.52 637.67,124.37 638.64,124.22 639.61,124.07 640.59,123.92 641.56,123.78 642.53,123.64 643.51,123.50 644.48,123.36 645.45,123.23 646.43,123.10 647.40,122.97 648.37,122.85 649.35,122.73 650.32,122.61 651.29,122.49 652.27,122.38 653.24,122.27 654.21,122.16 655.19,122.05 656.16,121.95 657.13,121.85 658.11,121.75 659.08,121.65 660.05,121.56 661.03,121.47 662.00,121.38 662.97,121.29 663.95,121.21 664.92,121.13 665.89,121.05 666.87,120.97 667.84,120.89 668.81,120.82 669.79,120.75 670.76,120.68 671.73,120.61 672.71,120.55 673.68,120.48 674.65,120.42 675.63,120.36 676.60,120.31 677.57,120.25 678.55,120.20 679.52,120.15 680.49,120.10 681.47,120.06 682.44,120.01 683.41,119.97 684.39,119.93 685.36,119.89 686.33,119.86 687.31,119.82 688.28,119.79 689.25,119.76 690.23,119.73 691.20,119.71 692.17,119.68 693.15,119.66 694.12,119.64 695.09,119.62 696.07,119.60 697.04,119.59 698.01,119.57 698.99,119.56 699.96,119.55 700.93,119.55 701.91,119.54 702.88,119.54 703.85,119.53 704.83,119.53 705.80,119.54 706.77,119.54 707.75,119.54 708.72,119.55 709.69,119.56 710.67,119.57 711.64,119.58 712.61,119.60 713.59,119.61 714.56,119.63 715.53,119.65 716.51,119.67 717.48,119.69 718.45,119.72 719.43,119.75 720.40,119.77 721.37,119.80 722.35,119.84 723.32,119.87 724.29,119.90 725.27,119.94 726.24,119.98 727.21,120.02 728.19,120.06 729.16,120.11 730.13,120.15 731.11,120.20 732.08,120.25 733.05,120.30 734.03,120.35 735.00,120.41 735.97,120.46 736.95,120.52 737.92,120.58 738.89,120.64 739.87,120.71 740.84,120.77 741.81,120.84 742.79,120.91 743.76,120.98 744.73,121.05 745.71,121.12 746.68,121.20 747.65,121.27 748.63,121.35 749.60,121.43 750.57,121.51 751.55,121.60 752.52,121.68 753.49,121.77 754.47,121.86 755.44,121.95 756.41,122.05 757.39,122.14 758.36,122.24 759.33,122.33 760.31,122.43 761.28,122.54 762.25,122.64 763.23,122.75 764.20,122.85 765.17,122.96 766.15,123.07 767.12,123.19 768.09,123.30 769.07,123.42 770.04,123.54 771.01,123.66 771.99,123.78 772.96,123.90 773.93,124.03 774.91,124.16 775.88,124.29 776.85,124.42 777.83,124.55 778.80,124.69 779.77,124.82 780.75,124.96 781.72,125.10 782.69,125.25 783.67,125.39 784.64,125.54 785.61,125.69 786.59,125.84 787.56,125.99 788.53,126.15 789.51,126.31 790.48,126.47 791.45,126.63 792.43,126.79 793.40,126.96 794.37,127.12 795.35,127.29 796.32,127.47 797.29,127.64 798.27,127.82 799.24,127.99 800.21,128.18 801.19,128.36 802.16,128.54 803.13,128.73 804.11,128.92 805.08,129.11 806.05,129.31 807.03,129.50 808.00,129.70 808.97,129.90 809.95,130.11 810.92,130.31 811.89,130.52 812.87,130.73 813.84,130.95 814.81,131.16 815.79,131.38 816.76,131.60 817.73,131.82 818.71,132.05 819.68,132.28 820.65,132.51 821.63,132.74 822.60,132.98 823.57,133.22 824.55,133.46 825.52,133.71 826.49,133.95 827.47,134.20 828.44,134.46 829.41,134.71 830.39,134.97 831.36,135.24 832.33,135.50 833.31,135.77 834.28,136.04 835.25,136.31 836.23,136.59 837.20,136.87 838.17,137.16 839.15,137.44 840.12,137.73 841.09,138.03 842.07,138.33 843.04,138.63 844.01,138.93 844.99,139.24 845.96,139.55 846.93,139.86 847.91,140.18 848.88,140.51 849.85,140.83 850.83,141.16 851.80,141.50 852.77,141.83 853.75,142.18 854.72,142.52 855.69,142.87 856.67,143.23 857.64,143.59 858.61,143.95 859.59,144.32 860.56,144.69 861.53,145.07 862.51,145.45 863.48,145.84 864.45,146.23 865.43,146.63 866.40,147.03 867.37,147.43 868.35,147.85 869.32,148.26 870.29,148.69 871.27,149.12 872.24,149.55 873.21,149.99 874.19,150.44 875.16,150.89 876.13,151.35 877.11,151.82 878.08,152.29 879.05,152.77 880.03,153.25 881.00,153.75 881.97,154.24 882.95,154.75 883.92,155.27 884.89,155.79 885.87,156.32 886.84,156.86 887.81,157.41 888.79,157.96 889.76,158.53 890.73,159.10 891.71,159.68 892.68,160.28 893.65,160.88 894.63,161.49 895.60,162.12 896.57,162.75 897.55,163.40 898.52,164.06 899.49,164.73 900.47,165.41 901.44,166.10 902.41,166.81 903.39,167.53 904.36,168.27 905.33,169.02 906.31,169.79 907.28,170.57 908.25,171.37 909.23,172.19 910.20,173.03 911.17,173.88 912.15,174.75 913.12,175.65 914.09,176.57 915.07,177.51 916.04,178.47 917.01,179.46 917.99,180.47 918.96,181.52 919.93,182.59 920.91,183.69 921.88,184.83 922.85,186.00 923.83,187.21 924.80,188.45 925.77,189.74 926.75,191.08 927.72,192.46 928.69,193.90 929.67,195.39 930.64,196.94 931.61,198.55 932.59,200.24 933.56,202.00 934.53,203.85 935.51,205.80 936.48,207.84 937.45,210.01 938.43,212.30 939.40,214.74 940.37,217.35 941.35,220.15 942.32,223.17 943.29,226.45 944.27,230.04 945.24,234.00 946.21,238.43 947.19,243.45 948.16,249.24 949.13,256.08 950.11,264.44 951.08,275.21 952.05,290.37 953.03,316.26 954.00,492.00" fill="none" stroke="rgb(178,24,43)" stroke-width="2.0" stroke-linejoin="round" stroke-linecap="round" />
<polyline points="78.00,62.59 78.97,62.59 79.95,62.59 80.92,62.59 81.89,62.60 82.87,62.60 83.84,62.61 84.81,62.62 85.79,62.63 86.76,62.64 87.73,62.65 88.71,62.66 89.68,62.68 90.65,62.69 91.63,62.71 92.60,62.72 93.57,62.74 94.55,62.76 95.52,62.78 96.49,62.81 97.47,62.83 98.44,62.86 99.41,62.88 100.39,62.91 101.36,62.94 102.33,62.97 103.31,63.00 104.28,63.03 105.25,63.06 106.23,63.10 107.20,63.13 108.17,63.17 109.15,63.21 110.12,63.25 111.09,63.29 112.07,63.33 113.04,63.38 114.01,63.42 114.99,63.47 115.96,63.51 116.93,63.56 117.91,63.61 118.88,63.66 119.85,63.71 120.83,63.77 121.80,63.82 122.77,63.87 123.75,63.93 124.72,63.99 125.69,64.05 126.67,64.11 127.64,64.17 128.61,64.23 129.59,64.30 130.56,64.36 131.53,64.43 132.51,64.50 133.48,64.57 134.45,64.64 135.43,64.71 136.40,64.78 137.37,64.86 138.35,64.93 139.32,65.01 140.29,65.09 141.27,65.17 142.24,65.25 143.21,65.33 144.19,65.41 145.16,65.50 146.13,65.58 147.11,65.67 148.08,65.76 149.05,65.85 150.03,65.94 151.00,66.03 151.97,66.12 152.95,66.22 153.92,66.31 154.89,66.41 155.87,66.51 156.84,66.61 157.81,66.71 158.79,66.81 159.76,66.91 160.73,67.02 161.71,67.12 162.68,67.23 163.65,67.34 164.63,67.45 165.60,67.56 166.57,67.68 167.55,67.79 168.52,67.90 169.49,68.02 170.47,68.14 171.44,68.26 172.41,68.38 173.39,68.50 174.36,68.62 175.33,68.75 176.31,68.88 177.28,69.00 178.25,69.13 179.23,69.26 180.20,69.39 181.17,69.53 182.15,69.66 183.12,69.80 184.09,69.93 185.07,70.07 186.04,70.21 187.01,70.35 187.99,70.49 188.96,70.64 189.93,70.78 190.91,70.93 191.88,71.08 192.85,71.23 193.83,71.38 194.80,71.53 195.77,71.68 196.75,71.84 197.72,71.99 198.69,72.15 199.67,72.31 200.64,72.47 201.61,72.63 202.59,72.79 203.56,72.96 204.53,73.13 205.51,73.29 206.48,73.46 207.45,73.63 208.43,73.81 209.40,73.98 210.37,74.15 211.35,74.33 212.32,74.51 213.29,74.69 214.27,74.87 215.24,75.05 216.21,75.23 217.19,75.42 218.16,75.61 219.13,75.79 220.11,75.98 221.08,76.18 222.05,76.37 223.03,76.56 224.00,76.76 224.97,76.96 225.95,77.15 226.92,77.36 227.89,77.56 228.87,77.76 229.84,77.97 230.81,78.17 231.79,78.38 232.76,78.59 233.73,78.80 234.71,79.02 235.68,79.23 236.65,79.45 237.63,79.66 238.60,79.88 239.57,80.10 240.55,80.33 241.52,80.55 242.49,80.78 243.47,81.00 244.44,81.23 245.41,81.46 246.39,81.70 247.36,81.93 248.33,82.17 249.31,82.41 250.28,82.64 251.25,82.89 252.23,83.13 253.20,83.37 254.17,83.62 255.15,83.87 256.12,84.12 257.09,84.37 258.07,84.62 259.04,84.87 260.01,85.13 260.99,85.39 261.96,85.65 262.93,85.91 263.91,86.18 264.88,86.44 265.85,86.71 266.83,86.98 267.80,87.25 268.77,87.52 269.75,87.80 270.72,88.07 271.69,88.35 272.67,88.63 273.64,88.91 274.61,89.20 275.59,89.48 276.56,89.77 277.53,90.06 278.51,90.35 279.48,90.65 280.45,90.94 281.43,91.24 282.40,91.54 283.37,91.84 284.35,92.14 285.32,92.45 286.29,92.76 287.27,93.07 288.24,93.38 289.21,93.69 290.19,94.01 291.16,94.32 292.13,94.64 293.11,94.97 294.08,95.29 295.05,95.62 296.03,95.94 297.00,96.27 297.97,96.61 298.95,96.94 299.92,97.28 300.89,97.62 301.87,97.96 302.84,98.30 303.81,98.65 304.79,99.00 305.76,99.35 306.73,99.70 307.71,100.06 308.68,100.41 309.65,100.77 310.63,101.13 311.60,101.50 312.57,101.87 313.55,102.23 314.52,102.61 315.49,102.98 316.47,103.36 317.44,103.74 318.41,104.12 319.39,104.50 320.36,104.89 321.33,105.28 322.31,105.67 323.28,106.06 324.25,106.46 325.23,106.86 326.20,107.26 327.17,107.66 328.15,108.07 329.12,108.48 330.09,108.89 331.07,109.31 332.04,109.73 333.01,110.15 333.99,110.57 334.96,111.00 335.93,111.43 336.91,111.86 337.88,112.30 338.85,112.73 339.83,113.17 340.80,113.62 341.77,114.07 342.75,114.52 343.72,114.97 344.69,115.42 345.67,115.88 346.64,116.35 347.61,116.81 348.59,117.28 349.56,117.75 350.53,118.23 351.51,118.71 352.48,119.19 353.45,119.67 354.43,120.16 355.40,120.65 356.37,121.15 357.35,121.65 358.32,122.15 359.29,122.66 360.27,123.17 361.24,123.68 362.21,124.19 363.19,124.72 364.16,125.24 365.13,125.77 366.11,126.30 367.08,126.83 368.05,127.37 369.03,127.92 370.00,128.46 370.97,129.02 371.95,129.57 372.92,130.13 373.89,130.69 374.87,131.26 375.84,131.83 376.81,132.41 377.79,132.99 378.76,133.58 379.73,134.17 380.71,134.76 381.68,135.36 382.65,135.96 383.63,136.57 384.60,137.18 385.57,137.80 386.55,138.42 387.52,139.05 388.49,139.68 389.47,140.32 390.44,140.96 391.41,141.61 392.39,142.26 393.36,142.92 394.33,143.59 395.31,144.26 396.28,144.93 397.25,145.61 398.23,146.30 399.20,146.99 400.17,147.69 401.15,148.39 402.12,149.10 403.09,149.82 404.07,150.54 405.04,151.27 406.01,152.00 406.99,152.75 407.96,153.49 408.93,154.25 409.91,155.01 410.88,155.78 411.85,156.56 412.83,157.34 413.80,158.13 414.77,158.93 415.75,159.74 416.72,160.55 417.69,161.37 418.67,162.20 419.64,163.04 420.61,163.89 421.59,164.74 422.56,165.60 423.53,166.48 424.51,167.36 425.48,168.25 426.45,169.15 427.43,170.06 428.40,170.98 429.37,171.90 430.35,172.84 431.32,173.79 432.29,174.75 433.27,175.72 434.24,176.71 435.21,177.70 436.19,178.70 437.16,179.72 438.13,180.75 439.11,181.79 440.08,182.85 441.05,183.91 442.03,184.99 443.00,186.09 443.97,187.19 444.95,188.32 445.92,189.45 446.89,190.61 447.87,191.77 448.84,192.96 449.81,194.16 450.79,195.38 451.76,196.61 452.73,197.86 453.71,199.13 454.68,200.42 455.65,201.73 456.63,203.06 457.60,204.41 458.57,205.78 459.55,207.18 460.52,208.59 461.49,210.04 462.47,211.50 463.44,212.99 464.41,214.51 465.39,216.05 466.36,217.63 467.33,219.23 468.31,220.86 469.28,222.53 470.25,224.22 471.23,225.96 472.20,227.72 473.17,229.53 474.15,231.38 475.12,233.26 476.09,235.19 477.07,237.17 478.04,239.19 479.01,241.26 479.99,243.39 480.96,245.57 481.93,247.80 482.91,250.10 483.88,252.47 484.85,254.90 485.83,257.41 486.80,260.00 487.77,262.67 488.75,265.43 489.72,268.29 490.69,271.24 491.67,274.31 492.64,277.51 493.61,280.83 494.59,284.29 495.56,287.91 496.53,291.70 497.51,295.67 498.48,299.86 499.45,304.27 500.43,308.95 501.40,313.91 502.37,319.21 503.35,324.90 504.32,331.02 505.29,337.67 506.27,344.94 507.24,352.95 508.21,361.90 509.19,372.02 510.16,383.68 511.13,397.44 512.11,414.25 513.08,435.87 514.05,466.28 515.03,492.00 516.00,492.00 516.97,492.00 517.95,466.94 518.92,436.86 519.89,415.57 520.87,399.10 521.84,385.67 522.81,374.34 523.79,364.55 524.76,355.94 525.73,348.25 526.71,341.32 527.68,335.00 528.65,329.21 529.63,323.86 530.60,318.89 531.57,314.25 532.55,309.91 533.52,305.83 534.49,301.98 535.47,298.33 536.44,294.88 537.41,291.59 538.39,288.46 539.36,285.47 540.33,282.61 541.31,279.87 542.28,277.25 543.25,274.72 544.23,272.30 545.20,269.96 546.17,267.71 547.15,265.53 548.12,263.43 549.09,261.40 550.07,259.43 551.04,257.53 552.01,255.68 552.99,253.89 553.96,252.15 554.93,250.46 555.91,248.82 556.88,247.23 557.85,245.68 558.83,244.16 559.80,242.69 560.77,241.26 561.75,239.86 562.72,238.50 563.69,237.17 564.67,235.87 565.64,234.61 566.61,233.37 567.59,232.16 568.56,230.98 569.53,229.83 570.51,228.70 571.48,227.59 572.45,226.51 573.43,225.46 574.40,224.42 575.37,223.41 576.35,222.42 577.32,221.45 578.29,220.50 579.27,219.56 580.24,218.65 581.21,217.75 582.19,216.88 583.16,216.02 584.13,215.17 585.11,214.34 586.08,213.53 587.05,212.73 588.03,211.95 589.00,211.19 589.97,210.43 590.95,209.69 591.92,208.97 592.89,208.26 593.87,207.56 594.84,206.87 595.81,206.20 596.79,205.54 597.76,204.89 598.73,204.25 599.71,203.62 600.68,203.00 601.65,202.40 602.63,201.81 603.60,201.22 604.57,200.65 605.55,200.08 606.52,199.53 607.49,198.99 608.47,198.45 609.44,197.93 610.41,197.41 611.39,196.90 612.36,196.41 613.33,195.92 614.31,195.44 615.28,194.96 616.25,194.50 617.23,194.04 618.20,193.60 619.17,193.16 620.15,192.72 621.12,192.30 622.09,191.88 623.07,191.47 624.04,191.07 625.01,190.67 625.99,190.29 626.96,189.91 627.93,189.53 628.91,189.16 629.88,188.80 630.85,188.45 631.83,188.10 632.80,187.76 633.77,187.42 634.75,187.10 635.72,186.77 636.69,186.46 637.67,186.15 638.64,185.84 639.61,185.54 640.59,185.25 641.56,184.96 642.53,184.68 643.51,184.41 644.48,184.14 645.45,183.87 646.43,183.62 647.40,183.36 648.37,183.11 649.35,182.87 650.32,182.63 651.29,182.40 652.27,182.17 653.24,181.95 654.21,181.73 655.19,181.52 656.16,181.31 657.13,181.11 658.11,180.91 659.08,180.72 660.05,180.53 661.03,180.35 662.00,180.17 662.97,180.00 663.95,179.83 664.92,179.66 665.89,179.50 666.87,179.35 667.84,179.19 668.81,179.05 669.79,178.91 670.76,178.77 671.73,178.63 672.71,178.50 673.68,178.38 674.65,178.26 675.63,178.14 676.60,178.03 677.57,177.92 678.55,177.81 679.52,177.71 680.49,177.62 681.47,177.53 682.44,177.44 683.41,177.35 684.39,177.27 685.36,177.20 686.33,177.13 687.31,177.06 688.28,176.99 689.25,176.93 690.23,176.88 691.20,176.82 692.17,176.77 693.15,176.73 694.12,176.69 695.09,176.65 696.07,176.62 697.04,176.59 698.01,176.56 698.99,176.54 699.96,176.52 700.93,176.50 701.91,176.49 702.88,176.48 703.85,176.48 704.83,176.48 705.80,176.48 706.77,176.49 707.75,176.50 708.72,176.51 709.69,176.53 710.67,176.55 711.64,176.58 712.61,176.61 713.59,176.64 714.56,176.67 715.53,176.71 716.51,176.75 717.48,176.80 718.45,176.85 719.43,176.90 720.40,176.96 721.37,177.02 722.35,177.08 723.32,177.15 724.29,177.22 725.27,177.30 726.24,177.37 727.21,177.45 728.19,177.54 729.16,177.63 730.13,177.72 731.11,177.81 732.08,177.91 733.05,178.01 734.03,178.12 735.00,178.23 735.97,178.34 736.95,178.45 737.92,178.57 738.89,178.70 739.87,178.82 740.84,178.95 741.81,179.09 742.79,179.22 743.76,179.36 744.73,179.51 745.71,179.65 746.68,179.80 747.65,179.96 748.63,180.11 749.60,180.28 750.57,180.44 751.55,180.61 752.52,180.78 753.49,180.96 754.47,181.13 755.44,181.32 756.41,181.50 757.39,181.69 758.36,181.88 759.33,182.08 760.31,182.28 761.28,182.49 762.25,182.69 763.23,182.90 764.20,183.12 765.17,183.34 766.15,183.56 767.12,183.78 768.09,184.01 769.07,184.25 770.04,184.48 771.01,184.72 771.99,184.97 772.96,185.22 773.93,185.47 774.91,185.72 775.88,185.98 776.85,186.25 777.83,186.51 778.80,186.78 779.77,187.06 780.75,187.34 781.72,187.62 782.69,187.91 783.67,188.20 784.64,188.49 785.61,188.79 786.59,189.09 787.56,189.40 788.53,189.71 789.51,190.02 790.48,190.34 791.45,190.67 792.43,190.99 793.40,191.32 794.37,191.66 795.35,192.00 796.32,192.34 797.29,192.69 798.27,193.04 799.24,193.40 800.21,193.76 801.19,194.13 802.16,194.50 803.13,194.87 804.11,195.25 805.08,195.64 806.05,196.03 807.03,196.42 808.00,196.82 808.97,197.22 809.95,197.63 810.92,198.04 811.89,198.45 812.87,198.88 813.84,199.30 814.81,199.73 815.79,200.17 816.76,200.61 817.73,201.06 818.71,201.51 819.68,201.97 820.65,202.43 821.63,202.90 822.60,203.37 823.57,203.85 824.55,204.34 825.52,204.83 826.49,205.32 827.47,205.82 828.44,206.33 829.41,206.84 830.39,207.36 831.36,207.88 832.33,208.41 833.31,208.95 834.28,209.49 835.25,210.04 836.23,210.60 837.20,211.16 838.17,211.72 839.15,212.30 840.12,212.88 841.09,213.47 842.07,214.06 843.04,214.66 844.01,215.27 844.99,215.89 845.96,216.51 846.93,217.14 847.91,217.78 848.88,218.42 849.85,219.07 850.83,219.74 851.80,220.40 852.77,221.08 853.75,221.76 854.72,222.46 855.69,223.16 856.67,223.87 857.64,224.59 858.61,225.31 859.59,226.05 860.56,226.79 861.53,227.55 862.51,228.31 863.48,229.09 864.45,229.87 865.43,230.66 866.40,231.47 867.37,232.28 868.35,233.11 869.32,233.94 870.29,234.79 871.27,235.65 872.24,236.52 873.21,237.40 874.19,238.29 875.16,239.20 876.13,240.11 877.11,241.04 878.08,241.99 879.05,242.95 880.03,243.92 881.00,244.90 881.97,245.90 882.95,246.92 883.92,247.95 884.89,248.99 885.87,250.05 886.84,251.13 887.81,252.22 888.79,253.34 889.76,254.47 890.73,255.61 891.71,256.78 892.68,257.97 893.65,259.17 894.63,260.40 895.60,261.65 896.57,262.92 897.55,264.21 898.52,265.52 899.49,266.86 900.47,268.23 901.44,269.62 902.41,271.03 903.39,272.48 904.36,273.95 905.33,275.46 906.31,276.99 907.28,278.56 908.25,280.16 909.23,281.79 910.20,283.46 911.17,285.17 912.15,286.92 913.12,288.71 914.09,290.55 915.07,292.43 916.04,294.35 917.01,296.33 917.99,298.36 918.96,300.45 919.93,302.59 920.91,304.80 921.88,307.07 922.85,309.41 923.83,311.83 924.80,314.32 925.77,316.90 926.75,319.57 927.72,322.33 928.69,325.20 929.67,328.18 930.64,331.28 931.61,334.51 932.59,337.89 933.56,341.42 934.53,345.12 935.51,349.00 936.48,353.10 937.45,357.43 938.43,362.01 939.40,366.89 940.37,372.11 941.35,377.70 942.32,383.74 943.29,390.30 944.27,397.48 945.24,405.42 946.21,414.28 947.19,424.31 948.16,435.89 949.13,449.56 950.11,466.29 951.08,487.83 952.05,492.00 953.03,492.00 954.00,492.00" fill="none" stroke="rgb(35,139,69)" stroke-width="2.0" stroke-linejoin="round" stroke-linecap="round" />
<line x1="784" y1="76" x2="818" y2="76" stroke="rgb(33,101,172)" stroke-width="3" />
<text x="828" y="76" font-family="Arial, sans-serif" font-size="14" dominant-baseline="middle">FIR</text>
<line x1="784" y1="100" x2="818" y2="100" stroke="rgb(178,24,43)" stroke-width="3" />
<text x="828" y="100" font-family="Arial, sans-serif" font-size="14" dominant-baseline="middle">Boxcar</text>
<line x1="784" y1="124" x2="818" y2="124" stroke="rgb(35,139,69)" stroke-width="3" />
<text x="828" y="124" font-family="Arial, sans-serif" font-size="14" dominant-baseline="middle">CIC</text>
<text x="516" y="548" font-family="Arial, sans-serif" font-size="15" text-anchor="middle">Frequency, normalized to output Nyquist</text>
<text transform="translate(22 273) rotate(-90)" font-family="Arial, sans-serif" font-size="15" text-anchor="middle">Amplitude response (dB)</text>
</svg>
