<?xml version="1.0" encoding="UTF-8"?>
<svg xmlns="http://www.w3.org/2000/svg" width="980" height="560" viewBox="0 0 980 560">
<rect width="100%" height="100%" fill="#ffffff" />
<text x="78" y="30" font-family="Arial, sans-serif" font-size="22" font-weight="700">Passband Droop, decimation=625</text>
<rect x="78" y="54" width="876" height="438" fill="#fafafa" stroke="#222" stroke-width="1" />
<line x1="78.00" y1="54" x2="78.00" y2="492" stroke="#ddd" />
<text x="78.00" y="518" font-family="Arial, sans-serif" font-size="12" text-anchor="middle">0</text>
<line x1="187.50" y1="54" x2="187.50" y2="492" stroke="#ddd" />
<text x="187.50" y="518" font-family="Arial, sans-serif" font-size="12" text-anchor="middle">2.5</text>
<line x1="297.00" y1="54" x2="297.00" y2="492" stroke="#ddd" />
<text x="297.00" y="518" font-family="Arial, sans-serif" font-size="12" text-anchor="middle">5</text>
<line x1="406.50" y1="54" x2="406.50" y2="492" stroke="#ddd" />
<text x="406.50" y="518" font-family="Arial, sans-serif" font-size="12" text-anchor="middle">7.5</text>
<line x1="516.00" y1="54" x2="516.00" y2="492" stroke="#ddd" />
<text x="516.00" y="518" font-family="Arial, sans-serif" font-size="12" text-anchor="middle">10</text>
<line x1="625.50" y1="54" x2="625.50" y2="492" stroke="#ddd" />
<text x="625.50" y="518" font-family="Arial, sans-serif" font-size="12" text-anchor="middle">12</text>
<line x1="735.00" y1="54" x2="735.00" y2="492" stroke="#ddd" />
<text x="735.00" y="518" font-family="Arial, sans-serif" font-size="12" text-anchor="middle">15</text>
<line x1="844.50" y1="54" x2="844.50" y2="492" stroke="#ddd" />
<text x="844.50" y="518" font-family="Arial, sans-serif" font-size="12" text-anchor="middle">18</text>
<line x1="954.00" y1="54" x2="954.00" y2="492" stroke="#ddd" />
<text x="954.00" y="518" font-family="Arial, sans-serif" font-size="12" text-anchor="middle">20</text>
<line x1="78" y1="492.00" x2="954" y2="492.00" stroke="#ddd" />
<text x="68" y="492.00" font-family="Arial, sans-serif" font-size="12" text-anchor="end" dominant-baseline="middle">-10</text>
<line x1="78" y1="93.82" x2="954" y2="93.82" stroke="#ddd" />
<text x="68" y="93.82" font-family="Arial, sans-serif" font-size="12" text-anchor="end" dominant-baseline="middle">0</text>
<polyline points="78.00,93.82 79.46,93.82 80.92,93.82 82.38,93.82 83.84,93.82 85.30,93.82 86.76,93.82 88.22,93.82 89.68,93.82 91.14,93.82 92.60,93.83 94.06,93.83 95.52,93.83 96.98,93.83 98.44,93.83 99.90,93.84 101.36,93.84 102.82,93.84 104.28,93.84 105.74,93.85 107.20,93.85 108.66,93.85 110.12,93.86 111.58,93.86 113.04,93.86 114.50,93.87 115.96,93.87 117.42,93.88 118.88,93.88 120.34,93.89 121.80,93.89 123.26,93.89 124.72,93.90 126.18,93.90 127.64,93.91 129.10,93.92 130.56,93.92 132.02,93.93 133.48,93.93 134.94,93.94 136.40,93.95 137.86,93.95 139.32,93.96 140.78,93.97 142.24,93.97 143.70,93.98 145.16,93.99 146.62,93.99 148.08,94.00 149.54,94.01 151.00,94.02 152.46,94.03 153.92,94.03 155.38,94.04 156.84,94.05 158.30,94.06 159.76,94.07 161.22,94.08 162.68,94.09 164.14,94.10 165.60,94.11 167.06,94.11 168.52,94.12 169.98,94.13 171.44,94.14 172.90,94.16 174.36,94.17 175.82,94.18 177.28,94.19 178.74,94.20 180.20,94.21 181.66,94.22 183.12,94.23 184.58,94.24 186.04,94.26 187.50,94.27 188.96,94.28 190.42,94.29 191.88,94.30 193.34,94.32 194.80,94.33 196.26,94.34 197.72,94.36 199.18,94.37 200.64,94.38 202.10,94.40 203.56,94.41 205.02,94.42 206.48,94.44 207.94,94.45 209.40,94.47 210.86,94.48 212.32,94.50 213.78,94.51 215.24,94.53 216.70,94.54 218.16,94.56 219.62,94.57 221.08,94.59 222.54,94.60 224.00,94.62 225.46,94.64 226.92,94.65 228.38,94.67 229.84,94.69 231.30,94.70 232.76,94.72 234.22,94.74 235.68,94.76 237.14,94.77 238.60,94.79 240.06,94.81 241.52,94.83 242.98,94.85 244.44,94.86 245.90,94.88 247.36,94.90 248.82,94.92 250.28,94.94 251.74,94.96 253.20,94.98 254.66,95.00 256.12,95.02 257.58,95.04 259.04,95.06 260.50,95.08 261.96,95.10 263.42,95.12 264.88,95.14 266.34,95.16 267.80,95.18 269.26,95.21 270.72,95.23 272.18,95.25 273.64,95.27 275.10,95.29 276.56,95.32 278.02,95.34 279.48,95.36 280.94,95.38 282.40,95.41 283.86,95.43 285.32,95.45 286.78,95.48 288.24,95.50 289.70,95.53 291.16,95.55 292.62,95.57 294.08,95.60 295.54,95.62 297.00,95.65 298.46,95.67 299.92,95.70 301.38,95.72 302.84,95.75 304.30,95.78 305.76,95.80 307.22,95.83 308.68,95.85 310.14,95.88 311.60,95.91 313.06,95.93 314.52,95.96 315.98,95.99 317.44,96.02 318.90,96.04 320.36,96.07 321.82,96.10 323.28,96.13 324.74,96.16 326.20,96.18 327.66,96.21 329.12,96.24 330.58,96.27 332.04,96.30 333.50,96.33 334.96,96.36 336.42,96.39 337.88,96.42 339.34,96.45 340.80,96.48 342.26,96.51 343.72,96.54 345.18,96.57 346.64,96.60 348.10,96.64 349.56,96.67 351.02,96.70 352.48,96.73 353.94,96.76 355.40,96.80 356.86,96.83 358.32,96.86 359.78,96.89 361.24,96.93 362.70,96.96 364.16,97.00 365.62,97.03 367.08,97.06 368.54,97.10 370.00,97.13 371.46,97.17 372.92,97.20 374.38,97.24 375.84,97.27 377.30,97.31 378.76,97.34 380.22,97.38 381.68,97.41 383.14,97.45 384.60,97.49 386.06,97.52 387.52,97.56 388.98,97.60 390.44,97.63 391.90,97.67 393.36,97.71 394.82,97.75 396.28,97.79 397.74,97.82 399.20,97.86 400.66,97.90 402.12,97.94 403.58,97.98 405.04,98.02 406.50,98.06 407.96,98.10 409.42,98.14 410.88,98.18 412.34,98.22 413.80,98.26 415.26,98.30 416.72,98.34 418.18,98.38 419.64,98.42 421.10,98.46 422.56,98.51 424.02,98.55 425.48,98.59 426.94,98.63 428.40,98.67 429.86,98.72 431.32,98.76 432.78,98.80 434.24,98.85 435.70,98.89 437.16,98.94 438.62,98.98 440.08,99.02 441.54,99.07 443.00,99.11 444.46,99.16 445.92,99.20 447.38,99.25 448.84,99.30 450.30,99.34 451.76,99.39 453.22,99.43 454.68,99.48 456.14,99.53 457.60,99.57 459.06,99.62 460.52,99.67 461.98,99.72 463.44,99.77 464.90,99.81 466.36,99.86 467.82,99.91 469.28,99.96 470.74,100.01 472.20,100.06 473.66,100.11 475.12,100.16 476.58,100.21 478.04,100.26 479.50,100.31 480.96,100.36 482.42,100.41 483.88,100.46 485.34,100.51 486.80,100.56 488.26,100.62 489.72,100.67 491.18,100.72 492.64,100.77 494.10,100.83 495.56,100.88 497.02,100.93 498.48,100.99 499.94,101.04 501.40,101.09 502.86,101.15 504.32,101.20 505.78,101.26 507.24,101.31 508.70,101.37 510.16,101.42 511.62,101.48 513.08,101.54 514.54,101.59 516.00,101.65 517.46,101.71 518.92,101.76 520.38,101.82 521.84,101.88 523.30,101.94 524.76,101.99 526.22,102.05 527.68,102.11 529.14,102.17 530.60,102.23 532.06,102.29 533.52,102.35 534.98,102.41 536.44,102.47 537.90,102.53 539.36,102.59 540.82,102.65 542.28,102.71 543.74,102.77 545.20,102.83 546.66,102.89 548.12,102.96 549.58,103.02 551.04,103.08 552.50,103.14 553.96,103.21 555.42,103.27 556.88,103.33 558.34,103.40 559.80,103.46 561.26,103.53 562.72,103.59 564.18,103.66 565.64,103.72 567.10,103.79 568.56,103.85 570.02,103.92 571.48,103.98 572.94,104.05 574.40,104.12 575.86,104.18 577.32,104.25 578.78,104.32 580.24,104.39 581.70,104.46 583.16,104.52 584.62,104.59 586.08,104.66 587.54,104.73 589.00,104.80 590.46,104.87 591.92,104.94 593.38,105.01 594.84,105.08 596.30,105.15 597.76,105.22 599.22,105.29 600.68,105.37 602.14,105.44 603.60,105.51 605.06,105.58 606.52,105.66 607.98,105.73 609.44,105.80 610.90,105.88 612.36,105.95 613.82,106.02 615.28,106.10 616.74,106.17 618.20,106.25 619.66,106.32 621.12,106.40 622.58,106.48 624.04,106.55 625.50,106.63 626.96,106.71 628.42,106.78 629.88,106.86 631.34,106.94 632.80,107.02 634.26,107.09 635.72,107.17 637.18,107.25 638.64,107.33 640.10,107.41 641.56,107.49 643.02,107.57 644.48,107.65 645.94,107.73 647.40,107.81 648.86,107.89 650.32,107.97 651.78,108.06 653.24,108.14 654.70,108.22 656.16,108.30 657.62,108.39 659.08,108.47 660.54,108.55 662.00,108.64 663.46,108.72 664.92,108.81 666.38,108.89 667.84,108.98 669.30,109.06 670.76,109.15 672.22,109.23 673.68,109.32 675.14,109.41 676.60,109.50 678.06,109.58 679.52,109.67 680.98,109.76 682.44,109.85 683.90,109.94 685.36,110.02 686.82,110.11 688.28,110.20 689.74,110.29 691.20,110.38 692.66,110.47 694.12,110.56 695.58,110.66 697.04,110.75 698.50,110.84 699.96,110.93 701.42,111.02 702.88,111.12 704.34,111.21 705.80,111.30 707.26,111.40 708.72,111.49 710.18,111.59 711.64,111.68 713.10,111.78 714.56,111.87 716.02,111.97 717.48,112.06 718.94,112.16 720.40,112.26 721.86,112.35 723.32,112.45 724.78,112.55 726.24,112.65 727.70,112.75 729.16,112.84 730.62,112.94 732.08,113.04 733.54,113.14 735.00,113.24 736.46,113.34 737.92,113.44 739.38,113.54 740.84,113.65 742.30,113.75 743.76,113.85 745.22,113.95 746.68,114.06 748.14,114.16 749.60,114.26 751.06,114.37 752.52,114.47 753.98,114.57 755.44,114.68 756.90,114.78 758.36,114.89 759.82,115.00 761.28,115.10 762.74,115.21 764.20,115.32 765.66,115.42 767.12,115.53 768.58,115.64 770.04,115.75 771.50,115.86 772.96,115.97 774.42,116.08 775.88,116.19 777.34,116.30 778.80,116.41 780.26,116.52 781.72,116.63 783.18,116.74 784.64,116.85 786.10,116.96 787.56,117.08 789.02,117.19 790.48,117.30 791.94,117.42 793.40,117.53 794.86,117.65 796.32,117.76 797.78,117.88 799.24,117.99 800.70,118.11 802.16,118.23 803.62,118.34 805.08,118.46 806.54,118.58 808.00,118.69 809.46,118.81 810.92,118.93 812.38,119.05 813.84,119.17 815.30,119.29 816.76,119.41 818.22,119.53 819.68,119.65 821.14,119.77 822.60,119.89 824.06,120.02 825.52,120.14 826.98,120.26 828.44,120.39 829.90,120.51 831.36,120.63 832.82,120.76 834.28,120.88 835.74,121.01 837.20,121.13 838.66,121.26 840.12,121.39 841.58,121.51 843.04,121.64 844.50,121.77 845.96,121.89 847.42,122.02 848.88,122.15 850.34,122.28 851.80,122.41 853.26,122.54 854.72,122.67 856.18,122.80 857.64,122.93 859.10,123.06 860.56,123.20 862.02,123.33 863.48,123.46 864.94,123.59 866.40,123.73 867.86,123.86 869.32,124.00 870.78,124.13 872.24,124.26 873.70,124.40 875.16,124.54 876.62,124.67 878.08,124.81 879.54,124.95 881.00,125.08 882.46,125.22 883.92,125.36 885.38,125.50 886.84,125.64 888.30,125.78 889.76,125.92 891.22,126.06 892.68,126.20 894.14,126.34 895.60,126.48 897.06,126.62 898.52,126.77 899.98,126.91 901.44,127.05 902.90,127.20 904.36,127.34 905.82,127.49 907.28,127.63 908.74,127.78 910.20,127.92 911.66,128.07 913.12,128.22 914.58,128.36 916.04,128.51 917.50,128.66 918.96,128.81 920.42,128.96 921.88,129.11 923.34,129.25 924.80,129.40 926.26,129.56 927.72,129.71 929.18,129.86 930.64,130.01 932.10,130.16 933.56,130.32 935.02,130.47 936.48,130.62 937.94,130.78 939.40,130.93 940.86,131.09 942.32,131.24 943.78,131.40 945.24,131.55 946.70,131.71 948.16,131.87 949.62,132.03 951.08,132.18 952.54,132.34 954.00,132.50" fill="none" stroke="rgb(33,101,172)" stroke-width="2.0" stroke-linejoin="round" stroke-linecap="round" />
<polyline points="78.00,93.82 79.46,93.82 80.92,93.82 82.38,93.82 83.84,93.82 85.30,93.83 86.76,93.83 88.22,93.84 89.68,93.84 91.14,93.85 92.60,93.86 94.06,93.87 95.52,93.88 96.98,93.88 98.44,93.90 99.90,93.91 101.36,93.92 102.82,93.93 104.28,93.95 105.74,93.96 107.20,93.98 108.66,93.99 110.12,94.01 111.58,94.03 113.04,94.05 114.50,94.07 115.96,94.09 117.42,94.11 118.88,94.13 120.34,94.15 121.80,94.17 123.26,94.20 124.72,94.22 126.18,94.25 127.64,94.28 129.10,94.30 130.56,94.33 132.02,94.36 133.48,94.39 134.94,94.42 136.40,94.45 137.86,94.48 139.32,94.52 140.78,94.55 142.24,94.58 143.70,94.62 145.16,94.65 146.62,94.69 148.08,94.73 149.54,94.77 151.00,94.81 152.46,94.85 153.92,94.89 155.38,94.93 156.84,94.97 158.30,95.01 159.76,95.06 161.22,95.10 162.68,95.15 164.14,95.19 165.60,95.24 167.06,95.29 168.52,95.34 169.98,95.39 171.44,95.44 172.90,95.49 174.36,95.54 175.82,95.59 177.28,95.65 178.74,95.70 180.20,95.76 181.66,95.81 183.12,95.87 184.58,95.93 186.04,95.98 187.50,96.04 188.96,96.10 190.42,96.16 191.88,96.23 193.34,96.29 194.80,96.35 196.26,96.41 197.72,96.48 199.18,96.54 200.64,96.61 202.10,96.68 203.56,96.75 205.02,96.81 206.48,96.88 207.94,96.95 209.40,97.02 210.86,97.10 212.32,97.17 213.78,97.24 215.24,97.32 216.70,97.39 218.16,97.47 219.62,97.54 221.08,97.62 222.54,97.70 224.00,97.78 225.46,97.86 226.92,97.94 228.38,98.02 229.84,98.10 231.30,98.18 232.76,98.27 234.22,98.35 235.68,98.44 237.14,98.52 238.60,98.61 240.06,98.70 241.52,98.79 242.98,98.88 244.44,98.97 245.90,99.06 247.36,99.15 248.82,99.24 250.28,99.34 251.74,99.43 253.20,99.53 254.66,99.62 256.12,99.72 257.58,99.82 259.04,99.91 260.50,100.01 261.96,100.11 263.42,100.21 264.88,100.32 266.34,100.42 267.80,100.52 269.26,100.62 270.72,100.73 272.18,100.84 273.64,100.94 275.10,101.05 276.56,101.16 278.02,101.27 279.48,101.38 280.94,101.49 282.40,101.60 283.86,101.71 285.32,101.82 286.78,101.94 288.24,102.05 289.70,102.16 291.16,102.28 292.62,102.40 294.08,102.52 295.54,102.63 297.00,102.75 298.46,102.87 299.92,102.99 301.38,103.12 302.84,103.24 304.30,103.36 305.76,103.49 307.22,103.61 308.68,103.74 310.14,103.86 311.60,103.99 313.06,104.12 314.52,104.25 315.98,104.38 317.44,104.51 318.90,104.64 320.36,104.77 321.82,104.91 323.28,105.04 324.74,105.18 326.20,105.31 327.66,105.45 329.12,105.59 330.58,105.72 332.04,105.86 333.50,106.00 334.96,106.14 336.42,106.29 337.88,106.43 339.34,106.57 340.80,106.71 342.26,106.86 343.72,107.01 345.18,107.15 346.64,107.30 348.10,107.45 349.56,107.60 351.02,107.75 352.48,107.90 353.94,108.05 355.40,108.20 356.86,108.35 358.32,108.51 359.78,108.66 361.24,108.82 362.70,108.97 364.16,109.13 365.62,109.29 367.08,109.45 368.54,109.61 370.00,109.77 371.46,109.93 372.92,110.09 374.38,110.25 375.84,110.42 377.30,110.58 378.76,110.75 380.22,110.92 381.68,111.08 383.14,111.25 384.60,111.42 386.06,111.59 387.52,111.76 388.98,111.93 390.44,112.10 391.90,112.28 393.36,112.45 394.82,112.63 396.28,112.80 397.74,112.98 399.20,113.16 400.66,113.33 402.12,113.51 403.58,113.69 405.04,113.87 406.50,114.06 407.96,114.24 409.42,114.42 410.88,114.61 412.34,114.79 413.80,114.98 415.26,115.16 416.72,115.35 418.18,115.54 419.64,115.73 421.10,115.92 422.56,116.11 424.02,116.30 425.48,116.49 426.94,116.69 428.40,116.88 429.86,117.08 431.32,117.27 432.78,117.47 434.24,117.67 435.70,117.87 437.16,118.07 438.62,118.27 440.08,118.47 441.54,118.67 443.00,118.87 444.46,119.08 445.92,119.28 447.38,119.49 448.84,119.69 450.30,119.90 451.76,120.11 453.22,120.32 454.68,120.53 456.14,120.74 457.60,120.95 459.06,121.16 460.52,121.38 461.98,121.59 463.44,121.81 464.90,122.02 466.36,122.24 467.82,122.46 469.28,122.67 470.74,122.89 472.20,123.11 473.66,123.34 475.12,123.56 476.58,123.78 478.04,124.00 479.50,124.23 480.96,124.46 482.42,124.68 483.88,124.91 485.34,125.14 486.80,125.37 488.26,125.60 489.72,125.83 491.18,126.06 492.64,126.29 494.10,126.53 495.56,126.76 497.02,127.00 498.48,127.23 499.94,127.47 501.40,127.71 502.86,127.95 504.32,128.19 505.78,128.43 507.24,128.67 508.70,128.91 510.16,129.15 511.62,129.40 513.08,129.64 514.54,129.89 516.00,130.14 517.46,130.38 518.92,130.63 520.38,130.88 521.84,131.13 523.30,131.38 524.76,131.64 526.22,131.89 527.68,132.14 529.14,132.40 530.60,132.66 532.06,132.91 533.52,133.17 534.98,133.43 536.44,133.69 537.90,133.95 539.36,134.21 540.82,134.47 542.28,134.74 543.74,135.00 545.20,135.26 546.66,135.53 548.12,135.80 549.58,136.07 551.04,136.33 552.50,136.60 553.96,136.87 555.42,137.15 556.88,137.42 558.34,137.69 559.80,137.97 561.26,138.24 562.72,138.52 564.18,138.79 565.64,139.07 567.10,139.35 568.56,139.63 570.02,139.91 571.48,140.19 572.94,140.48 574.40,140.76 575.86,141.04 577.32,141.33 578.78,141.62 580.24,141.90 581.70,142.19 583.16,142.48 584.62,142.77 586.08,143.06 587.54,143.35 589.00,143.65 590.46,143.94 591.92,144.24 593.38,144.53 594.84,144.83 596.30,145.13 597.76,145.42 599.22,145.72 600.68,146.02 602.14,146.33 603.60,146.63 605.06,146.93 606.52,147.24 607.98,147.54 609.44,147.85 610.90,148.15 612.36,148.46 613.82,148.77 615.28,149.08 616.74,149.39 618.20,149.70 619.66,150.02 621.12,150.33 622.58,150.65 624.04,150.96 625.50,151.28 626.96,151.60 628.42,151.91 629.88,152.23 631.34,152.56 632.80,152.88 634.26,153.20 635.72,153.52 637.18,153.85 638.64,154.17 640.10,154.50 641.56,154.83 643.02,155.16 644.48,155.49 645.94,155.82 647.40,156.15 648.86,156.48 650.32,156.81 651.78,157.15 653.24,157.48 654.70,157.82 656.16,158.16 657.62,158.50 659.08,158.83 660.54,159.18 662.00,159.52 663.46,159.86 664.92,160.20 666.38,160.55 667.84,160.89 669.30,161.24 670.76,161.59 672.22,161.93 673.68,162.28 675.14,162.63 676.60,162.99 678.06,163.34 679.52,163.69 680.98,164.05 682.44,164.40 683.90,164.76 685.36,165.12 686.82,165.47 688.28,165.83 689.74,166.19 691.20,166.56 692.66,166.92 694.12,167.28 695.58,167.65 697.04,168.01 698.50,168.38 699.96,168.75 701.42,169.12 702.88,169.49 704.34,169.86 705.80,170.23 707.26,170.60 708.72,170.98 710.18,171.35 711.64,171.73 713.10,172.10 714.56,172.48 716.02,172.86 717.48,173.24 718.94,173.62 720.40,174.00 721.86,174.39 723.32,174.77 724.78,175.16 726.24,175.54 727.70,175.93 729.16,176.32 730.62,176.71 732.08,177.10 733.54,177.49 735.00,177.89 736.46,178.28 737.92,178.68 739.38,179.07 740.84,179.47 742.30,179.87 743.76,180.27 745.22,180.67 746.68,181.07 748.14,181.47 749.60,181.88 751.06,182.28 752.52,182.69 753.98,183.09 755.44,183.50 756.90,183.91 758.36,184.32 759.82,184.73 761.28,185.14 762.74,185.56 764.20,185.97 765.66,186.39 767.12,186.81 768.58,187.22 770.04,187.64 771.50,188.06 772.96,188.48 774.42,188.91 775.88,189.33 777.34,189.75 778.80,190.18 780.26,190.61 781.72,191.04 783.18,191.46 784.64,191.90 786.10,192.33 787.56,192.76 789.02,193.19 790.48,193.63 791.94,194.06 793.40,194.50 794.86,194.94 796.32,195.38 797.78,195.82 799.24,196.26 800.70,196.70 802.16,197.15 803.62,197.59 805.08,198.04 806.54,198.49 808.00,198.93 809.46,199.38 810.92,199.83 812.38,200.29 813.84,200.74 815.30,201.19 816.76,201.65 818.22,202.11 819.68,202.56 821.14,203.02 822.60,203.48 824.06,203.94 825.52,204.41 826.98,204.87 828.44,205.34 829.90,205.80 831.36,206.27 832.82,206.74 834.28,207.21 835.74,207.68 837.20,208.15 838.66,208.62 840.12,209.10 841.58,209.57 843.04,210.05 844.50,210.53 845.96,211.01 847.42,211.49 848.88,211.97 850.34,212.45 851.80,212.94 853.26,213.42 854.72,213.91 856.18,214.40 857.64,214.89 859.10,215.38 860.56,215.87 862.02,216.36 863.48,216.85 864.94,217.35 866.40,217.85 867.86,218.34 869.32,218.84 870.78,219.34 872.24,219.84 873.70,220.35 875.16,220.85 876.62,221.36 878.08,221.86 879.54,222.37 881.00,222.88 882.46,223.39 883.92,223.90 885.38,224.41 886.84,224.93 888.30,225.44 889.76,225.96 891.22,226.48 892.68,227.00 894.14,227.52 895.60,228.04 897.06,228.56 898.52,229.09 899.98,229.61 901.44,230.14 902.90,230.67 904.36,231.20 905.82,231.73 907.28,232.26 908.74,232.79 910.20,233.33 911.66,233.86 913.12,234.40 914.58,234.94 916.04,235.48 917.50,236.02 918.96,236.57 920.42,237.11 921.88,237.65 923.34,238.20 924.80,238.75 926.26,239.30 927.72,239.85 929.18,240.40 930.64,240.96 932.10,241.51 933.56,242.07 935.02,242.62 936.48,243.18 937.94,243.74 939.40,244.31 940.86,244.87 942.32,245.43 943.78,246.00 945.24,246.57 946.70,247.14 948.16,247.71 949.62,248.28 951.08,248.85 952.54,249.42 954.00,250.00" fill="none" stroke="rgb(178,24,43)" stroke-width="2.0" stroke-linejoin="round" stroke-linecap="round" />
<polyline points="78.00,93.82 79.46,93.82 80.92,93.82 82.38,93.83 83.84,93.83 85.30,93.84 86.76,93.85 88.22,93.86 89.68,93.87 91.14,93.88 92.60,93.90 94.06,93.91 95.52,93.93 96.98,93.95 98.44,93.97 99.90,94.00 101.36,94.02 102.82,94.05 104.28,94.07 105.74,94.10 107.20,94.13 108.66,94.17 110.12,94.20 111.58,94.24 113.04,94.27 114.50,94.31 115.96,94.35 117.42,94.39 118.88,94.44 120.34,94.48 121.80,94.53 123.26,94.58 124.72,94.63 126.18,94.68 127.64,94.73 129.10,94.79 130.56,94.84 132.02,94.90 133.48,94.96 134.94,95.02 136.40,95.08 137.86,95.15 139.32,95.21 140.78,95.28 142.24,95.35 143.70,95.42 145.16,95.49 146.62,95.56 148.08,95.64 149.54,95.72 151.00,95.79 152.46,95.87 153.92,95.96 155.38,96.04 156.84,96.12 158.30,96.21 159.76,96.30 161.22,96.39 162.68,96.48 164.14,96.57 165.60,96.67 167.06,96.76 168.52,96.86 169.98,96.96 171.44,97.06 172.90,97.16 174.36,97.26 175.82,97.37 177.28,97.48 178.74,97.58 180.20,97.69 181.66,97.81 183.12,97.92 184.58,98.03 186.04,98.15 187.50,98.27 188.96,98.39 190.42,98.51 191.88,98.63 193.34,98.76 194.80,98.88 196.26,99.01 197.72,99.14 199.18,99.27 200.64,99.40 202.10,99.54 203.56,99.67 205.02,99.81 206.48,99.95 207.94,100.09 209.40,100.23 210.86,100.37 212.32,100.52 213.78,100.67 215.24,100.81 216.70,100.96 218.16,101.12 219.62,101.27 221.08,101.42 222.54,101.58 224.00,101.74 225.46,101.90 226.92,102.06 228.38,102.22 229.84,102.39 231.30,102.55 232.76,102.72 234.22,102.89 235.68,103.06 237.14,103.23 238.60,103.41 240.06,103.58 241.52,103.76 242.98,103.94 244.44,104.12 245.90,104.30 247.36,104.48 248.82,104.67 250.28,104.86 251.74,105.04 253.20,105.23 254.66,105.43 256.12,105.62 257.58,105.81 259.04,106.01 260.50,106.21 261.96,106.41 263.42,106.61 264.88,106.81 266.34,107.02 267.80,107.22 269.26,107.43 270.72,107.64 272.18,107.85 273.64,108.06 275.10,108.28 276.56,108.50 278.02,108.71 279.48,108.93 280.94,109.15 282.40,109.38 283.86,109.60 285.32,109.82 286.78,110.05 288.24,110.28 289.70,110.51 291.16,110.74 292.62,110.98 294.08,111.21 295.54,111.45 297.00,111.69 298.46,111.93 299.92,112.17 301.38,112.41 302.84,112.66 304.30,112.91 305.76,113.16 307.22,113.41 308.68,113.66 310.14,113.91 311.60,114.17 313.06,114.42 314.52,114.68 315.98,114.94 317.44,115.20 318.90,115.47 320.36,115.73 321.82,116.00 323.28,116.27 324.74,116.53 326.20,116.81 327.66,117.08 329.12,117.35 330.58,117.63 332.04,117.91 333.50,118.19 334.96,118.47 336.42,118.75 337.88,119.04 339.34,119.32 340.80,119.61 342.26,119.90 343.72,120.19 345.18,120.49 346.64,120.78 348.10,121.08 349.56,121.37 351.02,121.67 352.48,121.97 353.94,122.28 355.40,122.58 356.86,122.89 358.32,123.20 359.78,123.51 361.24,123.82 362.70,124.13 364.16,124.44 365.62,124.76 367.08,125.08 368.54,125.40 370.00,125.72 371.46,126.04 372.92,126.37 374.38,126.69 375.84,127.02 377.30,127.35 378.76,127.68 380.22,128.01 381.68,128.35 383.14,128.68 384.60,129.02 386.06,129.36 387.52,129.70 388.98,130.05 390.44,130.39 391.90,130.74 393.36,131.08 394.82,131.43 396.28,131.79 397.74,132.14 399.20,132.49 400.66,132.85 402.12,133.21 403.58,133.57 405.04,133.93 406.50,134.29 407.96,134.66 409.42,135.02 410.88,135.39 412.34,135.76 413.80,136.13 415.26,136.51 416.72,136.88 418.18,137.26 419.64,137.64 421.10,138.02 422.56,138.40 424.02,138.78 425.48,139.17 426.94,139.56 428.40,139.95 429.86,140.34 431.32,140.73 432.78,141.12 434.24,141.52 435.70,141.92 437.16,142.31 438.62,142.71 440.08,143.12 441.54,143.52 443.00,143.93 444.46,144.34 445.92,144.74 447.38,145.16 448.84,145.57 450.30,145.98 451.76,146.40 453.22,146.82 454.68,147.24 456.14,147.66 457.60,148.08 459.06,148.51 460.52,148.93 461.98,149.36 463.44,149.79 464.90,150.23 466.36,150.66 467.82,151.09 469.28,151.53 470.74,151.97 472.20,152.41 473.66,152.85 475.12,153.30 476.58,153.74 478.04,154.19 479.50,154.64 480.96,155.09 482.42,155.55 483.88,156.00 485.34,156.46 486.80,156.92 488.26,157.38 489.72,157.84 491.18,158.30 492.64,158.77 494.10,159.23 495.56,159.70 497.02,160.17 498.48,160.65 499.94,161.12 501.40,161.60 502.86,162.07 504.32,162.55 505.78,163.03 507.24,163.52 508.70,164.00 510.16,164.49 511.62,164.98 513.08,165.47 514.54,165.96 516.00,166.45 517.46,166.95 518.92,167.45 520.38,167.95 521.84,168.45 523.30,168.95 524.76,169.46 526.22,169.96 527.68,170.47 529.14,170.98 530.60,171.49 532.06,172.01 533.52,172.52 534.98,173.04 536.44,173.56 537.90,174.08 539.36,174.60 540.82,175.13 542.28,175.65 543.74,176.18 545.20,176.71 546.66,177.24 548.12,177.78 549.58,178.31 551.04,178.85 552.50,179.39 553.96,179.93 555.42,180.47 556.88,181.02 558.34,181.57 559.80,182.11 561.26,182.66 562.72,183.22 564.18,183.77 565.64,184.33 567.10,184.88 568.56,185.44 570.02,186.01 571.48,186.57 572.94,187.13 574.40,187.70 575.86,188.27 577.32,188.84 578.78,189.41 580.24,189.99 581.70,190.56 583.16,191.14 584.62,191.72 586.08,192.31 587.54,192.89 589.00,193.47 590.46,194.06 591.92,194.65 593.38,195.24 594.84,195.84 596.30,196.43 597.76,197.03 599.22,197.63 600.68,198.23 602.14,198.83 603.60,199.44 605.06,200.04 606.52,200.65 607.98,201.26 609.44,201.88 610.90,202.49 612.36,203.11 613.82,203.72 615.28,204.34 616.74,204.97 618.20,205.59 619.66,206.22 621.12,206.84 622.58,207.47 624.04,208.11 625.50,208.74 626.96,209.37 628.42,210.01 629.88,210.65 631.34,211.29 632.80,211.94 634.26,212.58 635.72,213.23 637.18,213.88 638.64,214.53 640.10,215.18 641.56,215.84 643.02,216.49 644.48,217.15 645.94,217.81 647.40,218.48 648.86,219.14 650.32,219.81 651.78,220.48 653.24,221.15 654.70,221.82 656.16,222.50 657.62,223.17 659.08,223.85 660.54,224.53 662.00,225.21 663.46,225.90 664.92,226.59 666.38,227.27 667.84,227.97 669.30,228.66 670.76,229.35 672.22,230.05 673.68,230.75 675.14,231.45 676.60,232.15 678.06,232.86 679.52,233.56 680.98,234.27 682.44,234.98 683.90,235.70 685.36,236.41 686.82,237.13 688.28,237.85 689.74,238.57 691.20,239.29 692.66,240.02 694.12,240.75 695.58,241.47 697.04,242.21 698.50,242.94 699.96,243.68 701.42,244.41 702.88,245.15 704.34,245.89 705.80,246.64 707.26,247.38 708.72,248.13 710.18,248.88 711.64,249.63 713.10,250.39 714.56,251.14 716.02,251.90 717.48,252.66 718.94,253.43 720.40,254.19 721.86,254.96 723.32,255.73 724.78,256.50 726.24,257.27 727.70,258.05 729.16,258.82 730.62,259.60 732.08,260.39 733.54,261.17 735.00,261.96 736.46,262.74 737.92,263.53 739.38,264.33 740.84,265.12 742.30,265.92 743.76,266.72 745.22,267.52 746.68,268.32 748.14,269.13 749.60,269.93 751.06,270.74 752.52,271.55 753.98,272.37 755.44,273.18 756.90,274.00 758.36,274.82 759.82,275.65 761.28,276.47 762.74,277.30 764.20,278.13 765.66,278.96 767.12,279.79 768.58,280.63 770.04,281.47 771.50,282.31 772.96,283.15 774.42,284.00 775.88,284.84 777.34,285.69 778.80,286.54 780.26,287.40 781.72,288.25 783.18,289.11 784.64,289.97 786.10,290.83 787.56,291.70 789.02,292.57 790.48,293.44 791.94,294.31 793.40,295.18 794.86,296.06 796.32,296.94 797.78,297.82 799.24,298.70 800.70,299.59 802.16,300.48 803.62,301.37 805.08,302.26 806.54,303.15 808.00,304.05 809.46,304.95 810.92,305.85 812.38,306.75 813.84,307.66 815.30,308.57 816.76,309.48 818.22,310.39 819.68,311.31 821.14,312.23 822.60,313.15 824.06,314.07 825.52,315.00 826.98,315.92 828.44,316.85 829.90,317.79 831.36,318.72 832.82,319.66 834.28,320.60 835.74,321.54 837.20,322.48 838.66,323.43 840.12,324.38 841.58,325.33 843.04,326.28 844.50,327.24 845.96,328.20 847.42,329.16 848.88,330.12 850.34,331.09 851.80,332.06 853.26,333.03 854.72,334.00 856.18,334.97 857.64,335.95 859.10,336.93 860.56,337.92 862.02,338.90 863.48,339.89 864.94,340.88 866.40,341.87 867.86,342.87 869.32,343.87 870.78,344.87 872.24,345.87 873.70,346.87 875.16,347.88 876.62,348.89 878.08,349.91 879.54,350.92 881.00,351.94 882.46,352.96 883.92,353.98 885.38,355.01 886.84,356.04 888.30,357.07 889.76,358.10 891.22,359.14 892.68,360.17 894.14,361.22 895.60,362.26 897.06,363.31 898.52,364.35 899.98,365.41 901.44,366.46 902.90,367.52 904.36,368.58 905.82,369.64 907.28,370.70 908.74,371.77 910.20,372.84 911.66,373.91 913.12,374.99 914.58,376.06 916.04,377.14 917.50,378.23 918.96,379.31 920.42,380.40 921.88,381.49 923.34,382.59 924.80,383.68 926.26,384.78 927.72,385.88 929.18,386.99 930.64,388.09 932.10,389.20 933.56,390.32 935.02,391.43 936.48,392.55 937.94,393.67 939.40,394.79 940.86,395.92 942.32,397.05 943.78,398.18 945.24,399.32 946.70,400.45 948.16,401.59 949.62,402.74 951.08,403.88 952.54,405.03 954.00,406.18" fill="none" stroke="rgb(35,139,69)" stroke-width="2.0" stroke-linejoin="round" stroke-linecap="round" />
<line x1="784" y1="76" x2="818" y2="76" stroke="rgb(33,101,172)" stroke-width="3" />
<text x="828" y="76" font-family="Arial, sans-serif" font-size="14" dominant-baseline="middle">FIR</text>
<line x1="784" y1="100" x2="818" y2="100" stroke="rgb(178,24,43)" stroke-width="3" />
<text x="828" y="100" font-family="Arial, sans-serif" font-size="14" dominant-baseline="middle">Boxcar</text>
<line x1="784" y1="124" x2="818" y2="124" stroke="rgb(35,139,69)" stroke-width="3" />
<text x="828" y="124" font-family="Arial, sans-serif" font-size="14" dominant-baseline="middle">CIC</text>
<text x="516" y="548" font-family="Arial, sans-serif" font-size="15" text-anchor="middle">Frequency (kHz)</text>
<text transform="translate(22 273) rotate(-90)" font-family="Arial, sans-serif" font-size="15" text-anchor="middle">Amplitude response (dB)</text>
</svg>
