<?xml version="1.0" encoding="UTF-8"?>
<svg xmlns="http://www.w3.org/2000/svg" width="980" height="560" viewBox="0 0 980 560">
<rect width="100%" height="100%" fill="#ffffff" />
<text x="78" y="30" font-family="Arial, sans-serif" font-size="22" font-weight="700">Chirp Downconversion Filter Responses, decimation=625</text>
<rect x="78" y="54" width="876" height="438" fill="#fafafa" stroke="#222" stroke-width="1" />
<line x1="78.00" y1="54" x2="78.00" y2="492" stroke="#ddd" />
<text x="78.00" y="518" font-family="Arial, sans-serif" font-size="12" text-anchor="middle">0</text>
<line x1="187.50" y1="54" x2="187.50" y2="492" stroke="#ddd" />
<text x="187.50" y="518" font-family="Arial, sans-serif" font-size="12" text-anchor="middle">1.2e+02</text>
<line x1="297.00" y1="54" x2="297.00" y2="492" stroke="#ddd" />
<text x="297.00" y="518" font-family="Arial, sans-serif" font-size="12" text-anchor="middle">2.5e+02</text>
<line x1="406.50" y1="54" x2="406.50" y2="492" stroke="#ddd" />
<text x="406.50" y="518" font-family="Arial, sans-serif" font-size="12" text-anchor="middle">3.8e+02</text>
<line x1="516.00" y1="54" x2="516.00" y2="492" stroke="#ddd" />
<text x="516.00" y="518" font-family="Arial, sans-serif" font-size="12" text-anchor="middle">5e+02</text>
<line x1="625.50" y1="54" x2="625.50" y2="492" stroke="#ddd" />
<text x="625.50" y="518" font-family="Arial, sans-serif" font-size="12" text-anchor="middle">6.2e+02</text>
<line x1="735.00" y1="54" x2="735.00" y2="492" stroke="#ddd" />
<text x="735.00" y="518" font-family="Arial, sans-serif" font-size="12" text-anchor="middle">7.5e+02</text>
<line x1="844.50" y1="54" x2="844.50" y2="492" stroke="#ddd" />
<text x="844.50" y="518" font-family="Arial, sans-serif" font-size="12" text-anchor="middle">8.8e+02</text>
<line x1="954.00" y1="54" x2="954.00" y2="492" stroke="#ddd" />
<text x="954.00" y="518" font-family="Arial, sans-serif" font-size="12" text-anchor="middle">1e+03</text>
<line x1="78" y1="492.00" x2="954" y2="492.00" stroke="#ddd" />
<text x="68" y="492.00" font-family="Arial, sans-serif" font-size="12" text-anchor="end" dominant-baseline="middle">-100</text>
<line x1="78" y1="406.12" x2="954" y2="406.12" stroke="#ddd" />
<text x="68" y="406.12" font-family="Arial, sans-serif" font-size="12" text-anchor="end" dominant-baseline="middle">-80</text>
<line x1="78" y1="320.24" x2="954" y2="320.24" stroke="#ddd" />
<text x="68" y="320.24" font-family="Arial, sans-serif" font-size="12" text-anchor="end" dominant-baseline="middle">-60</text>
<line x1="78" y1="234.35" x2="954" y2="234.35" stroke="#ddd" />
<text x="68" y="234.35" font-family="Arial, sans-serif" font-size="12" text-anchor="end" dominant-baseline="middle">-40</text>
<line x1="78" y1="148.47" x2="954" y2="148.47" stroke="#ddd" />
<text x="68" y="148.47" font-family="Arial, sans-serif" font-size="12" text-anchor="end" dominant-baseline="middle">-20</text>
<line x1="78" y1="62.59" x2="954" y2="62.59" stroke="#ddd" />
<text x="68" y="62.59" font-family="Arial, sans-serif" font-size="12" text-anchor="end" dominant-baseline="middle">0</text>
<polyline points="78.00,62.59 78.73,62.59 79.46,62.61 80.19,62.64 80.92,62.67 81.65,62.72 82.38,62.79 83.11,62.86 83.84,62.95 84.57,63.05 85.30,63.16 86.03,63.29 86.76,63.43 87.49,63.59 88.22,63.77 88.95,63.97 89.68,64.19 90.41,64.42 91.14,64.68 91.87,64.96 92.60,65.27 93.33,65.60 94.06,65.96 94.79,66.35 95.52,66.76 96.25,67.20 96.98,67.68 97.71,68.19 98.44,68.73 99.17,69.31 99.90,69.93 100.63,70.58 101.36,71.27 102.09,72.01 102.82,72.78 103.55,73.60 104.28,74.46 105.01,75.37 105.74,76.33 106.47,77.34 107.20,78.39 107.93,79.50 108.66,80.66 109.39,81.88 110.12,83.16 110.85,84.49 111.58,85.88 112.31,87.34 113.04,88.85 113.77,90.44 114.50,92.09 115.23,93.81 115.96,95.60 116.69,97.47 117.42,99.41 118.15,101.43 118.88,103.54 119.61,105.73 120.34,108.01 121.07,110.38 121.80,112.84 122.53,115.41 123.26,118.08 123.99,120.86 124.72,123.75 125.45,126.77 126.18,129.91 126.91,133.19 127.64,136.62 128.37,140.19 129.10,143.94 129.83,147.86 130.56,151.97 131.29,156.30 132.02,160.85 132.75,165.67 133.48,170.77 134.21,176.20 134.94,182.00 135.67,188.25 136.40,195.02 137.13,202.43 137.86,210.65 138.59,219.93 139.32,230.68 140.05,243.67 140.78,260.46 141.51,285.54 142.24,348.36 142.97,311.75 143.70,283.62 144.43,270.48 145.16,262.80 145.89,258.05 146.62,255.17 147.35,253.64 148.08,253.15 148.81,253.53 149.54,254.67 150.27,256.50 151.00,259.00 151.73,262.16 152.46,266.03 153.19,270.66 153.92,276.16 154.65,282.71 155.38,290.60 156.11,300.34 156.84,312.91 157.57,330.66 158.30,361.81 159.03,423.24 159.76,353.11 160.49,332.33 161.22,320.68 161.95,313.15 162.68,308.04 163.41,304.58 164.14,302.35 164.87,301.10 165.60,300.68 166.33,301.00 167.06,302.00 167.79,303.66 168.52,305.98 169.25,308.98 169.98,312.73 170.71,317.31 171.44,322.88 172.17,329.68 172.90,338.14 173.63,349.04 174.36,364.08 175.09,388.31 175.82,463.06 176.55,403.27 177.28,375.67 178.01,361.37 178.74,352.22 179.47,345.92 180.20,341.47 180.93,338.37 181.66,336.32 182.39,335.15 183.12,334.75 183.85,335.04 184.58,336.00 185.31,337.60 186.04,339.87 186.77,342.84 187.50,346.58 188.23,351.22 188.96,356.92 189.69,364.00 190.42,372.98 191.15,384.90 191.88,402.24 192.61,434.12 193.34,480.39 194.07,419.04 194.80,398.33 195.53,386.20 196.26,378.05 196.99,372.28 197.72,368.12 198.45,365.18 199.18,363.22 199.91,362.08 200.64,361.68 201.37,361.96 202.10,362.89 202.83,364.47 203.56,366.71 204.29,369.68 205.02,373.44 205.75,378.13 206.48,383.95 207.21,391.26 207.94,400.67 208.67,413.45 209.40,432.86 210.13,473.85 210.86,476.95 211.59,436.38 212.32,418.53 213.05,407.49 213.78,399.87 214.51,394.37 215.24,390.38 215.97,387.53 216.70,385.61 217.43,384.49 218.16,384.08 218.89,384.35 219.62,385.26 220.35,386.82 221.08,389.06 221.81,392.02 222.54,395.80 223.27,400.54 224.00,406.47 224.73,413.96 225.46,423.72 226.19,437.21 226.92,458.48 227.65,492.00 228.38,485.92 229.11,452.74 229.84,436.46 230.57,426.06 231.30,418.76 232.03,413.44 232.76,409.54 233.49,406.74 234.22,404.85 234.95,403.73 235.68,403.33 236.41,403.58 237.14,404.48 237.87,406.03 238.60,408.26 239.33,411.23 240.06,415.02 240.79,419.80 241.52,425.81 242.25,433.45 242.98,443.50 243.71,457.58 244.44,480.50 245.17,492.00 245.90,492.00 246.63,467.81 247.36,452.51 248.09,442.52 248.82,435.43 249.55,430.23 250.28,426.40 251.01,423.64 251.74,421.75 252.47,420.64 253.20,420.23 253.93,420.47 254.66,421.36 255.39,422.90 256.12,425.13 256.85,428.09 257.58,431.90 258.31,436.72 259.04,442.79 259.77,450.55 260.50,460.83 261.23,475.42 261.96,492.00 262.69,492.00 263.42,492.00 264.15,481.65 264.88,467.01 265.61,457.31 266.34,450.37 267.07,445.26 267.80,441.47 268.53,438.72 269.26,436.85 269.99,435.74 270.72,435.32 271.45,435.55 272.18,436.43 272.91,437.96 273.64,440.18 274.37,443.15 275.10,446.97 275.83,451.81 276.56,457.93 277.29,465.80 278.02,476.26 278.75,491.27 279.48,492.00 280.21,492.00 280.94,492.00 281.67,492.00 282.40,480.23 283.13,470.74 283.86,463.91 284.59,458.85 285.32,455.10 286.05,452.37 286.78,450.50 287.51,449.38 288.24,448.96 288.97,449.18 289.70,450.05 290.43,451.57 291.16,453.79 291.89,456.75 292.62,460.58 293.35,465.44 294.08,471.61 294.81,479.55 295.54,490.18 296.27,492.00 297.00,492.00 297.73,492.00 298.46,492.00 299.19,492.00 299.92,492.00 300.65,483.04 301.38,476.30 302.11,471.28 302.84,467.55 303.57,464.83 304.30,462.96 305.03,461.84 305.76,461.41 306.49,461.62 307.22,462.48 307.95,464.00 308.68,466.20 309.41,469.17 310.14,473.00 310.87,477.88 311.60,484.08 312.33,492.00 313.06,492.00 313.79,492.00 314.52,492.00 315.25,492.00 315.98,492.00 316.71,492.00 317.44,492.00 318.17,492.00 318.90,487.72 319.63,482.74 320.36,479.02 321.09,476.30 321.82,474.43 322.55,473.31 323.28,472.87 324.01,473.07 324.74,473.93 325.47,475.43 326.20,477.63 326.93,480.59 327.66,484.43 328.39,489.32 329.12,492.00 329.85,492.00 330.58,492.00 331.31,492.00 332.04,492.00 332.77,492.00 333.50,492.00 334.23,492.00 334.96,492.00 335.69,492.00 336.42,492.00 337.15,492.00 337.88,489.65 338.61,486.94 339.34,485.06 340.07,483.93 340.80,483.48 341.53,483.68 342.26,484.53 342.99,486.02 343.72,488.22 344.45,491.18 345.18,492.00 345.91,492.00 346.64,492.00 347.37,492.00 348.10,492.00 348.83,492.00 349.56,492.00 350.29,492.00 351.02,492.00 351.75,492.00 352.48,492.00 353.21,492.00 353.94,492.00 354.67,492.00 355.40,492.00 356.13,492.00 356.86,492.00 357.59,492.00 358.32,492.00 359.05,492.00 359.78,492.00 360.51,492.00 361.24,492.00 361.97,492.00 362.70,492.00 363.43,492.00 364.16,492.00 364.89,492.00 365.62,492.00 366.35,492.00 367.08,492.00 367.81,492.00 368.54,492.00 369.27,492.00 370.00,492.00 370.73,492.00 371.46,492.00 372.19,492.00 372.92,492.00 373.65,492.00 374.38,492.00 375.11,492.00 375.84,492.00 376.57,492.00 377.30,492.00 378.03,492.00 378.76,492.00 379.49,492.00 380.22,492.00 380.95,492.00 381.68,492.00 382.41,492.00 383.14,492.00 383.87,492.00 384.60,492.00 385.33,492.00 386.06,492.00 386.79,492.00 387.52,492.00 388.25,492.00 388.98,492.00 389.71,492.00 390.44,492.00 391.17,492.00 391.90,492.00 392.63,492.00 393.36,492.00 394.09,492.00 394.82,492.00 395.55,492.00 396.28,492.00 397.01,492.00 397.74,492.00 398.47,492.00 399.20,492.00 399.93,492.00 400.66,492.00 401.39,492.00 402.12,492.00 402.85,492.00 403.58,492.00 404.31,492.00 405.04,492.00 405.77,492.00 406.50,492.00 407.23,492.00 407.96,492.00 408.69,492.00 409.42,492.00 410.15,492.00 410.88,492.00 411.61,492.00 412.34,492.00 413.07,492.00 413.80,492.00 414.53,492.00 415.26,492.00 415.99,492.00 416.72,492.00 417.45,492.00 418.18,492.00 418.91,492.00 419.64,492.00 420.37,492.00 421.10,492.00 421.83,492.00 422.56,492.00 423.29,492.00 424.02,492.00 424.75,492.00 425.48,492.00 426.21,492.00 426.94,492.00 427.67,492.00 428.40,492.00 429.13,492.00 429.86,492.00 430.59,492.00 431.32,492.00 432.05,492.00 432.78,492.00 433.51,492.00 434.24,492.00 434.97,492.00 435.70,492.00 436.43,492.00 437.16,492.00 437.89,492.00 438.62,492.00 439.35,492.00 440.08,492.00 440.81,492.00 441.54,492.00 442.27,492.00 443.00,492.00 443.73,492.00 444.46,492.00 445.19,492.00 445.92,492.00 446.65,492.00 447.38,492.00 448.11,492.00 448.84,492.00 449.57,492.00 450.30,492.00 451.03,492.00 451.76,492.00 452.49,492.00 453.22,492.00 453.95,492.00 454.68,492.00 455.41,492.00 456.14,492.00 456.87,492.00 457.60,492.00 458.33,492.00 459.06,492.00 459.79,492.00 460.52,492.00 461.25,492.00 461.98,492.00 462.71,492.00 463.44,492.00 464.17,492.00 464.90,492.00 465.63,492.00 466.36,492.00 467.09,492.00 467.82,492.00 468.55,492.00 469.28,492.00 470.01,492.00 470.74,492.00 471.47,492.00 472.20,492.00 472.93,492.00 473.66,492.00 474.39,492.00 475.12,492.00 475.85,492.00 476.58,492.00 477.31,492.00 478.04,492.00 478.77,492.00 479.50,492.00 480.23,492.00 480.96,492.00 481.69,492.00 482.42,492.00 483.15,492.00 483.88,492.00 484.61,492.00 485.34,492.00 486.07,492.00 486.80,492.00 487.53,492.00 488.26,492.00 488.99,492.00 489.72,492.00 490.45,492.00 491.18,492.00 491.91,492.00 492.64,492.00 493.37,492.00 494.10,492.00 494.83,492.00 495.56,492.00 496.29,492.00 497.02,492.00 497.75,492.00 498.48,492.00 499.21,492.00 499.94,492.00 500.67,492.00 501.40,492.00 502.13,492.00 502.86,492.00 503.59,492.00 504.32,492.00 505.05,492.00 505.78,492.00 506.51,492.00 507.24,492.00 507.97,492.00 508.70,492.00 509.43,492.00 510.16,492.00 510.89,492.00 511.62,492.00 512.35,492.00 513.08,492.00 513.81,492.00 514.54,492.00 515.27,492.00 516.00,492.00 516.73,492.00 517.46,492.00 518.19,492.00 518.92,492.00 519.65,492.00 520.38,492.00 521.11,492.00 521.84,492.00 522.57,492.00 523.30,492.00 524.03,492.00 524.76,492.00 525.49,492.00 526.22,492.00 526.95,492.00 527.68,492.00 528.41,492.00 529.14,492.00 529.87,492.00 530.60,492.00 531.33,492.00 532.06,492.00 532.79,492.00 533.52,492.00 534.25,492.00 534.98,492.00 535.71,492.00 536.44,492.00 537.17,492.00 537.90,492.00 538.63,492.00 539.36,492.00 540.09,492.00 540.82,492.00 541.55,492.00 542.28,492.00 543.01,492.00 543.74,492.00 544.47,492.00 545.20,492.00 545.93,492.00 546.66,492.00 547.39,492.00 548.12,492.00 548.85,492.00 549.58,492.00 550.31,492.00 551.04,492.00 551.77,492.00 552.50,492.00 553.23,492.00 553.96,492.00 554.69,492.00 555.42,492.00 556.15,492.00 556.88,492.00 557.61,492.00 558.34,492.00 559.07,492.00 559.80,492.00 560.53,492.00 561.26,492.00 561.99,492.00 562.72,492.00 563.45,492.00 564.18,492.00 564.91,492.00 565.64,492.00 566.37,492.00 567.10,492.00 567.83,492.00 568.56,492.00 569.29,492.00 570.02,492.00 570.75,492.00 571.48,492.00 572.21,492.00 572.94,492.00 573.67,492.00 574.40,492.00 575.13,492.00 575.86,492.00 576.59,492.00 577.32,492.00 578.05,492.00 578.78,492.00 579.51,492.00 580.24,492.00 580.97,492.00 581.70,492.00 582.43,492.00 583.16,492.00 583.89,492.00 584.62,492.00 585.35,492.00 586.08,492.00 586.81,492.00 587.54,492.00 588.27,492.00 589.00,492.00 589.73,492.00 590.46,492.00 591.19,492.00 591.92,492.00 592.65,492.00 593.38,492.00 594.11,492.00 594.84,492.00 595.57,492.00 596.30,492.00 597.03,492.00 597.76,492.00 598.49,492.00 599.22,492.00 599.95,492.00 600.68,492.00 601.41,492.00 602.14,492.00 602.87,492.00 603.60,492.00 604.33,492.00 605.06,492.00 605.79,492.00 606.52,492.00 607.25,492.00 607.98,492.00 608.71,492.00 609.44,492.00 610.17,492.00 610.90,492.00 611.63,492.00 612.36,492.00 613.09,492.00 613.82,492.00 614.55,492.00 615.28,492.00 616.01,492.00 616.74,492.00 617.47,492.00 618.20,492.00 618.93,492.00 619.66,492.00 620.39,492.00 621.12,492.00 621.85,492.00 622.58,492.00 623.31,492.00 624.04,492.00 624.77,492.00 625.50,492.00 626.23,492.00 626.96,492.00 627.69,492.00 628.42,492.00 629.15,492.00 629.88,492.00 630.61,492.00 631.34,492.00 632.07,492.00 632.80,492.00 633.53,492.00 634.26,492.00 634.99,492.00 635.72,492.00 636.45,492.00 637.18,492.00 637.91,492.00 638.64,492.00 639.37,492.00 640.10,492.00 640.83,492.00 641.56,492.00 642.29,492.00 643.02,492.00 643.75,492.00 644.48,492.00 645.21,492.00 645.94,492.00 646.67,492.00 647.40,492.00 648.13,492.00 648.86,492.00 649.59,492.00 650.32,492.00 651.05,492.00 651.78,492.00 652.51,492.00 653.24,492.00 653.97,492.00 654.70,492.00 655.43,492.00 656.16,492.00 656.89,492.00 657.62,492.00 658.35,492.00 659.08,492.00 659.81,492.00 660.54,492.00 661.27,492.00 662.00,492.00 662.73,492.00 663.46,492.00 664.19,492.00 664.92,492.00 665.65,492.00 666.38,492.00 667.11,492.00 667.84,492.00 668.57,492.00 669.30,492.00 670.03,492.00 670.76,492.00 671.49,492.00 672.22,492.00 672.95,492.00 673.68,492.00 674.41,492.00 675.14,492.00 675.87,492.00 676.60,492.00 677.33,492.00 678.06,492.00 678.79,492.00 679.52,492.00 680.25,492.00 680.98,492.00 681.71,492.00 682.44,492.00 683.17,492.00 683.90,492.00 684.63,492.00 685.36,492.00 686.09,492.00 686.82,492.00 687.55,492.00 688.28,492.00 689.01,492.00 689.74,492.00 690.47,492.00 691.20,492.00 691.93,492.00 692.66,492.00 693.39,492.00 694.12,492.00 694.85,492.00 695.58,492.00 696.31,492.00 697.04,492.00 697.77,492.00 698.50,492.00 699.23,492.00 699.96,492.00 700.69,492.00 701.42,492.00 702.15,492.00 702.88,492.00 703.61,492.00 704.34,492.00 705.07,492.00 705.80,492.00 706.53,492.00 707.26,492.00 707.99,492.00 708.72,492.00 709.45,492.00 710.18,492.00 710.91,492.00 711.64,492.00 712.37,492.00 713.10,492.00 713.83,492.00 714.56,492.00 715.29,492.00 716.02,492.00 716.75,492.00 717.48,492.00 718.21,492.00 718.94,492.00 719.67,492.00 720.40,492.00 721.13,492.00 721.86,492.00 722.59,492.00 723.32,492.00 724.05,492.00 724.78,492.00 725.51,492.00 726.24,492.00 726.97,492.00 727.70,492.00 728.43,492.00 729.16,492.00 729.89,492.00 730.62,492.00 731.35,492.00 732.08,492.00 732.81,492.00 733.54,492.00 734.27,492.00 735.00,492.00 735.73,492.00 736.46,492.00 737.19,492.00 737.92,492.00 738.65,492.00 739.38,492.00 740.11,492.00 740.84,492.00 741.57,492.00 742.30,492.00 743.03,492.00 743.76,492.00 744.49,492.00 745.22,492.00 745.95,492.00 746.68,492.00 747.41,492.00 748.14,492.00 748.87,492.00 749.60,492.00 750.33,492.00 751.06,492.00 751.79,492.00 752.52,492.00 753.25,492.00 753.98,492.00 754.71,492.00 755.44,492.00 756.17,492.00 756.90,492.00 757.63,492.00 758.36,492.00 759.09,492.00 759.82,492.00 760.55,492.00 761.28,492.00 762.01,492.00 762.74,492.00 763.47,492.00 764.20,492.00 764.93,492.00 765.66,492.00 766.39,492.00 767.12,492.00 767.85,492.00 768.58,492.00 769.31,492.00 770.04,492.00 770.77,492.00 771.50,492.00 772.23,492.00 772.96,492.00 773.69,492.00 774.42,492.00 775.15,492.00 775.88,492.00 776.61,492.00 777.34,492.00 778.07,492.00 778.80,492.00 779.53,492.00 780.26,492.00 780.99,492.00 781.72,492.00 782.45,492.00 783.18,492.00 783.91,492.00 784.64,492.00 785.37,492.00 786.10,492.00 786.83,492.00 787.56,492.00 788.29,492.00 789.02,492.00 789.75,492.00 790.48,492.00 791.21,492.00 791.94,492.00 792.67,492.00 793.40,492.00 794.13,492.00 794.86,492.00 795.59,492.00 796.32,492.00 797.05,492.00 797.78,492.00 798.51,492.00 799.24,492.00 799.97,492.00 800.70,492.00 801.43,492.00 802.16,492.00 802.89,492.00 803.62,492.00 804.35,492.00 805.08,492.00 805.81,492.00 806.54,492.00 807.27,492.00 808.00,492.00 808.73,492.00 809.46,492.00 810.19,492.00 810.92,492.00 811.65,492.00 812.38,492.00 813.11,492.00 813.84,492.00 814.57,492.00 815.30,492.00 816.03,492.00 816.76,492.00 817.49,492.00 818.22,492.00 818.95,492.00 819.68,492.00 820.41,492.00 821.14,492.00 821.87,492.00 822.60,492.00 823.33,492.00 824.06,492.00 824.79,492.00 825.52,492.00 826.25,492.00 826.98,492.00 827.71,492.00 828.44,492.00 829.17,492.00 829.90,492.00 830.63,492.00 831.36,492.00 832.09,492.00 832.82,492.00 833.55,492.00 834.28,492.00 835.01,492.00 835.74,492.00 836.47,492.00 837.20,492.00 837.93,492.00 838.66,492.00 839.39,492.00 840.12,492.00 840.85,492.00 841.58,492.00 842.31,492.00 843.04,492.00 843.77,492.00 844.50,492.00 845.23,492.00 845.96,492.00 846.69,492.00 847.42,492.00 848.15,492.00 848.88,492.00 849.61,492.00 850.34,492.00 851.07,492.00 851.80,492.00 852.53,492.00 853.26,492.00 853.99,492.00 854.72,492.00 855.45,492.00 856.18,492.00 856.91,492.00 857.64,492.00 858.37,492.00 859.10,492.00 859.83,492.00 860.56,492.00 861.29,492.00 862.02,492.00 862.75,492.00 863.48,492.00 864.21,492.00 864.94,492.00 865.67,492.00 866.40,492.00 867.13,492.00 867.86,492.00 868.59,492.00 869.32,492.00 870.05,492.00 870.78,492.00 871.51,492.00 872.24,492.00 872.97,492.00 873.70,492.00 874.43,492.00 875.16,492.00 875.89,492.00 876.62,492.00 877.35,492.00 878.08,492.00 878.81,492.00 879.54,492.00 880.27,492.00 881.00,492.00 881.73,492.00 882.46,492.00 883.19,492.00 883.92,492.00 884.65,492.00 885.38,492.00 886.11,492.00 886.84,492.00 887.57,492.00 888.30,492.00 889.03,492.00 889.76,492.00 890.49,492.00 891.22,492.00 891.95,492.00 892.68,492.00 893.41,492.00 894.14,492.00 894.87,492.00 895.60,492.00 896.33,492.00 897.06,492.00 897.79,492.00 898.52,492.00 899.25,492.00 899.98,492.00 900.71,492.00 901.44,492.00 902.17,492.00 902.90,492.00 903.63,492.00 904.36,492.00 905.09,492.00 905.82,492.00 906.55,492.00 907.28,492.00 908.01,492.00 908.74,492.00 909.47,492.00 910.20,492.00 910.93,492.00 911.66,492.00 912.39,492.00 913.12,492.00 913.85,492.00 914.58,492.00 915.31,492.00 916.04,492.00 916.77,492.00 917.50,492.00 918.23,492.00 918.96,492.00 919.69,492.00 920.42,492.00 921.15,492.00 921.88,492.00 922.61,492.00 923.34,492.00 924.07,492.00 924.80,492.00 925.53,492.00 926.26,492.00 926.99,492.00 927.72,492.00 928.45,492.00 929.18,492.00 929.91,492.00 930.64,492.00 931.37,492.00 932.10,492.00 932.83,492.00 933.56,492.00 934.29,492.00 935.02,492.00 935.75,492.00 936.48,492.00 937.21,492.00 937.94,492.00 938.67,492.00 939.40,492.00 940.13,492.00 940.86,492.00 941.59,492.00 942.32,492.00 943.05,492.00 943.78,492.00 944.51,492.00 945.24,492.00 945.97,492.00 946.70,492.00 947.43,492.00 948.16,492.00 948.89,492.00 949.62,492.00 950.35,492.00 951.08,492.00 951.81,492.00 952.54,492.00 953.27,492.00 954.00,492.00" fill="none" stroke="rgb(33,101,172)" stroke-width="2.0" stroke-linejoin="round" stroke-linecap="round" />
<polyline points="78.00,62.59 78.73,62.61 79.46,62.69 80.19,62.83 80.92,63.02 81.65,63.26 82.38,63.55 83.11,63.90 83.84,64.31 84.57,64.77 85.30,65.29 86.03,65.87 86.76,66.50 87.49,67.20 88.22,67.96 88.95,68.78 89.68,69.67 90.41,70.63 91.14,71.65 91.87,72.75 92.60,73.92 93.33,75.17 94.06,76.51 94.79,77.92 95.52,79.43 96.25,81.03 96.98,82.74 97.71,84.55 98.44,86.47 99.17,88.52 99.90,90.71 100.63,93.04 101.36,95.53 102.09,98.19 102.82,101.06 103.55,104.14 104.28,107.48 105.01,111.11 105.74,115.08 106.47,119.46 107.20,124.34 107.93,129.83 108.66,136.13 109.39,143.51 110.12,152.45 110.85,163.83 111.58,179.64 112.31,206.22 113.04,492.00 113.77,207.77 114.50,182.75 115.23,168.50 115.96,158.68 116.69,151.31 117.42,145.50 118.15,140.79 118.88,136.89 119.61,133.62 120.34,130.85 121.07,128.52 121.80,126.53 122.53,124.86 123.26,123.46 123.99,122.31 124.72,121.38 125.45,120.65 126.18,120.12 126.91,119.76 127.64,119.57 128.37,119.54 129.10,119.68 129.83,119.97 130.56,120.41 131.29,121.00 132.02,121.75 132.75,122.65 133.48,123.72 134.21,124.95 134.94,126.35 135.67,127.93 136.40,129.70 137.13,131.68 137.86,133.89 138.59,136.35 139.32,139.08 140.05,142.13 140.78,145.55 141.51,149.39 142.24,153.75 142.97,158.74 143.70,164.56 144.43,171.47 145.16,179.96 145.89,190.91 146.62,206.30 147.35,232.47 148.08,492.00 148.81,233.24 149.54,207.85 150.27,193.24 151.00,183.07 151.73,175.36 152.46,169.22 153.19,164.19 153.92,159.98 154.65,156.40 155.38,153.35 156.11,150.72 156.84,148.46 157.57,146.51 158.30,144.85 159.03,143.44 159.76,142.25 160.49,141.28 161.22,140.50 161.95,139.91 162.68,139.49 163.41,139.24 164.14,139.15 164.87,139.23 165.60,139.46 166.33,139.85 167.06,140.40 167.79,141.10 168.52,141.98 169.25,143.02 169.98,144.23 170.71,145.63 171.44,147.23 172.17,149.04 172.90,151.08 173.63,153.37 174.36,155.94 175.09,158.83 175.82,162.09 176.55,165.77 177.28,169.98 178.01,174.83 178.74,180.50 179.47,187.27 180.20,195.62 180.93,206.43 181.66,221.68 182.39,247.72 183.12,492.00 183.85,248.24 184.58,222.72 185.31,207.98 186.04,197.69 186.77,189.86 187.50,183.61 188.23,178.46 188.96,174.13 189.69,170.44 190.42,167.28 191.15,164.54 191.88,162.17 192.61,160.12 193.34,158.35 194.07,156.84 194.80,155.55 195.53,154.48 196.26,153.61 196.99,152.92 197.72,152.40 198.45,152.06 199.18,151.88 199.91,151.87 200.64,152.01 201.37,152.31 202.10,152.77 202.83,153.39 203.56,154.18 204.29,155.14 205.02,156.27 205.75,157.59 206.48,159.11 207.21,160.84 207.94,162.80 208.67,165.01 209.40,167.51 210.13,170.32 210.86,173.51 211.59,177.12 212.32,181.25 213.05,186.03 213.78,191.63 214.51,198.34 215.24,206.62 215.97,217.36 216.70,232.54 217.43,258.51 218.16,492.00 218.89,258.90 219.62,233.32 220.35,218.52 221.08,208.17 221.81,200.28 222.54,193.96 223.27,188.75 224.00,184.36 224.73,180.62 225.46,177.39 226.19,174.60 226.92,172.18 227.65,170.07 228.38,168.25 229.11,166.68 229.84,165.34 230.57,164.21 231.30,163.28 232.03,162.54 232.76,161.98 233.49,161.58 234.22,161.35 234.95,161.29 235.68,161.38 236.41,161.63 237.14,162.05 237.87,162.62 238.60,163.36 239.33,164.27 240.06,165.36 240.79,166.63 241.52,168.10 242.25,169.79 242.98,171.70 243.71,173.87 244.44,176.32 245.17,179.10 245.90,182.24 246.63,185.81 247.36,189.90 248.09,194.63 248.82,200.19 249.55,206.86 250.28,215.10 251.01,225.80 251.74,240.94 252.47,266.87 253.20,492.00 253.93,267.18 254.66,241.57 255.39,226.73 256.12,216.34 256.85,208.41 257.58,202.06 258.31,196.81 259.04,192.39 259.77,188.61 260.50,185.34 261.23,182.52 261.96,180.06 262.69,177.92 263.42,176.06 264.15,174.45 264.88,173.08 265.61,171.92 266.34,170.96 267.07,170.18 267.80,169.59 268.53,169.16 269.26,168.90 269.99,168.80 270.72,168.86 271.45,169.08 272.18,169.47 272.91,170.01 273.64,170.72 274.37,171.60 275.10,172.65 275.83,173.90 276.56,175.34 277.29,177.00 278.02,178.88 278.75,181.02 279.48,183.45 280.21,186.19 280.94,189.30 281.67,192.85 282.40,196.91 283.13,201.62 283.86,207.15 284.59,213.79 285.32,222.00 286.05,232.67 286.78,247.79 287.51,273.70 288.24,492.00 288.97,273.96 289.70,248.31 290.43,233.45 291.16,223.04 291.89,215.08 292.62,208.70 293.35,203.43 294.08,198.98 294.81,195.18 295.54,191.89 296.27,189.04 297.00,186.56 297.73,184.39 298.46,182.51 299.19,180.89 299.92,179.49 300.65,178.31 301.38,177.32 302.11,176.52 302.84,175.90 303.57,175.46 304.30,175.17 305.03,175.05 305.76,175.09 306.49,175.29 307.22,175.65 307.95,176.17 308.68,176.86 309.41,177.72 310.14,178.76 310.87,179.98 311.60,181.40 312.33,183.04 313.06,184.90 313.79,187.02 314.52,189.43 315.25,192.15 315.98,195.24 316.71,198.77 317.44,202.81 318.17,207.50 318.90,213.01 319.63,219.63 320.36,227.82 321.09,238.48 321.82,253.58 322.55,279.46 323.28,492.00 324.01,279.69 324.74,254.02 325.47,239.14 326.20,228.71 326.93,220.74 327.66,214.34 328.39,209.05 329.12,204.59 329.85,200.76 330.58,197.46 331.31,194.59 332.04,192.09 332.77,189.91 333.50,188.01 334.23,186.37 334.96,184.96 335.69,183.76 336.42,182.75 337.15,181.94 337.88,181.30 338.61,180.84 339.34,180.54 340.07,180.40 340.80,180.43 341.53,180.61 342.26,180.96 342.99,181.46 343.72,182.13 344.45,182.98 345.18,184.00 345.91,185.21 346.64,186.61 347.37,188.23 348.10,190.08 348.83,192.19 349.56,194.58 350.29,197.29 351.02,200.36 351.75,203.87 352.48,207.90 353.21,212.58 353.94,218.07 354.67,224.68 355.40,232.86 356.13,243.50 356.86,258.59 357.59,284.46 358.32,492.00 359.05,284.65 359.78,258.97 360.51,244.08 361.24,233.63 361.97,225.65 362.70,219.24 363.43,213.94 364.16,209.46 364.89,205.62 365.62,202.30 366.35,199.42 367.08,196.91 367.81,194.71 368.54,192.80 369.27,191.15 370.00,189.72 370.73,188.51 371.46,187.49 372.19,186.67 372.92,186.02 373.65,185.54 374.38,185.23 375.11,185.08 375.84,185.09 376.57,185.27 377.30,185.60 378.03,186.09 378.76,186.75 379.49,187.58 380.22,188.59 380.95,189.79 381.68,191.18 382.41,192.79 383.14,194.63 383.87,196.72 384.60,199.10 385.33,201.80 386.06,204.86 386.79,208.36 387.52,212.38 388.25,217.04 388.98,222.53 389.71,229.12 390.44,237.29 391.17,247.92 391.90,263.00 392.63,288.86 393.36,492.00 394.09,289.03 394.82,263.34 395.55,248.44 396.28,237.98 397.01,229.98 397.74,223.57 398.47,218.25 399.20,213.76 399.93,209.92 400.66,206.59 401.39,203.70 402.12,201.17 402.85,198.97 403.58,197.05 404.31,195.38 405.04,193.95 405.77,192.72 406.50,191.70 407.23,190.86 407.96,190.20 408.69,189.72 409.42,189.40 410.15,189.24 410.88,189.24 411.61,189.40 412.34,189.72 413.07,190.21 413.80,190.86 414.53,191.68 415.26,192.68 415.99,193.87 416.72,195.25 417.45,196.85 418.18,198.68 418.91,200.77 419.64,203.13 420.37,205.82 421.10,208.88 421.83,212.37 422.56,216.38 423.29,221.03 424.02,226.51 424.75,233.09 425.48,241.25 426.21,251.87 426.94,266.94 427.67,292.79 428.40,492.00 429.13,292.95 429.86,267.25 430.59,252.34 431.32,241.87 432.05,233.87 432.78,227.44 433.51,222.12 434.24,217.62 434.97,213.77 435.70,210.43 436.43,207.53 437.16,205.00 437.89,202.79 438.62,200.86 439.35,199.18 440.08,197.74 440.81,196.51 441.54,195.48 442.27,194.63 443.00,193.97 443.73,193.47 444.46,193.14 445.19,192.98 445.92,192.97 446.65,193.12 447.38,193.44 448.11,193.91 448.84,194.56 449.57,195.37 450.30,196.36 451.03,197.54 451.76,198.92 452.49,200.51 453.22,202.34 453.95,204.41 454.68,206.77 455.41,209.45 456.14,212.50 456.87,215.98 457.60,219.99 458.33,224.63 459.06,230.10 459.79,236.68 460.52,244.83 461.25,255.45 461.98,270.51 462.71,296.35 463.44,492.00 464.17,296.49 464.90,270.79 465.63,255.87 466.36,245.40 467.09,237.39 467.82,230.95 468.55,225.62 469.28,221.12 470.01,217.26 470.74,213.91 471.47,211.01 472.20,208.47 472.93,206.25 473.66,204.31 474.39,202.63 475.12,201.18 475.85,199.94 476.58,198.90 477.31,198.05 478.04,197.38 478.77,196.88 479.50,196.54 480.23,196.37 480.96,196.36 481.69,196.51 482.42,196.81 483.15,197.28 483.88,197.92 484.61,198.73 485.34,199.71 486.07,200.89 486.80,202.26 487.53,203.85 488.26,205.66 488.99,207.73 489.72,210.09 490.45,212.76 491.18,215.80 491.91,219.28 492.64,223.28 493.37,227.92 494.10,233.38 494.83,239.95 495.56,248.10 496.29,258.71 497.02,273.76 497.75,299.60 498.48,492.00 499.21,299.73 499.94,274.02 500.67,259.09 501.40,248.62 502.13,240.60 502.86,234.16 503.59,228.82 504.32,224.31 505.05,220.44 505.78,217.10 506.51,214.18 507.24,211.64 507.97,209.41 508.70,207.47 509.43,205.79 510.16,204.33 510.89,203.09 511.62,202.04 512.35,201.19 513.08,200.51 513.81,200.00 514.54,199.66 515.27,199.48 516.00,199.47 516.73,199.61 517.46,199.91 518.19,200.37 518.92,201.01 519.65,201.81 520.38,202.79 521.11,203.96 521.84,205.32 522.57,206.90 523.30,208.72 524.03,210.78 524.76,213.13 525.49,215.80 526.22,218.84 526.95,222.31 527.68,226.30 528.41,230.93 529.14,236.39 529.87,242.96 530.60,251.10 531.33,261.70 532.06,276.75 532.79,302.59 533.52,492.00 534.25,302.70 534.98,276.99 535.71,262.06 536.44,251.58 537.17,243.55 537.90,237.11 538.63,231.77 539.36,227.25 540.09,223.38 540.82,220.03 541.55,217.11 542.28,214.56 543.01,212.33 543.74,210.39 544.47,208.69 545.20,207.23 545.93,205.99 546.66,204.94 547.39,204.08 548.12,203.39 548.85,202.88 549.58,202.54 550.31,202.35 551.04,202.33 551.77,202.47 552.50,202.77 553.23,203.23 553.96,203.85 554.69,204.65 555.42,205.63 556.15,206.79 556.88,208.15 557.61,209.73 558.34,211.54 559.07,213.60 559.80,215.94 560.53,218.61 561.26,221.64 561.99,225.11 562.72,229.09 563.45,233.72 564.18,239.18 564.91,245.74 565.64,253.88 566.37,264.48 567.10,279.52 567.83,305.35 568.56,492.00 569.29,305.46 570.02,279.74 570.75,264.81 571.48,254.32 572.21,246.29 572.94,239.84 573.67,234.50 574.40,229.98 575.13,226.10 575.86,222.75 576.59,219.83 577.32,217.27 578.05,215.04 578.78,213.09 579.51,211.39 580.24,209.93 580.97,208.68 581.70,207.62 582.43,206.76 583.16,206.07 583.89,205.56 584.62,205.21 585.35,205.02 586.08,204.99 586.81,205.13 587.54,205.42 588.27,205.88 589.00,206.50 589.73,207.29 590.46,208.27 591.19,209.42 591.92,210.78 592.65,212.35 593.38,214.16 594.11,216.22 594.84,218.56 595.57,221.22 596.30,224.25 597.03,227.71 597.76,231.69 598.49,236.32 599.22,241.77 599.95,248.33 600.68,256.46 601.41,267.06 602.14,282.10 602.87,307.92 603.60,492.00 604.33,308.03 605.06,282.30 605.79,267.37 606.52,256.87 607.25,248.84 607.98,242.39 608.71,237.04 609.44,232.52 610.17,228.64 610.90,225.28 611.63,222.35 612.36,219.80 613.09,217.56 613.82,215.61 614.55,213.91 615.28,212.44 616.01,211.18 616.74,210.13 617.47,209.26 618.20,208.57 618.93,208.05 619.66,207.70 620.39,207.51 621.12,207.48 621.85,207.61 622.58,207.90 623.31,208.35 624.04,208.97 624.77,209.76 625.50,210.73 626.23,211.88 626.96,213.24 627.69,214.81 628.42,216.61 629.15,218.66 629.88,221.00 630.61,223.66 631.34,226.68 632.07,230.14 632.80,234.12 633.53,238.74 634.26,244.19 634.99,250.75 635.72,258.88 636.45,269.47 637.18,284.51 637.91,310.33 638.64,492.00 639.37,310.42 640.10,284.70 640.83,269.76 641.56,259.26 642.29,251.23 643.02,244.77 643.75,239.42 644.48,234.90 645.21,231.01 645.94,227.65 646.67,224.72 647.40,222.16 648.13,219.92 648.86,217.96 649.59,216.26 650.32,214.79 651.05,213.53 651.78,212.47 652.51,211.60 653.24,210.91 653.97,210.38 654.70,210.03 655.43,209.84 656.16,209.80 656.89,209.93 657.62,210.22 658.35,210.67 659.08,211.28 659.81,212.07 660.54,213.04 661.27,214.19 662.00,215.54 662.73,217.11 663.46,218.90 664.19,220.95 664.92,223.29 665.65,225.94 666.38,228.97 667.11,232.42 667.84,236.40 668.57,241.02 669.30,246.47 670.03,253.02 670.76,261.14 671.49,271.73 672.22,286.77 672.95,312.59 673.68,492.00 674.41,312.68 675.14,286.95 675.87,272.01 676.60,261.51 677.33,253.47 678.06,247.01 678.79,241.66 679.52,237.13 680.25,233.24 680.98,229.88 681.71,226.95 682.44,224.38 683.17,222.14 683.90,220.18 684.63,218.47 685.36,217.00 686.09,215.74 686.82,214.68 687.55,213.80 688.28,213.11 689.01,212.58 689.74,212.22 690.47,212.03 691.20,211.99 691.93,212.12 692.66,212.40 693.39,212.85 694.12,213.46 694.85,214.25 695.58,215.21 696.31,216.36 697.04,217.71 697.77,219.27 698.50,221.07 699.23,223.11 699.96,225.45 700.69,228.10 701.42,231.12 702.15,234.57 702.88,238.55 703.61,243.16 704.34,248.61 705.07,255.16 705.80,263.28 706.53,273.87 707.26,288.90 707.99,314.72 708.72,492.00 709.45,314.80 710.18,289.07 710.91,274.12 711.64,263.62 712.37,255.59 713.10,249.12 713.83,243.77 714.56,239.24 715.29,235.35 716.02,231.98 716.75,229.05 717.48,226.48 718.21,224.23 718.94,222.27 719.67,220.56 720.40,219.09 721.13,217.82 721.86,216.76 722.59,215.88 723.32,215.18 724.05,214.66 724.78,214.30 725.51,214.10 726.24,214.06 726.97,214.18 727.70,214.46 728.43,214.91 729.16,215.52 729.89,216.30 730.62,217.26 731.35,218.41 732.08,219.76 732.81,221.32 733.54,223.11 734.27,225.16 735.00,227.48 735.73,230.13 736.46,233.15 737.19,236.60 737.92,240.58 738.65,245.19 739.38,250.63 740.11,257.18 740.84,265.30 741.57,275.88 742.30,290.91 743.03,316.73 743.76,492.00 744.49,316.81 745.22,291.08 745.95,276.13 746.68,265.63 747.41,257.59 748.14,251.12 748.87,245.76 749.60,241.23 750.33,237.34 751.06,233.97 751.79,231.03 752.52,228.46 753.25,226.22 753.98,224.25 754.71,222.54 755.44,221.06 756.17,219.80 756.90,218.73 757.63,217.85 758.36,217.15 759.09,216.62 759.82,216.26 760.55,216.06 761.28,216.02 762.01,216.14 762.74,216.42 763.47,216.86 764.20,217.47 764.93,218.25 765.66,219.21 766.39,220.35 767.12,221.70 767.85,223.26 768.58,225.05 769.31,227.09 770.04,229.42 770.77,232.06 771.50,235.08 772.23,238.53 772.96,242.50 773.69,247.11 774.42,252.55 775.15,259.09 775.88,267.22 776.61,277.80 777.34,292.83 778.07,318.64 778.80,492.00 779.53,318.72 780.26,292.98 780.99,278.03 781.72,267.53 782.45,259.48 783.18,253.02 783.91,247.65 784.64,243.12 785.37,239.23 786.10,235.85 786.83,232.92 787.56,230.35 788.29,228.10 789.02,226.13 789.75,224.42 790.48,222.94 791.21,221.67 791.94,220.60 792.67,219.72 793.40,219.02 794.13,218.49 794.86,218.12 795.59,217.92 796.32,217.88 797.05,217.99 797.78,218.27 798.51,218.71 799.24,219.32 799.97,220.10 800.70,221.05 801.43,222.20 802.16,223.54 802.89,225.10 803.62,226.88 804.35,228.93 805.08,231.25 805.81,233.90 806.54,236.91 807.27,240.36 808.00,244.33 808.73,248.94 809.46,254.38 810.19,260.92 810.92,269.04 811.65,279.62 812.38,294.64 813.11,320.45 813.84,492.00 814.57,320.53 815.30,294.79 816.03,279.84 816.76,269.33 817.49,261.29 818.22,254.82 818.95,249.46 819.68,244.92 820.41,241.02 821.14,237.65 821.87,234.71 822.60,232.14 823.33,229.89 824.06,227.92 824.79,226.20 825.52,224.72 826.25,223.45 826.98,222.38 827.71,221.50 828.44,220.79 829.17,220.26 829.90,219.89 830.63,219.69 831.36,219.64 832.09,219.76 832.82,220.04 833.55,220.48 834.28,221.08 835.01,221.86 835.74,222.81 836.47,223.96 837.20,225.30 837.93,226.85 838.66,228.64 839.39,230.68 840.12,233.00 840.85,235.64 841.58,238.66 842.31,242.10 843.04,246.07 843.77,250.68 844.50,256.11 845.23,262.65 845.96,270.77 846.69,281.35 847.42,296.37 848.15,322.18 848.88,492.00 849.61,322.25 850.34,296.52 851.07,281.56 851.80,271.05 852.53,263.01 853.26,256.54 853.99,251.17 854.72,246.63 855.45,242.74 856.18,239.36 856.91,236.42 857.64,233.85 858.37,231.59 859.10,229.62 859.83,227.91 860.56,226.42 861.29,225.15 862.02,224.08 862.75,223.20 863.48,222.49 864.21,221.95 864.94,221.59 865.67,221.38 866.40,221.33 867.13,221.45 867.86,221.72 868.59,222.16 869.32,222.76 870.05,223.54 870.78,224.49 871.51,225.63 872.24,226.97 872.97,228.53 873.70,230.31 874.43,232.35 875.16,234.67 875.89,237.31 876.62,240.32 877.35,243.77 878.08,247.73 878.81,252.34 879.54,257.77 880.27,264.31 881.00,272.43 881.73,283.01 882.46,298.03 883.19,323.84 883.92,492.00 884.65,323.90 885.38,298.16 886.11,283.21 886.84,272.70 887.57,264.65 888.30,258.18 889.03,252.81 889.76,248.27 890.49,244.37 891.22,241.00 891.95,238.05 892.68,235.48 893.41,233.22 894.14,231.25 894.87,229.53 895.60,228.05 896.33,226.78 897.06,225.70 897.79,224.82 898.52,224.11 899.25,223.57 899.98,223.20 900.71,223.00 901.44,222.95 902.17,223.06 902.90,223.33 903.63,223.77 904.36,224.37 905.09,225.15 905.82,226.10 906.55,227.24 907.28,228.58 908.01,230.13 908.74,231.91 909.47,233.95 910.20,236.27 910.93,238.91 911.66,241.92 912.39,245.36 913.12,249.32 913.85,253.93 914.58,259.36 915.31,265.90 916.04,274.01 916.77,284.59 917.50,299.61 918.23,325.42 918.96,492.00 919.69,325.48 920.42,299.74 921.15,284.78 921.88,274.27 922.61,266.22 923.34,259.75 924.07,254.38 924.80,249.84 925.53,245.94 926.26,242.56 926.99,239.62 927.72,237.04 928.45,234.79 929.18,232.81 929.91,231.09 930.64,229.61 931.37,228.33 932.10,227.26 932.83,226.37 933.56,225.66 934.29,225.12 935.02,224.75 935.75,224.54 936.48,224.50 937.21,224.61 937.94,224.88 938.67,225.31 939.40,225.91 940.13,226.69 940.86,227.64 941.59,228.77 942.32,230.11 943.05,231.66 943.78,233.44 944.51,235.48 945.24,237.80 945.97,240.44 946.70,243.45 947.43,246.89 948.16,250.85 948.89,255.46 949.62,260.89 950.35,267.42 951.08,275.53 951.81,286.11 952.54,301.13 953.27,326.93 954.00,492.00" fill="none" stroke="rgb(178,24,43)" stroke-width="2.0" stroke-linejoin="round" stroke-linecap="round" />
<polyline points="78.00,62.59 78.73,62.64 79.46,62.80 80.19,63.07 80.92,63.44 81.65,63.92 82.38,64.52 83.11,65.22 83.84,66.03 84.57,66.95 85.30,67.99 86.03,69.15 86.76,70.42 87.49,71.82 88.22,73.34 88.95,74.98 89.68,76.76 90.41,78.67 91.14,80.72 91.87,82.92 92.60,85.26 93.33,87.76 94.06,90.42 94.79,93.26 95.52,96.27 96.25,99.48 96.98,102.89 97.71,106.51 98.44,110.36 99.17,114.46 99.90,118.83 100.63,123.49 101.36,128.46 102.09,133.80 102.82,139.53 103.55,145.70 104.28,152.37 105.01,159.63 105.74,167.58 106.47,176.34 107.20,186.09 107.93,197.08 108.66,209.67 109.39,224.44 110.12,242.32 110.85,265.08 111.58,296.70 112.31,349.85 113.04,492.00 113.77,352.96 114.50,302.92 115.23,274.42 115.96,254.78 116.69,240.04 117.42,228.42 118.15,218.99 118.88,211.19 119.61,204.64 120.34,199.12 121.07,194.44 121.80,190.48 122.53,187.14 123.26,184.34 123.99,182.03 124.72,180.17 125.45,178.72 126.18,177.64 126.91,176.93 127.64,176.55 128.37,176.50 129.10,176.77 129.83,177.34 130.56,178.23 131.29,179.42 132.02,180.91 132.75,182.72 133.48,184.85 134.21,187.30 134.94,190.10 135.67,193.27 136.40,196.82 137.13,200.78 137.86,205.20 138.59,210.11 139.32,215.58 140.05,221.68 140.78,228.51 141.51,236.19 142.24,244.90 142.97,254.89 143.70,266.53 144.43,280.36 145.16,297.34 145.89,319.23 146.62,350.01 147.35,402.34 148.08,492.00 148.81,403.90 149.54,353.12 150.27,323.89 151.00,303.56 151.73,288.14 152.46,275.86 153.19,265.79 153.92,257.36 154.65,250.22 155.38,244.10 156.11,238.85 156.84,234.33 157.57,230.44 158.30,227.11 159.03,224.28 159.76,221.91 160.49,219.97 161.22,218.41 161.95,217.22 162.68,216.39 163.41,215.89 164.14,215.72 164.87,215.87 165.60,216.33 166.33,217.11 167.06,218.21 167.79,219.62 168.52,221.36 169.25,223.44 169.98,225.88 170.71,228.68 171.44,231.88 172.17,235.49 172.90,239.57 173.63,244.15 174.36,249.29 175.09,255.07 175.82,261.59 176.55,268.96 177.28,277.37 178.01,287.07 178.74,298.41 179.47,311.96 180.20,328.66 180.93,350.27 181.66,380.78 182.39,432.85 183.12,492.00 183.85,433.89 184.58,382.85 185.31,353.38 186.04,332.80 186.77,317.14 187.50,304.63 188.23,294.33 188.96,285.67 189.69,278.30 190.42,271.96 191.15,266.49 191.88,261.75 192.61,257.66 193.34,254.12 194.07,251.09 194.80,248.52 195.53,246.37 196.26,244.62 196.99,243.24 197.72,242.22 198.45,241.53 199.18,241.18 199.91,241.14 200.64,241.43 201.37,242.03 202.10,242.95 202.83,244.20 203.56,245.77 204.29,247.68 205.02,249.95 205.75,252.59 206.48,255.63 207.21,259.09 207.94,263.01 208.67,267.44 209.40,272.43 210.13,278.06 210.86,284.42 211.59,291.65 212.32,299.92 213.05,309.47 213.78,320.67 214.51,334.08 215.24,350.64 215.97,372.13 216.70,402.50 217.43,454.44 218.16,492.00 218.89,455.21 219.62,404.05 220.35,374.46 221.08,353.75 221.81,337.97 222.54,325.34 223.27,314.91 224.00,306.14 224.73,298.65 225.46,292.20 226.19,286.61 226.92,281.76 227.65,277.55 228.38,273.91 229.11,270.77 229.84,268.09 230.57,265.84 231.30,263.98 232.03,262.49 232.76,261.37 233.49,260.58 234.22,260.12 234.95,259.99 235.68,260.17 236.41,260.68 237.14,261.50 237.87,262.65 238.60,264.13 239.33,265.95 240.06,268.12 240.79,270.67 241.52,273.62 242.25,276.99 242.98,280.82 243.71,285.16 244.44,290.06 245.17,295.60 245.90,301.88 246.63,309.03 247.36,317.21 248.09,326.68 248.82,337.80 249.55,351.12 250.28,367.60 251.01,389.01 251.74,419.30 252.47,471.16 253.20,492.00 253.93,471.78 254.66,420.54 255.39,390.87 256.12,370.09 256.85,354.23 257.58,341.53 258.31,331.03 259.04,322.18 259.77,314.62 260.50,308.10 261.23,302.44 261.96,297.52 262.69,293.24 263.42,289.53 264.15,286.32 264.88,283.57 265.61,281.25 266.34,279.33 267.07,277.78 267.80,276.59 268.53,275.73 269.26,275.21 269.99,275.02 270.72,275.14 271.45,275.58 272.18,276.34 272.91,277.43 273.64,278.85 274.37,280.61 275.10,282.72 275.83,285.21 276.56,288.10 277.29,291.41 278.02,295.18 278.75,299.46 279.48,304.31 280.21,309.79 280.94,316.02 281.67,323.11 282.40,331.23 283.13,340.65 283.86,351.71 284.59,364.99 285.32,381.41 286.05,402.76 286.78,433.00 287.51,484.81 288.24,492.00 288.97,485.33 289.70,434.04 290.43,404.31 291.16,383.48 291.89,367.58 292.62,354.82 293.35,344.27 294.08,335.38 294.81,327.77 295.54,321.20 296.27,315.49 297.00,310.53 297.73,306.20 298.46,302.44 299.19,299.18 299.92,296.39 300.65,294.02 301.38,292.06 302.11,290.46 302.84,289.22 303.57,288.32 304.30,287.76 305.03,287.52 305.76,287.60 306.49,288.00 307.22,288.72 307.95,289.76 308.68,291.13 309.41,292.85 310.14,294.92 310.87,297.37 311.60,300.22 312.33,303.49 313.06,307.22 313.79,311.46 314.52,316.27 315.25,321.71 315.98,327.90 316.71,334.94 317.44,343.03 318.17,352.41 318.90,363.43 319.63,376.67 320.36,393.06 321.09,414.37 321.82,444.57 322.55,492.00 323.28,492.00 324.01,492.00 324.74,445.46 325.47,415.70 326.20,394.83 326.93,378.89 327.66,366.10 328.39,355.52 329.12,346.58 329.85,338.94 330.58,332.33 331.31,326.60 332.04,321.59 332.77,317.23 333.50,313.44 334.23,310.15 334.96,307.32 335.69,304.92 336.42,302.92 337.15,301.29 337.88,300.02 338.61,299.09 339.34,298.49 340.07,298.22 340.80,298.27 341.53,298.63 342.26,299.32 342.99,300.33 343.72,301.68 344.45,303.36 345.18,305.41 345.91,307.82 346.64,310.64 347.37,313.88 348.10,317.58 348.83,321.79 349.56,326.57 350.29,331.98 351.02,338.14 351.75,345.16 352.48,353.22 353.21,362.56 353.94,373.56 354.67,386.77 355.40,403.13 356.13,424.41 356.86,454.58 357.59,492.00 358.32,492.00 359.05,492.00 359.78,455.36 360.51,425.57 361.24,404.68 361.97,388.71 362.70,375.89 363.43,365.28 364.16,356.32 364.89,348.65 365.62,342.02 366.35,336.26 367.08,331.23 367.81,326.84 368.54,323.02 369.27,319.70 370.00,316.85 370.73,314.43 371.46,312.40 372.19,310.75 372.92,309.45 373.65,308.50 374.38,307.87 375.11,307.58 375.84,307.60 376.57,307.94 377.30,308.61 378.03,309.59 378.76,310.91 379.49,312.58 380.22,314.59 380.95,316.99 381.68,319.78 382.41,322.99 383.14,326.67 383.87,330.86 384.60,335.61 385.33,341.01 386.06,347.14 386.79,354.14 387.52,362.17 388.25,371.50 388.98,382.47 389.71,395.66 390.44,411.99 391.17,433.25 391.90,463.41 392.63,492.00 393.36,492.00 394.09,492.00 394.82,464.10 395.55,434.29 396.28,413.37 397.01,397.38 397.74,384.54 398.47,373.91 399.20,364.93 399.93,357.24 400.66,350.59 401.39,344.81 402.12,339.76 402.85,335.35 403.58,331.51 404.31,328.17 405.04,325.30 405.77,322.86 406.50,320.81 407.23,319.14 407.96,317.82 408.69,316.85 409.42,316.20 410.15,315.89 410.88,315.89 411.61,316.21 412.34,316.86 413.07,317.83 413.80,319.13 414.53,320.77 415.26,322.77 415.99,325.15 416.72,327.92 417.45,331.12 418.18,334.78 418.91,338.95 419.64,343.68 420.37,349.06 421.10,355.17 421.83,362.15 422.56,370.17 423.29,379.47 424.02,390.43 424.75,403.60 425.48,419.92 426.21,441.16 426.94,471.30 427.67,492.00 428.40,492.00 429.13,492.00 429.86,471.92 430.59,442.09 431.32,421.16 432.05,405.15 432.78,392.29 433.51,381.65 434.24,372.65 434.97,364.94 435.70,358.28 436.43,352.47 437.16,347.41 437.89,342.98 438.62,339.13 439.35,335.78 440.08,332.89 440.81,330.43 441.54,328.36 442.27,326.68 443.00,325.34 443.73,324.35 444.46,323.70 445.19,323.36 445.92,323.35 446.65,323.66 447.38,324.29 448.11,325.24 448.84,326.53 449.57,328.15 450.30,330.14 451.03,332.50 451.76,335.25 452.49,338.44 453.22,342.08 453.95,346.24 454.68,350.96 455.41,356.32 456.14,362.42 456.87,369.38 457.60,377.39 458.33,386.68 459.06,397.62 459.79,410.77 460.52,427.08 461.25,448.31 461.98,478.43 462.71,492.00 463.44,492.00 464.17,492.00 464.90,478.99 465.63,449.15 466.36,428.21 467.09,412.18 467.82,399.31 468.55,388.65 469.28,379.64 470.01,371.92 470.74,365.24 471.47,359.42 472.20,354.35 472.93,349.91 473.66,346.04 474.39,342.67 475.12,339.77 475.85,337.30 476.58,335.22 477.31,333.52 478.04,332.17 478.77,331.17 479.50,330.50 480.23,330.15 480.96,330.13 481.69,330.42 482.42,331.04 483.15,331.98 483.88,333.25 484.61,334.87 485.34,336.84 486.07,339.19 486.80,341.93 487.53,345.10 488.26,348.74 488.99,352.88 489.72,357.59 490.45,362.93 491.18,369.02 491.91,375.97 492.64,383.97 493.37,393.25 494.10,404.17 494.83,417.31 495.56,433.61 496.29,454.82 497.02,484.93 497.75,492.00 498.48,492.00 499.21,492.00 499.94,485.45 500.67,455.60 501.40,434.64 502.13,418.61 502.86,405.73 503.59,395.06 504.32,386.04 505.05,378.30 505.78,371.61 506.51,365.78 507.24,360.69 507.97,356.24 508.70,352.36 509.43,348.98 510.16,346.07 510.89,343.59 511.62,341.50 512.35,339.79 513.08,338.43 513.81,337.42 514.54,336.73 515.27,336.38 516.00,336.34 516.73,336.63 517.46,337.23 518.19,338.16 518.92,339.42 519.65,341.03 520.38,342.99 521.11,345.33 521.84,348.06 522.57,351.22 523.30,354.84 524.03,358.97 524.76,363.67 525.49,369.01 526.22,375.09 526.95,382.03 527.68,390.01 528.41,399.28 529.14,410.20 529.87,423.33 530.60,439.61 531.33,460.82 532.06,490.92 532.79,492.00 533.52,492.00 534.25,492.00 534.98,491.39 535.71,461.53 536.44,440.57 537.17,424.52 537.90,411.63 538.63,400.95 539.36,391.92 540.09,384.18 540.82,377.47 541.55,371.64 542.28,366.54 543.01,362.08 543.74,358.18 544.47,354.80 545.20,351.88 545.93,349.39 546.66,347.29 547.39,345.57 548.12,344.20 548.85,343.18 549.58,342.49 550.31,342.12 551.04,342.08 551.77,342.35 552.50,342.95 553.23,343.87 553.96,345.12 554.69,346.72 555.42,348.67 556.15,350.99 556.88,353.72 557.61,356.87 558.34,360.48 559.07,364.61 559.80,369.30 560.53,374.62 561.26,380.69 561.99,387.62 562.72,395.60 563.45,404.86 564.18,415.77 564.91,428.89 565.64,445.17 566.37,466.36 567.10,492.00 567.83,492.00 568.56,492.00 569.29,492.00 570.02,492.00 570.75,467.03 571.48,446.05 572.21,430.00 572.94,417.10 573.67,406.41 574.40,397.37 575.13,389.62 575.86,382.91 576.59,377.06 577.32,371.96 578.05,367.49 578.78,363.59 579.51,360.20 580.24,357.27 580.97,354.76 581.70,352.66 582.43,350.93 583.16,349.55 583.89,348.52 584.62,347.82 585.35,347.45 586.08,347.40 586.81,347.66 587.54,348.25 588.27,349.16 589.00,350.41 589.73,352.00 590.46,353.94 591.19,356.26 591.92,358.98 592.65,362.12 593.38,365.73 594.11,369.84 594.84,374.52 595.57,379.84 596.30,385.90 597.03,392.83 597.76,400.80 598.49,410.05 599.22,420.95 599.95,434.07 600.68,450.33 601.41,471.52 602.14,492.00 602.87,492.00 603.60,492.00 604.33,492.00 605.06,492.00 605.79,472.14 606.52,451.16 607.25,435.10 607.98,422.19 608.71,411.50 609.44,402.45 610.17,394.69 610.90,387.97 611.63,382.12 612.36,377.01 613.09,372.53 613.82,368.62 614.55,365.22 615.28,362.29 616.01,359.78 616.74,357.67 617.47,355.93 618.20,354.55 618.93,353.51 619.66,352.80 620.39,352.42 621.12,352.36 621.85,352.62 622.58,353.20 623.31,354.11 624.04,355.35 624.77,356.93 625.50,358.87 626.23,361.18 626.96,363.89 627.69,367.03 628.42,370.62 629.15,374.73 629.88,379.41 630.61,384.72 631.34,390.77 632.07,397.69 632.80,405.65 633.53,414.90 634.26,425.80 634.99,438.90 635.72,455.16 636.45,476.35 637.18,492.00 637.91,492.00 638.64,492.00 639.37,492.00 640.10,492.00 640.83,476.93 641.56,455.94 642.29,439.87 643.02,426.96 643.75,416.26 644.48,407.20 645.21,399.44 645.94,392.71 646.67,386.85 647.40,381.73 648.13,377.25 648.86,373.34 649.59,369.93 650.32,366.99 651.05,364.47 651.78,362.36 652.51,360.61 653.24,359.23 653.97,358.18 654.70,357.47 655.43,357.08 656.16,357.02 656.89,357.27 657.62,357.84 658.35,358.74 659.08,359.98 659.81,361.55 660.54,363.48 661.27,365.79 662.00,368.49 662.73,371.62 663.46,375.22 664.19,379.32 664.92,383.99 665.65,389.30 666.38,395.34 667.11,402.26 667.84,410.21 668.57,419.45 669.30,430.34 670.03,443.44 670.76,459.70 671.49,480.88 672.22,492.00 672.95,492.00 673.68,492.00 674.41,492.00 675.14,492.00 675.87,481.42 676.60,460.43 677.33,444.36 678.06,431.44 678.79,420.73 679.52,411.67 680.25,403.90 680.98,397.17 681.71,391.30 682.44,386.18 683.17,381.69 683.90,377.77 684.63,374.36 685.36,371.41 686.09,368.89 686.82,366.77 687.55,365.02 688.28,363.63 689.01,362.58 689.74,361.86 690.47,361.47 691.20,361.39 691.93,361.64 692.66,362.21 693.39,363.11 694.12,364.33 694.85,365.90 695.58,367.83 696.31,370.13 697.04,372.83 697.77,375.96 698.50,379.54 699.23,383.64 699.96,388.30 700.69,393.61 701.42,399.65 702.15,406.56 702.88,414.51 703.61,423.74 704.34,434.63 705.07,447.72 705.80,463.97 706.53,485.14 707.26,492.00 707.99,492.00 708.72,492.00 709.45,492.00 710.18,492.00 710.91,485.66 711.64,464.66 712.37,448.58 713.10,435.66 713.83,424.95 714.56,415.88 715.29,408.11 716.02,401.37 716.75,395.50 717.48,390.37 718.21,385.88 718.94,381.95 719.67,378.54 720.40,375.59 721.13,373.06 721.86,370.93 722.59,369.18 723.32,367.78 724.05,366.72 724.78,366.00 725.51,365.60 726.24,365.53 726.97,365.77 727.70,366.34 728.43,367.23 729.16,368.45 729.89,370.01 730.62,371.94 731.35,374.23 732.08,376.93 732.81,380.05 733.54,383.63 734.27,387.72 735.00,392.38 735.73,397.68 736.46,403.72 737.19,410.62 737.92,418.56 738.65,427.79 739.38,438.67 740.11,451.77 740.84,468.01 741.57,489.18 742.30,492.00 743.03,492.00 743.76,492.00 744.49,492.00 745.22,492.00 745.95,489.67 746.68,468.66 747.41,452.58 748.14,439.65 748.87,428.94 749.60,419.87 750.33,412.09 751.06,405.35 751.79,399.47 752.52,394.34 753.25,389.84 753.98,385.91 754.71,382.49 755.44,379.54 756.17,377.00 756.90,374.87 757.63,373.11 758.36,371.71 759.09,370.65 759.82,369.93 760.55,369.52 761.28,369.44 762.01,369.68 762.74,370.24 763.47,371.13 764.20,372.35 764.93,373.91 765.66,375.83 766.39,378.12 767.12,380.81 767.85,383.92 768.58,387.50 769.31,391.59 770.04,396.24 770.77,401.54 771.50,407.57 772.23,414.47 772.96,422.41 773.69,431.64 774.42,442.51 775.15,455.60 775.88,471.84 776.61,492.00 777.34,492.00 778.07,492.00 778.80,492.00 779.53,492.00 780.26,492.00 780.99,492.00 781.72,472.46 782.45,456.38 783.18,443.44 783.91,432.72 784.64,423.65 785.37,415.86 786.10,409.12 786.83,403.24 787.56,398.10 788.29,393.60 789.02,389.67 789.75,386.25 790.48,383.29 791.21,380.75 791.94,378.61 792.67,376.85 793.40,375.45 794.13,374.38 794.86,373.65 795.59,373.25 796.32,373.16 797.05,373.40 797.78,373.95 798.51,374.84 799.24,376.05 799.97,377.61 800.70,379.52 801.43,381.81 802.16,384.49 802.89,387.61 803.62,391.18 804.35,395.27 805.08,399.92 805.81,405.21 806.54,411.24 807.27,418.13 808.00,426.07 808.73,435.29 809.46,446.16 810.19,459.25 810.92,475.48 811.65,492.00 812.38,492.00 813.11,492.00 813.84,492.00 814.57,492.00 815.30,492.00 816.03,492.00 816.76,476.07 817.49,459.98 818.22,447.05 818.95,436.32 819.68,427.25 820.41,419.46 821.14,412.71 821.87,406.83 822.60,401.69 823.33,397.18 824.06,393.25 824.79,389.82 825.52,386.85 826.25,384.32 826.98,382.17 827.71,380.41 828.44,379.00 829.17,377.93 829.90,377.20 830.63,376.79 831.36,376.70 832.09,376.93 832.82,377.49 833.55,378.36 834.28,379.58 835.01,381.13 835.74,383.04 836.47,385.32 837.20,388.01 837.93,391.11 838.66,394.69 839.39,398.77 840.12,403.41 840.85,408.70 841.58,414.73 842.31,421.62 843.04,429.55 843.77,438.77 844.50,449.64 845.23,462.72 845.96,478.95 846.69,492.00 847.42,492.00 848.15,492.00 848.88,492.00 849.61,492.00 850.34,492.00 851.07,492.00 851.80,479.52 852.53,463.42 853.26,450.48 853.99,439.76 854.72,430.68 855.45,422.89 856.18,416.13 856.91,410.25 857.64,405.10 858.37,400.60 859.10,396.66 859.83,393.23 860.56,390.26 861.29,387.72 862.02,385.57 862.75,383.80 863.48,382.39 864.21,381.32 864.94,380.58 865.67,380.17 866.40,380.08 867.13,380.31 867.86,380.86 868.59,381.73 869.32,382.94 870.05,384.49 870.78,386.40 871.51,388.68 872.24,391.36 872.97,394.46 873.70,398.03 874.43,402.11 875.16,406.75 875.89,412.04 876.62,418.06 877.35,424.95 878.08,432.88 878.81,442.09 879.54,452.96 880.27,466.04 881.00,482.27 881.73,492.00 882.46,492.00 883.19,492.00 883.92,492.00 884.65,492.00 885.38,492.00 886.11,492.00 886.84,482.81 887.57,466.71 888.30,453.77 889.03,443.04 889.76,433.95 890.49,426.16 891.22,419.41 891.95,413.52 892.68,408.37 893.41,403.86 894.14,399.92 894.87,396.48 895.60,393.51 896.33,390.97 897.06,388.82 897.79,387.05 898.52,385.63 899.25,384.56 899.98,383.82 900.71,383.40 901.44,383.31 902.17,383.53 902.90,384.08 903.63,384.95 904.36,386.16 905.09,387.70 905.82,389.61 906.55,391.89 907.28,394.56 908.01,397.67 908.74,401.23 909.47,405.31 910.20,409.95 910.93,415.23 911.66,421.25 912.39,428.13 913.12,436.06 913.85,445.27 914.58,456.14 915.31,469.21 916.04,485.44 916.77,492.00 917.50,492.00 918.23,492.00 918.96,492.00 919.69,492.00 920.42,492.00 921.15,492.00 921.88,485.96 922.61,469.86 923.34,456.91 924.07,446.18 924.80,437.09 925.53,429.29 926.26,422.54 926.99,416.65 927.72,411.49 928.45,406.98 929.18,403.04 929.91,399.60 930.64,396.63 931.37,394.08 932.10,391.93 932.83,390.15 933.56,388.74 934.29,387.66 935.02,386.92 935.75,386.50 936.48,386.40 937.21,386.63 937.94,387.17 938.67,388.04 939.40,389.24 940.13,390.78 940.86,392.69 941.59,394.96 942.32,397.64 943.05,400.74 943.78,404.30 944.51,408.37 945.24,413.01 945.97,418.29 946.70,424.30 947.43,431.19 948.16,439.11 948.89,448.32 949.62,459.18 950.35,472.25 951.08,488.48 951.81,492.00 952.54,492.00 953.27,492.00 954.00,492.00" fill="none" stroke="rgb(35,139,69)" stroke-width="2.0" stroke-linejoin="round" stroke-linecap="round" />
<polyline points="78.00,62.59 78.73,62.61 79.46,62.69 80.19,62.81 80.92,62.98 81.65,63.20 82.38,63.47 83.11,63.78 83.84,64.14 84.57,64.55 85.30,65.00 86.03,65.50 86.76,66.04 87.49,66.62 88.22,67.24 88.95,67.91 89.68,68.61 90.41,69.35 91.14,70.13 91.87,70.95 92.60,71.80 93.33,72.68 94.06,73.59 94.79,74.54 95.52,75.51 96.25,76.52 96.98,77.55 97.71,78.60 98.44,79.68 99.17,80.78 99.90,81.91 100.63,83.05 101.36,84.22 102.09,85.40 102.82,86.60 103.55,87.82 104.28,89.05 105.01,90.29 105.74,91.55 106.47,92.82 107.20,94.10 107.93,95.39 108.66,96.68 109.39,97.99 110.12,99.31 110.85,100.63 111.58,101.95 112.31,103.29 113.04,104.62 113.77,105.96 114.50,107.31 115.23,108.66 115.96,110.00 116.69,111.35 117.42,112.71 118.15,114.06 118.88,115.41 119.61,116.76 120.34,118.11 121.07,119.46 121.80,120.81 122.53,122.16 123.26,123.50 123.99,124.84 124.72,126.18 125.45,127.52 126.18,128.85 126.91,130.18 127.64,131.50 128.37,132.82 129.10,134.14 129.83,135.45 130.56,136.76 131.29,138.06 132.02,139.36 132.75,140.65 133.48,141.94 134.21,143.23 134.94,144.50 135.67,145.77 136.40,147.04 137.13,148.30 137.86,149.56 138.59,150.81 139.32,152.05 140.05,153.29 140.78,154.52 141.51,155.75 142.24,156.97 142.97,158.18 143.70,159.39 144.43,160.59 145.16,161.79 145.89,162.97 146.62,164.16 147.35,165.34 148.08,166.51 148.81,167.67 149.54,168.83 150.27,169.98 151.00,171.13 151.73,172.27 152.46,173.41 153.19,174.53 153.92,175.66 154.65,176.77 155.38,177.88 156.11,178.99 156.84,180.09 157.57,181.18 158.30,182.27 159.03,183.35 159.76,184.42 160.49,185.49 161.22,186.55 161.95,187.61 162.68,188.66 163.41,189.71 164.14,190.75 164.87,191.78 165.60,192.81 166.33,193.84 167.06,194.85 167.79,195.87 168.52,196.87 169.25,197.87 169.98,198.87 170.71,199.86 171.44,200.85 172.17,201.83 172.90,202.80 173.63,203.77 174.36,204.74 175.09,205.70 175.82,206.65 176.55,207.60 177.28,208.54 178.01,209.48 178.74,210.42 179.47,211.35 180.20,212.27 180.93,213.19 181.66,214.11 182.39,215.02 183.12,215.92 183.85,216.82 184.58,217.72 185.31,218.61 186.04,219.50 186.77,220.38 187.50,221.26 188.23,222.13 188.96,223.00 189.69,223.87 190.42,224.73 191.15,225.59 191.88,226.44 192.61,227.29 193.34,228.13 194.07,228.97 194.80,229.80 195.53,230.64 196.26,231.46 196.99,232.29 197.72,233.10 198.45,233.92 199.18,234.73 199.91,235.54 200.64,236.34 201.37,237.14 202.10,237.94 202.83,238.73 203.56,239.52 204.29,240.30 205.02,241.08 205.75,241.86 206.48,242.63 207.21,243.40 207.94,244.17 208.67,244.93 209.40,245.69 210.13,246.45 210.86,247.20 211.59,247.95 212.32,248.69 213.05,249.44 213.78,250.18 214.51,250.91 215.24,251.64 215.97,252.37 216.70,253.10 217.43,253.82 218.16,254.54 218.89,255.26 219.62,255.97 220.35,256.68 221.08,257.39 221.81,258.09 222.54,258.79 223.27,259.49 224.00,260.18 224.73,260.87 225.46,261.56 226.19,262.25 226.92,262.93 227.65,263.61 228.38,264.29 229.11,264.96 229.84,265.63 230.57,266.30 231.30,266.97 232.03,267.63 232.76,268.29 233.49,268.95 234.22,269.60 234.95,270.26 235.68,270.91 236.41,271.55 237.14,272.20 237.87,272.84 238.60,273.48 239.33,274.11 240.06,274.75 240.79,275.38 241.52,276.01 242.25,276.64 242.98,277.26 243.71,277.88 244.44,278.50 245.17,279.12 245.90,279.73 246.63,280.34 247.36,280.95 248.09,281.56 248.82,282.17 249.55,282.77 250.28,283.37 251.01,283.97 251.74,284.56 252.47,285.16 253.20,285.75 253.93,286.34 254.66,286.92 255.39,287.51 256.12,288.09 256.85,288.67 257.58,289.25 258.31,289.83 259.04,290.40 259.77,290.97 260.50,291.54 261.23,292.11 261.96,292.68 262.69,293.24 263.42,293.80 264.15,294.36 264.88,294.92 265.61,295.48 266.34,296.03 267.07,296.58 267.80,297.13 268.53,297.68 269.26,298.23 269.99,298.77 270.72,299.31 271.45,299.85 272.18,300.39 272.91,300.93 273.64,301.46 274.37,302.00 275.10,302.53 275.83,303.06 276.56,303.58 277.29,304.11 278.02,304.63 278.75,305.16 279.48,305.68 280.21,306.19 280.94,306.71 281.67,307.23 282.40,307.74 283.13,308.25 283.86,308.76 284.59,309.27 285.32,309.78 286.05,310.28 286.78,310.79 287.51,311.29 288.24,311.79 288.97,312.29 289.70,312.79 290.43,313.28 291.16,313.77 291.89,314.27 292.62,314.76 293.35,315.25 294.08,315.73 294.81,316.22 295.54,316.71 296.27,317.19 297.00,317.67 297.73,318.15 298.46,318.63 299.19,319.11 299.92,319.58 300.65,320.06 301.38,320.53 302.11,321.00 302.84,321.47 303.57,321.94 304.30,322.41 305.03,322.87 305.76,323.34 306.49,323.80 307.22,324.26 307.95,324.72 308.68,325.18 309.41,325.64 310.14,326.09 310.87,326.55 311.60,327.00 312.33,327.45 313.06,327.90 313.79,328.35 314.52,328.80 315.25,329.25 315.98,329.69 316.71,330.14 317.44,330.58 318.17,331.02 318.90,331.46 319.63,331.90 320.36,332.34 321.09,332.77 321.82,333.21 322.55,333.64 323.28,334.08 324.01,334.51 324.74,334.94 325.47,335.37 326.20,335.79 326.93,336.22 327.66,336.65 328.39,337.07 329.12,337.49 329.85,337.92 330.58,338.34 331.31,338.76 332.04,339.18 332.77,339.59 333.50,340.01 334.23,340.42 334.96,340.84 335.69,341.25 336.42,341.66 337.15,342.07 337.88,342.48 338.61,342.89 339.34,343.30 340.07,343.71 340.80,344.11 341.53,344.52 342.26,344.92 342.99,345.32 343.72,345.72 344.45,346.12 345.18,346.52 345.91,346.92 346.64,347.32 347.37,347.71 348.10,348.11 348.83,348.50 349.56,348.89 350.29,349.28 351.02,349.67 351.75,350.06 352.48,350.45 353.21,350.84 353.94,351.23 354.67,351.61 355.40,352.00 356.13,352.38 356.86,352.76 357.59,353.15 358.32,353.53 359.05,353.91 359.78,354.29 360.51,354.66 361.24,355.04 361.97,355.42 362.70,355.79 363.43,356.17 364.16,356.54 364.89,356.91 365.62,357.29 366.35,357.66 367.08,358.03 367.81,358.39 368.54,358.76 369.27,359.13 370.00,359.50 370.73,359.86 371.46,360.23 372.19,360.59 372.92,360.95 373.65,361.31 374.38,361.68 375.11,362.04 375.84,362.39 376.57,362.75 377.30,363.11 378.03,363.47 378.76,363.82 379.49,364.18 380.22,364.53 380.95,364.89 381.68,365.24 382.41,365.59 383.14,365.94 383.87,366.29 384.60,366.64 385.33,366.99 386.06,367.34 386.79,367.68 387.52,368.03 388.25,368.38 388.98,368.72 389.71,369.06 390.44,369.41 391.17,369.75 391.90,370.09 392.63,370.43 393.36,370.77 394.09,371.11 394.82,371.45 395.55,371.79 396.28,372.12 397.01,372.46 397.74,372.80 398.47,373.13 399.20,373.46 399.93,373.80 400.66,374.13 401.39,374.46 402.12,374.79 402.85,375.12 403.58,375.45 404.31,375.78 405.04,376.11 405.77,376.44 406.50,376.76 407.23,377.09 407.96,377.42 408.69,377.74 409.42,378.06 410.15,378.39 410.88,378.71 411.61,379.03 412.34,379.35 413.07,379.67 413.80,379.99 414.53,380.31 415.26,380.63 415.99,380.95 416.72,381.27 417.45,381.58 418.18,381.90 418.91,382.21 419.64,382.53 420.37,382.84 421.10,383.15 421.83,383.47 422.56,383.78 423.29,384.09 424.02,384.40 424.75,384.71 425.48,385.02 426.21,385.33 426.94,385.64 427.67,385.94 428.40,386.25 429.13,386.56 429.86,386.86 430.59,387.17 431.32,387.47 432.05,387.78 432.78,388.08 433.51,388.38 434.24,388.68 434.97,388.98 435.70,389.29 436.43,389.59 437.16,389.88 437.89,390.18 438.62,390.48 439.35,390.78 440.08,391.08 440.81,391.37 441.54,391.67 442.27,391.96 443.00,392.26 443.73,392.55 444.46,392.85 445.19,393.14 445.92,393.43 446.65,393.73 447.38,394.02 448.11,394.31 448.84,394.60 449.57,394.89 450.30,395.18 451.03,395.47 451.76,395.75 452.49,396.04 453.22,396.33 453.95,396.61 454.68,396.90 455.41,397.19 456.14,397.47 456.87,397.75 457.60,398.04 458.33,398.32 459.06,398.60 459.79,398.89 460.52,399.17 461.25,399.45 461.98,399.73 462.71,400.01 463.44,400.29 464.17,400.57 464.90,400.85 465.63,401.12 466.36,401.40 467.09,401.68 467.82,401.95 468.55,402.23 469.28,402.51 470.01,402.78 470.74,403.06 471.47,403.33 472.20,403.60 472.93,403.88 473.66,404.15 474.39,404.42 475.12,404.69 475.85,404.96 476.58,405.23 477.31,405.50 478.04,405.77 478.77,406.04 479.50,406.31 480.23,406.58 480.96,406.84 481.69,407.11 482.42,407.38 483.15,407.64 483.88,407.91 484.61,408.18 485.34,408.44 486.07,408.70 486.80,408.97 487.53,409.23 488.26,409.49 488.99,409.76 489.72,410.02 490.45,410.28 491.18,410.54 491.91,410.80 492.64,411.06 493.37,411.32 494.10,411.58 494.83,411.84 495.56,412.10 496.29,412.36 497.02,412.61 497.75,412.87 498.48,413.13 499.21,413.38 499.94,413.64 500.67,413.89 501.40,414.15 502.13,414.40 502.86,414.66 503.59,414.91 504.32,415.16 505.05,415.42 505.78,415.67 506.51,415.92 507.24,416.17 507.97,416.42 508.70,416.67 509.43,416.92 510.16,417.17 510.89,417.42 511.62,417.67 512.35,417.92 513.08,418.17 513.81,418.42 514.54,418.66 515.27,418.91 516.00,419.16 516.73,419.40 517.46,419.65 518.19,419.89 518.92,420.14 519.65,420.38 520.38,420.63 521.11,420.87 521.84,421.11 522.57,421.36 523.30,421.60 524.03,421.84 524.76,422.08 525.49,422.32 526.22,422.56 526.95,422.80 527.68,423.05 528.41,423.28 529.14,423.52 529.87,423.76 530.60,424.00 531.33,424.24 532.06,424.48 532.79,424.72 533.52,424.95 534.25,425.19 534.98,425.43 535.71,425.66 536.44,425.90 537.17,426.13 537.90,426.37 538.63,426.60 539.36,426.84 540.09,427.07 540.82,427.30 541.55,427.54 542.28,427.77 543.01,428.00 543.74,428.23 544.47,428.46 545.20,428.70 545.93,428.93 546.66,429.16 547.39,429.39 548.12,429.62 548.85,429.85 549.58,430.08 550.31,430.30 551.04,430.53 551.77,430.76 552.50,430.99 553.23,431.22 553.96,431.44 554.69,431.67 555.42,431.90 556.15,432.12 556.88,432.35 557.61,432.57 558.34,432.80 559.07,433.02 559.80,433.25 560.53,433.47 561.26,433.69 561.99,433.92 562.72,434.14 563.45,434.36 564.18,434.59 564.91,434.81 565.64,435.03 566.37,435.25 567.10,435.47 567.83,435.69 568.56,435.91 569.29,436.13 570.02,436.35 570.75,436.57 571.48,436.79 572.21,437.01 572.94,437.23 573.67,437.45 574.40,437.66 575.13,437.88 575.86,438.10 576.59,438.31 577.32,438.53 578.05,438.75 578.78,438.96 579.51,439.18 580.24,439.39 580.97,439.61 581.70,439.82 582.43,440.04 583.16,440.25 583.89,440.47 584.62,440.68 585.35,440.89 586.08,441.10 586.81,441.32 587.54,441.53 588.27,441.74 589.00,441.95 589.73,442.16 590.46,442.37 591.19,442.59 591.92,442.80 592.65,443.01 593.38,443.22 594.11,443.43 594.84,443.63 595.57,443.84 596.30,444.05 597.03,444.26 597.76,444.47 598.49,444.68 599.22,444.88 599.95,445.09 600.68,445.30 601.41,445.50 602.14,445.71 602.87,445.92 603.60,446.12 604.33,446.33 605.06,446.53 605.79,446.74 606.52,446.94 607.25,447.15 607.98,447.35 608.71,447.55 609.44,447.76 610.17,447.96 610.90,448.16 611.63,448.37 612.36,448.57 613.09,448.77 613.82,448.97 614.55,449.18 615.28,449.38 616.01,449.58 616.74,449.78 617.47,449.98 618.20,450.18 618.93,450.38 619.66,450.58 620.39,450.78 621.12,450.98 621.85,451.18 622.58,451.37 623.31,451.57 624.04,451.77 624.77,451.97 625.50,452.17 626.23,452.36 626.96,452.56 627.69,452.76 628.42,452.95 629.15,453.15 629.88,453.35 630.61,453.54 631.34,453.74 632.07,453.93 632.80,454.13 633.53,454.32 634.26,454.52 634.99,454.71 635.72,454.91 636.45,455.10 637.18,455.29 637.91,455.49 638.64,455.68 639.37,455.87 640.10,456.06 640.83,456.26 641.56,456.45 642.29,456.64 643.02,456.83 643.75,457.02 644.48,457.21 645.21,457.40 645.94,457.60 646.67,457.79 647.40,457.98 648.13,458.17 648.86,458.35 649.59,458.54 650.32,458.73 651.05,458.92 651.78,459.11 652.51,459.30 653.24,459.49 653.97,459.67 654.70,459.86 655.43,460.05 656.16,460.24 656.89,460.42 657.62,460.61 658.35,460.80 659.08,460.98 659.81,461.17 660.54,461.35 661.27,461.54 662.00,461.73 662.73,461.91 663.46,462.10 664.19,462.28 664.92,462.46 665.65,462.65 666.38,462.83 667.11,463.02 667.84,463.20 668.57,463.38 669.30,463.57 670.03,463.75 670.76,463.93 671.49,464.11 672.22,464.30 672.95,464.48 673.68,464.66 674.41,464.84 675.14,465.02 675.87,465.20 676.60,465.38 677.33,465.56 678.06,465.74 678.79,465.92 679.52,466.10 680.25,466.28 680.98,466.46 681.71,466.64 682.44,466.82 683.17,467.00 683.90,467.18 684.63,467.36 685.36,467.54 686.09,467.71 686.82,467.89 687.55,468.07 688.28,468.25 689.01,468.42 689.74,468.60 690.47,468.78 691.20,468.95 691.93,469.13 692.66,469.31 693.39,469.48 694.12,469.66 694.85,469.83 695.58,470.01 696.31,470.18 697.04,470.36 697.77,470.53 698.50,470.71 699.23,470.88 699.96,471.06 700.69,471.23 701.42,471.40 702.15,471.58 702.88,471.75 703.61,471.92 704.34,472.10 705.07,472.27 705.80,472.44 706.53,472.61 707.26,472.78 707.99,472.96 708.72,473.13 709.45,473.30 710.18,473.47 710.91,473.64 711.64,473.81 712.37,473.98 713.10,474.15 713.83,474.32 714.56,474.49 715.29,474.66 716.02,474.83 716.75,475.00 717.48,475.17 718.21,475.34 718.94,475.51 719.67,475.68 720.40,475.85 721.13,476.02 721.86,476.18 722.59,476.35 723.32,476.52 724.05,476.69 724.78,476.85 725.51,477.02 726.24,477.19 726.97,477.36 727.70,477.52 728.43,477.69 729.16,477.85 729.89,478.02 730.62,478.19 731.35,478.35 732.08,478.52 732.81,478.68 733.54,478.85 734.27,479.01 735.00,479.18 735.73,479.34 736.46,479.51 737.19,479.67 737.92,479.83 738.65,480.00 739.38,480.16 740.11,480.33 740.84,480.49 741.57,480.65 742.30,480.82 743.03,480.98 743.76,481.14 744.49,481.30 745.22,481.47 745.95,481.63 746.68,481.79 747.41,481.95 748.14,482.11 748.87,482.27 749.60,482.43 750.33,482.60 751.06,482.76 751.79,482.92 752.52,483.08 753.25,483.24 753.98,483.40 754.71,483.56 755.44,483.72 756.17,483.88 756.90,484.04 757.63,484.20 758.36,484.36 759.09,484.51 759.82,484.67 760.55,484.83 761.28,484.99 762.01,485.15 762.74,485.31 763.47,485.46 764.20,485.62 764.93,485.78 765.66,485.94 766.39,486.09 767.12,486.25 767.85,486.41 768.58,486.56 769.31,486.72 770.04,486.88 770.77,487.03 771.50,487.19 772.23,487.35 772.96,487.50 773.69,487.66 774.42,487.81 775.15,487.97 775.88,488.12 776.61,488.28 777.34,488.43 778.07,488.59 778.80,488.74 779.53,488.90 780.26,489.05 780.99,489.20 781.72,489.36 782.45,489.51 783.18,489.67 783.91,489.82 784.64,489.97 785.37,490.12 786.10,490.28 786.83,490.43 787.56,490.58 788.29,490.74 789.02,490.89 789.75,491.04 790.48,491.19 791.21,491.34 791.94,491.49 792.67,491.65 793.40,491.80 794.13,491.95 794.86,492.00 795.59,492.00 796.32,492.00 797.05,492.00 797.78,492.00 798.51,492.00 799.24,492.00 799.97,492.00 800.70,492.00 801.43,492.00 802.16,492.00 802.89,492.00 803.62,492.00 804.35,492.00 805.08,492.00 805.81,492.00 806.54,492.00 807.27,492.00 808.00,492.00 808.73,492.00 809.46,492.00 810.19,492.00 810.92,492.00 811.65,492.00 812.38,492.00 813.11,492.00 813.84,492.00 814.57,492.00 815.30,492.00 816.03,492.00 816.76,492.00 817.49,492.00 818.22,492.00 818.95,492.00 819.68,492.00 820.41,492.00 821.14,492.00 821.87,492.00 822.60,492.00 823.33,492.00 824.06,492.00 824.79,492.00 825.52,492.00 826.25,492.00 826.98,492.00 827.71,492.00 828.44,492.00 829.17,492.00 829.90,492.00 830.63,492.00 831.36,492.00 832.09,492.00 832.82,492.00 833.55,492.00 834.28,492.00 835.01,492.00 835.74,492.00 836.47,492.00 837.20,492.00 837.93,492.00 838.66,492.00 839.39,492.00 840.12,492.00 840.85,492.00 841.58,492.00 842.31,492.00 843.04,492.00 843.77,492.00 844.50,492.00 845.23,492.00 845.96,492.00 846.69,492.00 847.42,492.00 848.15,492.00 848.88,492.00 849.61,492.00 850.34,492.00 851.07,492.00 851.80,492.00 852.53,492.00 853.26,492.00 853.99,492.00 854.72,492.00 855.45,492.00 856.18,492.00 856.91,492.00 857.64,492.00 858.37,492.00 859.10,492.00 859.83,492.00 860.56,492.00 861.29,492.00 862.02,492.00 862.75,492.00 863.48,492.00 864.21,492.00 864.94,492.00 865.67,492.00 866.40,492.00 867.13,492.00 867.86,492.00 868.59,492.00 869.32,492.00 870.05,492.00 870.78,492.00 871.51,492.00 872.24,492.00 872.97,492.00 873.70,492.00 874.43,492.00 875.16,492.00 875.89,492.00 876.62,492.00 877.35,492.00 878.08,492.00 878.81,492.00 879.54,492.00 880.27,492.00 881.00,492.00 881.73,492.00 882.46,492.00 883.19,492.00 883.92,492.00 884.65,492.00 885.38,492.00 886.11,492.00 886.84,492.00 887.57,492.00 888.30,492.00 889.03,492.00 889.76,492.00 890.49,492.00 891.22,492.00 891.95,492.00 892.68,492.00 893.41,492.00 894.14,492.00 894.87,492.00 895.60,492.00 896.33,492.00 897.06,492.00 897.79,492.00 898.52,492.00 899.25,492.00 899.98,492.00 900.71,492.00 901.44,492.00 902.17,492.00 902.90,492.00 903.63,492.00 904.36,492.00 905.09,492.00 905.82,492.00 906.55,492.00 907.28,492.00 908.01,492.00 908.74,492.00 909.47,492.00 910.20,492.00 910.93,492.00 911.66,492.00 912.39,492.00 913.12,492.00 913.85,492.00 914.58,492.00 915.31,492.00 916.04,492.00 916.77,492.00 917.50,492.00 918.23,492.00 918.96,492.00 919.69,492.00 920.42,492.00 921.15,492.00 921.88,492.00 922.61,492.00 923.34,492.00 924.07,492.00 924.80,492.00 925.53,492.00 926.26,492.00 926.99,492.00 927.72,492.00 928.45,492.00 929.18,492.00 929.91,492.00 930.64,492.00 931.37,492.00 932.10,492.00 932.83,492.00 933.56,492.00 934.29,492.00 935.02,492.00 935.75,492.00 936.48,492.00 937.21,492.00 937.94,492.00 938.67,492.00 939.40,492.00 940.13,492.00 940.86,492.00 941.59,492.00 942.32,492.00 943.05,492.00 943.78,492.00 944.51,492.00 945.24,492.00 945.97,492.00 946.70,492.00 947.43,492.00 948.16,492.00 948.89,492.00 949.62,492.00 950.35,492.00 951.08,492.00 951.81,492.00 952.54,492.00 953.27,492.00 954.00,492.00" fill="none" stroke="rgb(118,42,131)" stroke-width="2.0" stroke-linejoin="round" stroke-linecap="round" />
<line x1="784" y1="76" x2="818" y2="76" stroke="rgb(33,101,172)" stroke-width="3" />
<text x="828" y="76" font-family="Arial, sans-serif" font-size="14" dominant-baseline="middle">FIR</text>
<line x1="784" y1="100" x2="818" y2="100" stroke="rgb(178,24,43)" stroke-width="3" />
<text x="828" y="100" font-family="Arial, sans-serif" font-size="14" dominant-baseline="middle">Boxcar</text>
<line x1="784" y1="124" x2="818" y2="124" stroke="rgb(35,139,69)" stroke-width="3" />
<text x="828" y="124" font-family="Arial, sans-serif" font-size="14" dominant-baseline="middle">CIC</text>
<line x1="784" y1="148" x2="818" y2="148" stroke="rgb(118,42,131)" stroke-width="3" />
<text x="828" y="148" font-family="Arial, sans-serif" font-size="14" dominant-baseline="middle">IIR</text>
<text x="516" y="548" font-family="Arial, sans-serif" font-size="15" text-anchor="middle">Frequency (kHz)</text>
<text transform="translate(22 273) rotate(-90)" font-family="Arial, sans-serif" font-size="15" text-anchor="middle">Amplitude response (dB)</text>
</svg>
