<?xml version="1.0" encoding="UTF-8"?> <svg xmlns="http://www.w3.org/2000/svg" id="UNIS_logo_liggende" width="265" height="80" viewBox="0 0 265 80"><g id="Group_363" data-name="Group 363" transform="translate(90.745 18.86)"><path id="Path_2032" data-name="Path 2032" d="M168.3,20.536c1.472.123,1.717.491,1.717,1.1V48.751c0,.491-.245.981-1.717,1.1v.736h12.018v-.736c-1.349-.123-1.717-.491-1.717-1.1V21.64c0-.491.368-.981,1.717-1.1V19.8H168.3Z" transform="translate(-58.057 -18.525)" fill="#006199" fill-rule="evenodd"></path><path id="Path_2033" data-name="Path 2033" d="M204.384,28.377c0-1.349.981-2.821,6.009-3.189,5.4-.245,9.442,1.349,10.546,2.208l.981.736,2.33-7.728c-.736,0-.123-.123-1.1-.123-1.594,0-7.112-1.84-14.1-1.472-8.707.491-12.631,4.907-12.631,10.8,0,11.286,21.092,6.011,20.969,11.041-.123,2.576-2.085,4.294-7.848,4.539-6.009.245-9.688-1.472-10.914-2.453-.613-.368-1.717-1.1-1.594-1.349l-1.226.368,2.085,8.342a57.9,57.9,0,0,0,13.98,1.227c8.584-.368,14.1-5.888,14.1-10.8-.123-13.371-21.583-7.115-21.583-12.145" transform="translate(-51.835 -18.76)" fill="#006199" fill-rule="evenodd"></path><path id="Path_2034" data-name="Path 2034" d="M146.935,20.536c.736.123,1.472.368,1.472,1.1V42.617C140.558,29,138.229,24.462,137,20.536V19.8H122.9v.736c1.594.123,1.717.491,1.717,1.1V48.751c0,.491-.123.981-1.717,1.1v.736h10.546v-.736c-1.472-.123-1.717-.491-1.717-1.1V27.406c1.1,1.595,1.839,2.944,2.82,4.294,7.235,11.531,9.32,15.7,10.178,18.156v.736h11.527v-.736c-.368-.123-.368-.491-.368-1.1V21.64c0-.491.245-.981,1.717-1.1V19.8H146.935Z" transform="translate(-68.33 -18.525)" fill="#006199" fill-rule="evenodd"></path><path id="Path_2035" data-name="Path 2035" d="M100.105,20.536c1.472.123,1.962.491,1.962,1.1V38.692c0,4.539-1.962,6.256-6.622,6.256s-7.358-1.717-7.358-6.256V21.64c0-.491.858-.981,2.207-1.1V19.8H78.4v.736c1.349.123,1.594.491,1.594,1.1v15.7c0,10.182,6.5,13.617,15.329,13.617,8.952,0,15.083-3.312,15.083-13.617V21.64c0-.491.368-.981,1.717-1.1V19.8H100.105v.736Z" transform="translate(-78.4 -18.525)" fill="#006199" fill-rule="evenodd"></path></g><path id="Path_2036" data-name="Path 2036" d="M249.63,57.416a2.981,2.981,0,0,1,1.349.368v3.435a2.981,2.981,0,0,1-1.349.368c-1.226,0-1.472-.981-1.472-2.085s.123-2.085,1.472-2.085m-.368-1.227c-1.839,0-2.453,1.227-2.453,3.312s.736,3.312,2.453,3.312a3.8,3.8,0,0,0,2.085-.613l.245.491h.858V53.245H251.1V56.68A5.137,5.137,0,0,0,249.263,56.189Zm-3.066.123a5.309,5.309,0,0,0-.613-.123,3.12,3.12,0,0,0-1.962.613l-.245-.491h-.858v6.256h1.349V57.784a2.782,2.782,0,0,1,1.594-.368,1.555,1.555,0,0,1,.736.123V56.312Zm-6.377,3.312v1.595a2.2,2.2,0,0,1-1.349.368.9.9,0,0,1-.981-.981c0-.613.368-.859.981-.981Zm0-1.349v.368l-1.349.123c-1.472.123-2.33.736-2.33,2.085,0,.981.491,1.963,2.207,1.963a3.011,3.011,0,0,0,1.839-.613l.245.491h.858V58.52c0-1.349-.49-2.208-2.575-2.208a5.283,5.283,0,0,0-2.085.368v1.227a4.3,4.3,0,0,1,1.962-.368C239.575,57.416,239.82,57.662,239.82,58.275Zm-7.358-.859c1.226,0,1.472.981,1.472,2.085,0,1.227-.245,2.085-1.472,2.085a2.981,2.981,0,0,1-1.349-.368V57.784A2.981,2.981,0,0,1,232.463,57.416Zm.368-1.227a3.991,3.991,0,0,0-1.717.491V53.245h-1.349v9.446h.858l.245-.491a3.507,3.507,0,0,0,2.085.613c1.839,0,2.453-1.227,2.453-3.312C235.283,57.416,234.67,56.189,232.83,56.189Zm-4.415,6.5h.245v-1.1c-.368,0-.491-.123-.491-.491V53.245h-1.349V61.1C226.7,62.2,227.19,62.691,228.416,62.691ZM224,59.624v1.595a2.2,2.2,0,0,1-1.349.368.9.9,0,0,1-.981-.981c0-.613.368-.859.981-.981Zm0-1.349v.368l-1.349.123c-1.472.123-2.33.736-2.33,2.085,0,.981.491,1.963,2.207,1.963a3.011,3.011,0,0,0,1.839-.613l.245.491h.858V58.52c0-1.349-.49-2.208-2.575-2.208a5.283,5.283,0,0,0-2.085.368v1.227a4.3,4.3,0,0,1,1.962-.368C223.633,57.416,224,57.662,224,58.275Zm-9.933-1.84,2.453,6.379h1.1l2.453-6.379h-1.472l-1.472,4.539-1.472-4.539Zm-3.679.736c-1.226-.123-1.839-.368-1.839-1.349,0-.859.49-1.349,1.962-1.349a6.669,6.669,0,0,1,2.453.491V53.613a5.9,5.9,0,0,0-2.575-.491c-2.575,0-3.311,1.349-3.311,2.7,0,1.717.858,2.331,3.188,2.576,1.226.123,1.717.368,1.717,1.472,0,.859-.491,1.595-2.207,1.595a6.217,6.217,0,0,1-2.7-.613V62.2a6.46,6.46,0,0,0,2.82.491c2.575,0,3.556-1.227,3.556-2.944C213.578,57.907,212.352,57.416,210.389,57.171Zm-6.622,5.52V58.275c0-1.227-.613-1.963-2.207-1.963a4.519,4.519,0,0,0-2.085.613l-.245-.491h-.858v6.256h1.349V57.784a2.357,2.357,0,0,1,1.472-.368c.613,0,.981.245.981.981v4.294Zm-8.461-8.219a.858.858,0,1,0,.858-.859A.838.838,0,0,0,195.306,54.472Zm1.839,8.219h.245v-1.1c-.368,0-.49-.123-.49-.491V56.435h-1.349v4.784C195.551,62.2,196.042,62.691,197.146,62.691ZM189.3,57.416c1.1,0,1.1.736,1.1,1.595h-2.453C188.071,58.152,188.316,57.416,189.3,57.416ZM186.6,59.5c0,2.085.736,3.312,2.82,3.312a6.941,6.941,0,0,0,2.207-.368V61.219a4.668,4.668,0,0,1-1.962.368c-1.226,0-1.594-.613-1.594-1.595H192v-.613c0-1.717-.368-3.189-2.575-3.189C187.335,56.189,186.6,57.539,186.6,59.5Zm-.613-3.189a5.31,5.31,0,0,0-.613-.123,3.12,3.12,0,0,0-1.962.613l-.245-.491h-.858v6.256h1.349V57.784a2.782,2.782,0,0,1,1.594-.368,1.555,1.555,0,0,1,.736.123V56.312ZM181.2,61.587h-.49c-.736,0-.981-.245-.981-.981V57.539h1.717V56.312h-1.717v-1.84l-1.349.368v1.472l-1.1.368v.859h1.1v3.312c0,1.349.858,1.963,2.207,1.963.245,0,.613,0,.736-.123v-1.1Zm-4.782,1.1V58.275c0-1.227-.613-1.963-2.207-1.963a4.519,4.519,0,0,0-2.085.613l-.245-.491h-.858v6.256h1.349V57.784a2.357,2.357,0,0,1,1.472-.368c.613,0,.981.245.981.981v4.294Zm-8.829-5.275c1.1,0,1.1.736,1.1,1.595h-2.453C166.243,58.152,166.489,57.416,167.592,57.416Zm-2.82,2.085c0,2.085.736,3.312,2.82,3.312a6.942,6.942,0,0,0,2.207-.368V61.219a4.668,4.668,0,0,1-1.962.368c-1.226,0-1.594-.613-1.594-1.595h3.924v-.613c0-1.717-.368-3.189-2.575-3.189C165.508,56.189,164.772,57.539,164.772,59.5Zm-7.112-1.595c0,3.067,1.1,4.907,3.924,4.907a7.281,7.281,0,0,0,2.207-.368V61.1a5.726,5.726,0,0,1-2.085.368c-1.839,0-2.575-1.227-2.575-3.558s.736-3.558,2.575-3.558a5.726,5.726,0,0,1,2.085.368V53.368A4.763,4.763,0,0,0,161.583,53C158.763,53.123,157.659,54.84,157.659,57.907Zm-8.952-1.472,2.33,6.011-1.594,3.312h1.594l3.556-9.446H153l-1.472,4.416-1.472-4.416h-1.349Zm-.613,5.152H147.6c-.736,0-.981-.245-.981-.981V57.539h1.717V56.312h-1.717v-1.84l-1.349.368v1.472l-1.1.368v.859h1.1v3.312c0,1.349.858,1.963,2.207,1.963.245,0,.613,0,.736-.123v-1.1Zm-6.745-7.115a.858.858,0,1,0,.858-.859A.922.922,0,0,0,141.35,54.472Zm1.839,8.219h.245v-1.1c-.368,0-.49-.123-.49-.491V56.435H141.6v4.784C141.6,62.2,142.086,62.691,143.189,62.691Zm-6.254-4.539c0-.613.491-.736,1.226-.736a5.082,5.082,0,0,1,1.962.368V56.558a4.3,4.3,0,0,0-1.962-.368c-1.839,0-2.575.859-2.575,1.963s.491,1.717,2.33,1.84c.858.123.981.368.981.736q0,.736-1.472.736a6.022,6.022,0,0,1-1.839-.368v1.227a7.1,7.1,0,0,0,2.085.368c1.962,0,2.7-.981,2.7-1.963,0-1.227-.49-1.717-2.33-1.84C137.18,58.766,136.935,58.643,136.935,58.152Zm-1.962-1.84a5.31,5.31,0,0,0-.613-.123,3.12,3.12,0,0,0-1.962.613l-.245-.491h-.858v6.256h1.349V57.784a2.782,2.782,0,0,1,1.594-.368,1.555,1.555,0,0,1,.736.123V56.312Zm-7.358,1.1c1.1,0,1.1.736,1.1,1.595h-2.453C126.267,58.152,126.634,57.416,127.615,57.416ZM124.8,59.5c0,2.085.736,3.312,2.82,3.312a6.942,6.942,0,0,0,2.207-.368V61.219a4.668,4.668,0,0,1-1.962.368c-1.226,0-1.594-.613-1.594-1.595h3.924v-.613c0-1.717-.368-3.189-2.575-3.189C125.653,56.189,124.8,57.539,124.8,59.5Zm-6.131-3.067,2.453,6.379h1.1l2.453-6.379h-1.594l-1.472,4.539-1.472-4.539Zm-2.7-1.963a.858.858,0,1,0,.858-.859A.838.838,0,0,0,115.966,54.472Zm1.839,8.219h.245v-1.1c-.368,0-.491-.123-.491-.491V56.435h-1.349v4.784C116.211,62.2,116.7,62.691,117.805,62.691Zm-2.943,0V58.275c0-1.227-.613-1.963-2.207-1.963a4.519,4.519,0,0,0-2.085.613l-.245-.491h-.736v6.256h1.349V57.784a2.357,2.357,0,0,1,1.472-.368c.613,0,.981.245.981.981v4.294Zm-9.933.123c1.226,0,3.434-.491,3.434-3.067v-6.5h-1.349V59.5a1.962,1.962,0,1,1-3.924,0V53.245h-1.349v6.5C101.5,62.323,103.7,62.814,104.929,62.814Zm-9.442-5.4c1.1,0,1.1.736,1.1,1.595H94.138C94.138,58.152,94.506,57.416,95.487,57.416ZM92.666,59.5c0,2.085.736,3.312,2.82,3.312a6.942,6.942,0,0,0,2.207-.368V61.219a5.082,5.082,0,0,1-1.962.368c-1.226,0-1.594-.613-1.594-1.595h3.924v-.613c0-1.717-.368-3.189-2.575-3.189C93.4,56.189,92.666,57.539,92.666,59.5Zm-2.453-1.1v4.294h1.349V58.275c0-1.227-.613-1.963-2.207-1.963a2.815,2.815,0,0,0-1.717.491V53.368H86.29v9.446h1.349V57.907a2.357,2.357,0,0,1,1.472-.368C89.969,57.416,90.214,57.662,90.214,58.4Zm-4.66-3.8V53.245H79.3v1.349h2.453v8.1H83.1v-8.1Z" transform="translate(12.549 7.863)" fill="#006199"></path><path id="Path_2037" data-name="Path 2037" d="M49.138,24.135c-.981-1.1-2.085-2.208-3.066-3.189-.368-.368-.858-.736-1.226-1.1a3.726,3.726,0,0,0-.858-.613,8.919,8.919,0,0,1-1.1-.981l.981-1.717h.123c.245.123.613.123.858.245a3.671,3.671,0,0,1,1.226.491,30.168,30.168,0,0,1,5.764,2.453,15.633,15.633,0,0,1,1.472.859l-1.472,1.472c-.858.613-1.717,1.349-2.7,2.085m-4.415-2.208a11.057,11.057,0,0,1,1.226,1.1,23.547,23.547,0,0,1,1.717,1.84c-.491.368-1.1.613-1.717.981-.368.245-.858.368-1.226.613a2.273,2.273,0,0,1-.858.245,1.772,1.772,0,0,1-.858.245,19.577,19.577,0,0,1-.613-6.992,11.5,11.5,0,0,0,1.472,1.1ZM26.207,19.719a12.989,12.989,0,0,1-1.472,1.227,37.651,37.651,0,0,0-3.066,3.189c-.981-.613-1.839-1.349-2.82-2.085A13.992,13.992,0,0,1,17.5,20.7c.491-.245.858-.613,1.349-.859a25.221,25.221,0,0,1,5.886-2.576,6.911,6.911,0,0,1,1.472-.491,18.7,18.7,0,0,1,4.537-.981c.368,0,.858-.123,1.226-.123a10.783,10.783,0,0,0-1.226.736A25.41,25.41,0,0,0,26.207,19.719Zm2.82,7.728c.491-1.227.981-2.453,1.594-3.68a39.844,39.844,0,0,1,4.047-6.992V28.306a15.228,15.228,0,0,1-4.047-.491C30.131,27.692,29.518,27.57,29.027,27.447ZM44.6,13.953c-.613-1.1.613-1.84,1.472-1.349-.123-.736,1.226-1.1,1.594-.245a1.635,1.635,0,0,1,.736-.613.984.984,0,0,1,1.226.859.914.914,0,0,1,1.717.613c1.349.123,1.472,1.84-.123,1.963.368.981-.981,1.349-1.717.613a.955.955,0,0,1-1.1.859,1.422,1.422,0,0,1-.858-.859c-.858.613-1.472.491-1.717-.368C44.969,15.793,44.233,14.812,44.6,13.953Zm6.622-6.379c.491,1.227-.491,2.453-1.717,1.963,0,.859-.245,1.349-.981,1.349a3.79,3.79,0,0,1-.981-.245c0,1.1-1.717,1.349-1.962.491a14.422,14.422,0,0,0-4.047,16.315v.123a24.841,24.841,0,0,1-5.273.736c-.858-6.011,1.349-11.041,5.273-15.089A39.641,39.641,0,0,1,44.846,10.4a1.2,1.2,0,0,1,.491-2.208c-.491-1.1.491-2.453,1.594-1.84-.491-1.227.123-2.208,1.717-1.472V4.507c.123-.859,1.1-1.472,2.207-.613.981-1.472,3.188.613,1.226,1.717A1.072,1.072,0,1,1,51.223,7.574Zm-7.848.613A.9.9,0,0,1,43.252,9.9a1.193,1.193,0,0,1-1.472,1.717l-.245.245c-.613.123-1.349-.613-.858-1.595-.613.368-1.472-.981-.736-1.717-.858-.123-.981-1.349-.245-1.84C38.96,6.47,39.083,5,40.186,5c-.245-1.349.858-1.717,1.349-1.1a1.977,1.977,0,0,1,.491.859c.491-.613,1.839.613.981,1.472C43.988,6.1,44.233,7.942,43.375,8.187ZM32.461,17.02h0q-1.1,1.656-1.839,2.944c-1.1,2.208-1.962,4.171-3.066,6.992a6.912,6.912,0,0,1-1.472-.491c-.491-.245-.981-.368-1.472-.613a12.253,12.253,0,0,1-1.717-.981c.613-.613,1.1-1.349,1.717-1.84a14.7,14.7,0,0,1,1.472-1.349,32.238,32.238,0,0,1,4.537-3.558l1.839-1.1Z" transform="translate(-1.435 -3.386)" fill="#33bee5" fill-rule="evenodd"></path><path id="Path_2038" data-name="Path 2038" d="M53.329,65.353a17.552,17.552,0,0,0,1.349-1.84,41.451,41.451,0,0,0,4.66-8.955,1.224,1.224,0,0,1,.613.491,30.364,30.364,0,0,1,3.188,2.331c1.1.981,2.207,1.84,3.311,2.944a34.129,34.129,0,0,1-3.311,4.048,36.256,36.256,0,0,1-3.188,2.944c-.858.613-1.594,1.227-2.453,1.84a18.479,18.479,0,0,0-2.82-2.576,6.428,6.428,0,0,0-1.349-1.227m6.745-12.267h0a.17.17,0,0,1,0-.245A35.694,35.694,0,0,0,61.79,41.923H72.581a33.93,33.93,0,0,1-5.15,17.052c-1.349-1.349-2.7-2.453-4.169-3.68A37.959,37.959,0,0,0,60.073,53.086ZM46.461,63.636a.45.45,0,0,0,.368.123c.245.123.613.245.858.368a11.392,11.392,0,0,1,1.226.613,9.775,9.775,0,0,1,1.962.981l-1.962,1.717-1.226.981-.858.736-2.943,2.576-2.33,1.84c.858-1.349,1.594-2.821,2.33-4.171A48.567,48.567,0,0,0,46.461,63.636Zm5.518.981a24.09,24.09,0,0,0-3.066-1.595,5.727,5.727,0,0,0-1.226-.613c-.245-.123-.491-.123-.736-.245.245-.613.491-1.349.736-2.085.491-1.472.858-3.067,1.226-4.662a40.31,40.31,0,0,0,.981-5.03,27.655,27.655,0,0,1,4.782,1.84c1.1.491,2.207,1.1,3.311,1.717a27.354,27.354,0,0,1-3.311,6.87C53.942,62.041,52.961,63.268,51.98,64.617Zm8.093-19.628A36.092,36.092,0,0,1,58.6,52.227a21.731,21.731,0,0,0-3.8-1.84c-1.472-.613-2.943-1.227-4.537-1.717a62.407,62.407,0,0,0,.491-6.747h9.565A23.907,23.907,0,0,0,60.073,44.989ZM43.886,62.9c.491.123.736.123,1.1.245l-1.1,2.576a70.714,70.714,0,0,1-4.66,8.464V62.164C40.821,62.409,42.415,62.532,43.886,62.9ZM45.6,61.673a12.579,12.579,0,0,1-1.717-.491c-1.472-.245-3.066-.491-4.66-.613V48.424c1.594.123,3.066.123,4.66.368a20.776,20.776,0,0,1,2.943.613,2.086,2.086,0,0,0,.858.123c.245.123.491.123.736.245-.245,1.349-.491,2.821-.736,4.171a35.142,35.142,0,0,1-.858,3.435A35.861,35.861,0,0,1,45.6,61.673ZM39.349,41.8h9.688a11.906,11.906,0,0,1-.123,2.085c-.123,1.472-.123,2.821-.245,4.171-.245-.123-.613-.123-.981-.245a2.086,2.086,0,0,0-.858-.123,25.106,25.106,0,0,0-2.943-.613c-1.472-.123-3.066-.245-4.66-.368Zm-7.48,21.345a10.212,10.212,0,0,0,1.839-.491,40.578,40.578,0,0,1,4.047-.491V74.308a79.536,79.536,0,0,1-4.047-6.992A30.9,30.9,0,0,1,31.869,63.145Zm-.613-1.595a51.033,51.033,0,0,1-2.085-7.728,39.589,39.589,0,0,1-.736-4.048,1.555,1.555,0,0,1,.736-.123,26.983,26.983,0,0,1,4.537-.859c1.349-.123,2.575-.245,4.047-.245V60.692a22.571,22.571,0,0,0-4.047.368A14.461,14.461,0,0,0,31.256,61.55ZM29.171,47.934c-.368.123-.613.123-.981.245-.245-2.085-.368-4.171-.491-6.379h9.81l.123,5.03c-1.349.123-2.7.123-4.047.245C32.114,47.443,30.52,47.566,29.171,47.934Zm0,21.345c-.491-.491-.981-.859-1.472-1.349-.736-.736-1.349-1.472-2.085-2.208a17.125,17.125,0,0,1,2.085-1.1A7.5,7.5,0,0,1,29.171,64a5.123,5.123,0,0,0,1.226-.491l3.311,6.624,1.839,3.68v.123a7.318,7.318,0,0,0-1.839-1.1A34.284,34.284,0,0,1,29.171,69.279Zm.613-7.238c-.245.123-.491.123-.613.245-.491.245-.981.368-1.472.613a24.091,24.091,0,0,0-3.066,1.595,33.719,33.719,0,0,1-2.82-4.048,39.458,39.458,0,0,1-3.066-6.5,24.091,24.091,0,0,1,3.066-1.595,28.379,28.379,0,0,1,5.028-1.963c.245,1.472.491,2.944.858,4.294.491,1.84.858,3.558,1.472,5.275A18.928,18.928,0,0,0,29.784,62.041ZM16.663,44.5a20.8,20.8,0,0,1-.123-2.7h9.688c.123,2.208.245,4.539.491,6.747a33.59,33.59,0,0,0-4.905,1.84c-1.226.613-2.453,1.1-3.679,1.84A31.945,31.945,0,0,1,16.663,44.5Zm7.6,21.958A47.017,47.017,0,0,0,27.7,70.015a12.99,12.99,0,0,0,1.472,1.227,30.751,30.751,0,0,0,4.537,3.312l.123.123a.12.12,0,0,1-.123-.123,20.034,20.034,0,0,1-4.537-.981,6.912,6.912,0,0,1-1.472-.491,25.22,25.22,0,0,1-5.886-2.576c-.491-.245-.981-.613-1.472-.859A14.7,14.7,0,0,1,21.813,68.3C22.549,67.684,23.407,67.071,24.266,66.457Zm-7.6-11.286a2.565,2.565,0,0,0,.736-.491,38.788,38.788,0,0,0,4.415,8.71c.491.613.981,1.349,1.472,1.963a10.23,10.23,0,0,0-1.472.981c-.981.859-1.962,1.717-2.82,2.576-.858-.613-1.472-1.1-2.33-1.84A33.422,33.422,0,0,1,13.6,64.249a49.445,49.445,0,0,1-3.188-3.926A36.255,36.255,0,0,1,13.6,57.379C14.578,56.643,15.559,55.907,16.663,55.171ZM14.946,41.8a35.5,35.5,0,0,0,1.717,10.8c.123.123.123.245.123.491l-.123.123c-.981.613-2.085,1.349-3.066,2.085A38.13,38.13,0,0,0,9.55,58.852,33.563,33.563,0,0,1,4.4,41.8H14.946ZM46.829,71.855c.245-.245.613-.491.858-.736a5.272,5.272,0,0,0,1.226-1.1,29.385,29.385,0,0,0,3.311-3.435,19.11,19.11,0,0,1,2.453,1.963c.491.491.981.859,1.472,1.349-.491.245-.981.613-1.472.859A30.168,30.168,0,0,1,48.914,73.2c-.368.123-.858.245-1.226.368a1.113,1.113,0,0,1-.858.368,25.107,25.107,0,0,1-2.943.613,3.394,3.394,0,0,1-1.1.123,4.97,4.97,0,0,1,1.1-.613C44.867,73.327,45.971,72.591,46.829,71.855Z" transform="translate(-4.4 5.323)" fill="#006199" fill-rule="evenodd"></path><path id="Path_2039" data-name="Path 2039" d="M60.073,32.23a2.565,2.565,0,0,1-.736.491A35.9,35.9,0,0,0,54.8,24.134a14.47,14.47,0,0,0-1.594-2.208c.613-.491,1.1-.859,1.594-1.227A30.7,30.7,0,0,0,57.743,18c.858.613,1.594,1.1,2.453,1.84a36.253,36.253,0,0,1,3.188,2.944q1.655,1.84,3.311,4.048a18.959,18.959,0,0,1-3.311,2.944,37.633,37.633,0,0,1-3.311,2.453M61.79,45.6a44.1,44.1,0,0,0-1.717-10.673c-.123-.123-.123-.368-.245-.491.123-.123.123-.123.245-.123a18.515,18.515,0,0,0,3.188-2.208,40.584,40.584,0,0,0,4.169-3.68A34.269,34.269,0,0,1,72.459,45.6H61.79ZM39.226,40.449c1.594-.123,3.066-.123,4.66-.368.981-.123,2.085-.368,2.943-.491.245-.123.613-.123.858-.245a7.814,7.814,0,0,1,.858-.245c.245,1.717.368,3.435.491,5.152a5.034,5.034,0,0,1,.123,1.349H39.226Zm-22.564,2.7a35.208,35.208,0,0,1,1.717-8.1,29.88,29.88,0,0,0,3.434,1.717,39.865,39.865,0,0,0,4.905,1.84,64.677,64.677,0,0,0-.491,6.87H16.54A15.647,15.647,0,0,1,16.663,43.148Zm0-9.078a.38.38,0,0,0,.245.123,2.275,2.275,0,0,0-.245.859A42.176,42.176,0,0,0,14.946,45.6H4.4A33.908,33.908,0,0,1,9.428,28.427a38.935,38.935,0,0,0,4.169,3.68A26.1,26.1,0,0,0,16.663,34.07Zm43.41,8.71A21.724,21.724,0,0,1,60.2,45.6H50.508c-.123-2.331-.245-4.539-.491-6.87,1.594-.491,3.188-1.1,4.66-1.717a25.722,25.722,0,0,0,3.679-1.84A38.15,38.15,0,0,1,60.073,42.78ZM23.53,22.048A29.757,29.757,0,0,0,21.813,24.5,43.789,43.789,0,0,0,17.4,32.721a5.191,5.191,0,0,0-.858-.613c-.981-.613-2.085-1.472-3.066-2.208a23.875,23.875,0,0,1-3.188-2.944,51.42,51.42,0,0,1,3.188-4.048c.981-.981,1.962-1.963,3.066-2.944.858-.613,1.594-1.227,2.453-1.84a26.953,26.953,0,0,0,2.82,2.453A18.311,18.311,0,0,0,23.53,22.048Zm-1.717,13L18.87,33.579a47.2,47.2,0,0,1,2.943-6.134c.981-1.472,1.962-3.067,3.066-4.416.858.491,1.839.981,2.82,1.472a6.912,6.912,0,0,0,1.472.491c.245.123.613.245.858.368-.245.859-.613,1.84-.858,2.7-.613,1.717-.981,3.435-1.472,5.275-.245,1.349-.491,2.576-.736,3.926C25.247,36.524,23.407,35.788,21.813,35.052Zm25.875-.859A31.388,31.388,0,0,1,48.3,37.5a5.31,5.31,0,0,1-.613.123c-.245.123-.613.123-.858.245-.981.123-1.962.368-2.943.491a28.687,28.687,0,0,1-4.66.368V26.587a28.446,28.446,0,0,0,4.66-.613c.491-.123.858-.245,1.349-.368.613,1.717,1.226,3.435,1.717,5.152A34.326,34.326,0,0,1,47.688,34.193Zm2.085,2.821c-.245-1.349-.491-2.821-.858-4.171-.368-1.595-.736-3.067-1.226-4.662-.245-.859-.613-1.717-.858-2.576-.123-.123-.123-.368-.245-.613h.245c.245-.123.613-.245.858-.368a12.719,12.719,0,0,0,1.226-.491c.981-.491,1.839-.981,2.82-1.472.981,1.349,2.085,2.821,2.943,4.171a35.441,35.441,0,0,1,3.188,6.5,25.769,25.769,0,0,1-3.188,1.595A17.4,17.4,0,0,1,49.772,37.014Zm-20.6.613c-.245-.123-.491-.123-.613-.245a35.967,35.967,0,0,1,.613-3.558,62.87,62.87,0,0,1,2.33-8.219,14.254,14.254,0,0,0,2.207.491,21.587,21.587,0,0,0,4.047.368V38.732c-1.349,0-2.7-.123-4.047-.245A24.824,24.824,0,0,1,29.171,37.628ZM33.586,45.6H27.7c.123-2.208.245-4.416.491-6.5.245.123.613.123.981.245,1.472.368,2.943.613,4.537.859,1.349.123,2.575.245,4.047.245L37.632,45.6H33.586Z" transform="translate(-4.4 -0.072)" fill="#0b8cc8" fill-rule="evenodd"></path></svg> 